SplineFontDB: 3.0
FontName: FreeSans
FullName: FreeSans
FamilyName: FreeSans
Weight: Book
Copyright: Copyright 2002, 2003, 2005, 2008, 2009, 2010, 2012 GNU Freefont contributors.
Version: $Revision: 2268 $
ItalicAngle: 0
UnderlinePosition: -151
UnderlineWidth: 50
Ascent: 800
Descent: 200
LayerCount: 2
Layer: 0 0 "Back"  1
Layer: 1 0 "Fore"  0
FSType: 0
OS2Version: 3
OS2_WeightWidthSlopeOnly: 0
OS2_UseTypoMetrics: 1
CreationTime: 1203284335
ModificationTime: 1335896670
PfmFamily: 33
TTFWeight: 400
TTFWidth: 5
LineGap: 100
VLineGap: 0
Panose: 2 11 5 4 2 2 2 2 2 4
OS2TypoAscent: 0
OS2TypoAOffset: 1
OS2TypoDescent: 0
OS2TypoDOffset: 1
OS2TypoLinegap: 100
OS2WinAscent: -150
OS2WinAOffset: 1
OS2WinDescent: -338
OS2WinDOffset: 1
HheadAscent: -150
HheadAOffset: 1
HheadDescent: 438
HheadDOffset: 1
OS2SubXSize: 650
OS2SubYSize: 666
OS2SubXOff: 0
OS2SubYOff: 200
OS2SupXSize: 650
OS2SupYSize: 666
OS2SupXOff: 0
OS2SupYOff: 390
OS2StrikeYSize: 49
OS2StrikeYPos: 258
OS2FamilyClass: 2053
OS2Vendor: 'GNU '
Lookup: 6 0 0 "'ccmp' Contextual Chaining in Latin - iogonek-accented"  {"'ccmp' Contextual Chaining in Latin - iogonek-subtable"  } ['ccmp' ('latn' <'dflt' > ) ]
Lookup: 2 0 0 "Glyph Decomposition of iogonek"  {"Glyph Decomposition of iogonek-remove-dot"  } []
Lookup: 4 0 0 "'ccmp' Glyph Composition in Latin - i-accent"  {"'ccmp' Glyph Composition in Latin - i-accent"  } ['ccmp' ('latn' <'dflt' > ) ]
Lookup: 4 0 0 "'liga' Standard Ligatures in Latin for Catalan"  {"'liga' Standard Ligatures in Latin for Catalan-subtable"  } ['liga' ('latn' <'CAT ' > ) ]
Lookup: 4 0 0 "'liga' Standard Ligatures in Latin for Dutch"  {"'liga' Standard Ligatures in Latin for Dutch subtable"  } ['liga' ('latn' <'NLD ' > ) ]
Lookup: 4 0 0 "'ccmp' Glyph Composition in Latin for Viet 1"  {"'ccmp' Glyph Composition in Latin for Viet horn"  "'ccmp' Glyph Composition in Latin for Viet 1 subtable"  } ['ccmp' ('latn' <'dflt' > ) ]

StartChar: exclam
Encoding: 33 33 1
Width: 333
Flags: HMW
LayerCount: 2
Fore
SplineSet
208 729 m 1
 208 391 l 1
 186 168 l 1
 147 168 l 1
 125 391 l 1
 125 729 l 1
 208 729 l 1
208 104 m 1
 208 0 l 1
 124 0 l 1
 124 104 l 1
 208 104 l 1
EndSplineSet
Validated: 3073
Substitution2: "'locl' Localized Forms in Devanagari-western-punct" indic_exclam
EndChar

StartChar: quotedbl
Encoding: 34 34 2
Width: 333
Flags: HMW
LayerCount: 2
Fore
SplineSet
40 709 m 1
 133 709 l 1
 133 598 l 1
 106 464 l 1
 67 464 l 1
 40 598 l 1
 40 709 l 1
200 709 m 1
 293 709 l 1
 293 598 l 1
 266 464 l 1
 227 464 l 1
 200 598 l 1
 200 709 l 1
EndSplineSet
Validated: 3073
EndChar

StartChar: numbersign
Encoding: 35 35 3
Width: 556
Flags: HMW
LayerCount: 2
Fore
SplineSet
485 697 m 1
 449 501 l 1
 542 501 l 1
 542 433 l 1
 436 433 l 1
 405 259 l 1
 510 259 l 1
 510 191 l 1
 393 191 l 1
 354 -20 l 1
 278 -20 l 1
 316 191 l 1
 192 191 l 1
 153 -20 l 1
 77 -20 l 1
 115 191 l 1
 14 191 l 1
 14 259 l 1
 128 259 l 1
 159 433 l 1
 51 433 l 1
 51 501 l 1
 172 501 l 1
 208 697 l 1
 284 697 l 1
 248 501 l 1
 373 501 l 1
 408 697 l 1
 485 697 l 1
360 433 m 1
 236 433 l 1
 204 259 l 1
 329 259 l 1
 360 433 l 1
EndSplineSet
Validated: 3073
EndChar

StartChar: dollar
Encoding: 36 36 4
Width: 556
Flags: HMW
LayerCount: 2
Fore
SplineSet
518 195 m 0
 518 68 443 -13 302 -23 c 1
 302 -126 l 1
 243 -126 l 1
 243 -23 l 1
 98.2543 -13.3503 33 66.9613 33 208 c 1
 112 208 l 1
 118 140 122 62 243 46 c 1
 243 318 l 1
 122.581 354.291 46 388.763 46 516 c 0
 46 630 115 700 243 716 c 1
 243 770 l 1
 302 770 l 1
 302 716 l 1
 423 707 496 633 496 519 c 1
 417 519 l 1
 416 592 369 643 302 646 c 1
 302 397 l 1
 362 379 518 357 518 195 c 0
243 405 m 1
 243 645 l 1
 169 635 127 592 127 526 c 0
 127 465 164 426 243 405 c 1
302 46 m 1
 395 57 436 114 436 183 c 0
 436 249 404 279 302 309 c 1
 302 46 l 1
EndSplineSet
Validated: 3073
EndChar

StartChar: percent
Encoding: 37 37 5
Width: 889
Flags: HMW
LayerCount: 2
Fore
SplineSet
199 685 m 0
 295 685 370 609 370 512 c 0
 370 420 293 343 200 343 c 0
 106 343 29 420 29 514 c 0
 29 608 106 685 199 685 c 0
199 615 m 0
 144 615 98 570 98 514 c 0
 98 459 144 413 200 413 c 0
 255 413 301 458 301 513 c 0
 301 570 256 615 199 615 c 0
609 709 m 1
 675 709 l 1
 280 -20 l 1
 214 -20 l 1
 609 709 l 1
688 322 m 0
 784 322 859 246 859 150 c 0
 859 58 781 -19 689 -19 c 0
 595 -19 518 58 518 152 c 0
 518 245 595 322 688 322 c 0
688 252 m 0
 633 252 587 207 587 152 c 0
 587 96 633 51 689 51 c 0
 744 51 790 96 790 150 c 0
 790 207 745 252 688 252 c 0
EndSplineSet
Validated: 3073
EndChar

StartChar: ampersand
Encoding: 38 38 6
Width: 667
Flags: HMW
LayerCount: 2
Fore
SplineSet
466 78 m 1
 434 47 371 -23 257 -23 c 0
 134 -23 52 56 52 176 c 0
 52 267 90 317 214 389 c 1
 152 467 133 505 133 552 c 0
 133 640 209 709 304 709 c 0
 399 709 467 644 467 552 c 0
 467 480 433 437 329 378 c 1
 462 215 l 1
 481 249 493 294 493 330 c 0
 493 331 493 333 493 334 c 1
 573 334 l 1
 573 274 552 208 515 151 c 1
 637 0 l 1
 528 0 l 1
 466 78 l 1
285 431 m 1
 363 480 388 509 388 554 c 0
 388 603 351 639 301 639 c 0
 249 639 215 605 215 553 c 0
 215 518 224 501 285 431 c 1
418 137 m 1
 258 337 l 1
 167 279 136 239 136 183 c 0
 136 113 195 55 267 55 c 0
 319 55 362 78 418 137 c 1
EndSplineSet
Validated: 3073
EndChar

StartChar: quotesingle
Encoding: 39 39 7
Width: 200
Flags: HMW
LayerCount: 2
Fore
SplineSet
53 709 m 1
 147 709 l 1
 147 598 l 1
 120 464 l 1
 80 464 l 1
 53 598 l 1
 53 709 l 1
EndSplineSet
Validated: 3073
EndChar

StartChar: parenleft
Encoding: 40 40 8
Width: 333
Flags: HMW
LayerCount: 2
Fore
SplineSet
236 729 m 1
 291 729 l 1
 203 587 154 418 154 259 c 0
 154 99 203 -69 291 -212 c 1
 236 -212 l 1
 136 -81 73 101 73 259 c 0
 73 416 136 598 236 729 c 1
EndSplineSet
Validated: 3073
EndChar

StartChar: parenright
Encoding: 41 41 9
Width: 333
Flags: HMW
LayerCount: 2
Fore
SplineSet
93 -212 m 1
 38 -212 l 1
 126 -70 175 99 175 258 c 0
 175 418 126 586 38 729 c 1
 93 729 l 1
 193 598 256 416 256 258 c 0
 256 101 193 -81 93 -212 c 1
EndSplineSet
Validated: 3073
EndChar

StartChar: asterisk
Encoding: 42 42 10
Width: 389
Flags: HMW
LayerCount: 2
Fore
SplineSet
160 729 m 1
 223 729 l 1
 218 617 l 1
 324 655 l 1
 343 596 l 1
 235 566 l 1
 305 477 l 1
 254 441 l 1
 192 534 l 1
 129 441 l 1
 79 477 l 1
 148 566 l 1
 40 596 l 1
 59 655 l 1
 165 617 l 1
 160 729 l 1
EndSplineSet
Validated: 3073
EndChar

StartChar: plus
Encoding: 43 43 11
Width: 584
Flags: HMW
LayerCount: 2
Fore
SplineSet
534 267 m 1
 534 197 l 1
 327 197 l 1
 327 -10 l 1
 257 -10 l 1
 257 197 l 1
 50 197 l 1
 50 267 l 1
 257 267 l 1
 257 474 l 1
 327 474 l 1
 327 267 l 1
 534 267 l 1
EndSplineSet
Validated: 3073
EndChar

StartChar: comma
Encoding: 44 44 12
Width: 278
Flags: HMW
LayerCount: 2
Fore
SplineSet
87 104 m 1
 192 104 l 1
 192 -16 l 2
 192 -102 157 -147 87 -147 c 1
 87 -109 l 1
 125 -106.6 140 -87 140 -18 c 2
 140 0 l 1
 87 0 l 1
 87 104 l 1
EndSplineSet
Validated: 3073
EndChar

StartChar: hyphen
Encoding: 45 45 13
Width: 333
Flags: HMW
LayerCount: 2
Fore
SplineSet
287 312 m 1
 287 240 l 1
 46 240 l 1
 46 312 l 1
 287 312 l 1
EndSplineSet
Validated: 3073
EndChar

StartChar: period
Encoding: 46 46 14
Width: 250
Flags: HMW
LayerCount: 2
Fore
SplineSet
184 104 m 1
 184 0 l 1
 80 0 l 1
 80 104 l 1
 184 104 l 1
EndSplineSet
Validated: 3073
EndChar

StartChar: slash
Encoding: 47 47 15
Width: 278
Flags: HMW
LayerCount: 2
Fore
SplineSet
229 729 m 1
 284 729 l 1
 47 -20 l 1
 -8 -20 l 1
 229 729 l 1
EndSplineSet
Validated: 3073
EndChar

StartChar: zero
Encoding: 48 48 16
Width: 556
Flags: MW
AnchorPoint: "middle" 273 339 basechar 0
LayerCount: 2
Fore
SplineSet
43 343 m 0
 43 654 176 709 275 709 c 4
 451 709 507 543 507 337 c 0
 507 104 425 -23 275 -23 c 0
 123 -23 43 104 43 343 c 0
275 631 m 0
 180 631 133 536 133 342 c 0
 133 148 180 50 273 50 c 0
 371 50 417 144 417 345 c 0
 417 535 370 631 275 631 c 0
EndSplineSet
Validated: 3073
Substitution2: "'pnum' Proportional Numbers subtable" fit.0
Substitution2: "'zero' Slashed Zero subtable" zeroslashed
EndChar

StartChar: one
Encoding: 49 49 17
Width: 556
Flags: MW
AnchorPoint: "middle" 286 339 basechar 0
LayerCount: 2
Fore
SplineSet
259 505 m 1
 102 505 l 1
 102 568 l 1
 238 585 258 600 289 709 c 5
 347 709 l 1
 347 0 l 1
 259 0 l 1
 259 505 l 1
EndSplineSet
Validated: 3073
Substitution2: "'pnum' Proportional Numbers subtable" fit.1
EndChar

StartChar: two
Encoding: 50 50 18
Width: 556
Flags: MW
AnchorPoint: "middle" 276 339 basechar 0
LayerCount: 2
Fore
SplineSet
50 463 m 1
 56 677 187 709 284 709 c 4
 418 709 511 624 511 501 c 0
 511 414 460 341 361 287 c 2
 261 233 l 2
 172 185 142 145 133 87 c 1
 506 87 l 1
 506 0 l 1
 34 0 l 1
 42 156 85 223 233 307 c 2
 325 359 l 2
 388 395 421 443 421 499 c 0
 421 575 361 632 281 632 c 0
 159 632 142 529 138 463 c 1
 50 463 l 1
EndSplineSet
Validated: 3073
Substitution2: "'pnum' Proportional Numbers subtable" fit.2
EndChar

StartChar: three
Encoding: 51 51 19
Width: 556
Flags: MW
AnchorPoint: "middle" 266 364 basechar 0
LayerCount: 2
Fore
SplineSet
270 632 m 0
 158 632 137 557 135 480 c 1
 47 480 l 1
 50 631 126 709 269 709 c 0
 404 709 485 636 485 514 c 0
 485 443 452 393 386 367 c 1
 471 338 506 288 506 198 c 0
 506 64 412 -23 266 -23 c 0
 118 -23 43 52 32 206 c 1
 120 206 l 1
 126 103 173 55 269 55 c 0
 361 55 416 108 416 197 c 0
 416 282 366 326 269 326 c 2
 232 325 l 1
 221 325 l 1
 221 400 l 1
 338 402 395 419 395 511 c 0
 395 586 348 632 270 632 c 0
EndSplineSet
Validated: 3073
Substitution2: "'pnum' Proportional Numbers subtable" fit.3
EndChar

StartChar: four
Encoding: 52 52 20
Width: 556
Flags: MW
AnchorPoint: "middle" 288 339 basechar 0
LayerCount: 2
Fore
SplineSet
327 170 m 1
 28 170 l 1
 28 263 l 1
 350 709 l 5
 415 709 l 1
 415 249 l 1
 520 249 l 1
 520 170 l 1
 415 170 l 1
 415 0 l 1
 327 0 l 1
 327 170 l 1
327 249 m 1
 327 559 l 1
 105 249 l 1
 327 249 l 1
EndSplineSet
Validated: 3073
Substitution2: "'pnum' Proportional Numbers subtable" fit.4
EndChar

StartChar: five
Encoding: 53 53 21
Width: 556
Flags: MW
AnchorPoint: "middle" 273 339 basechar 0
LayerCount: 2
Fore
SplineSet
476 709 m 1
 476 622 l 1
 181 622 l 1
 153 424 l 1
 194 454 234 467 284 467 c 0
 420 467 513 371 513 231 c 0
 513 81 413 -23 270 -23 c 0
 70 -23 44 128 35 174 c 1
 123 174 l 1
 144 94 191 55 268 55 c 0
 364 55 423 117 423 219 c 0
 423 324 363 389 268 389 c 0
 213 389 179 372 138 323 c 1
 57 323 l 1
 110 709 l 5
 476 709 l 1
EndSplineSet
Validated: 3073
Substitution2: "'pnum' Proportional Numbers subtable" fit.5
EndChar

StartChar: six
Encoding: 54 54 22
Width: 556
Flags: MW
AnchorPoint: "middle" 286 339 basechar 0
LayerCount: 2
Fore
SplineSet
43 323 m 0
 43 651 193 709 297 709 c 4
 405 709 481 640 498 524 c 1
 410 524 l 1
 396 592 353 631 291 631 c 0
 190 631 134 535 133 362 c 1
 171 414 226 441 296 441 c 0
 423 441 513 348 513 216 c 0
 513 77 416 -23 281 -23 c 0
 104 -23 43 123 43 323 c 0
285 363 m 0
 198 363 138 302 138 214 c 0
 138 123 200 55 282 55 c 0
 363 55 423 120 423 209 c 0
 423 304 370 363 285 363 c 0
EndSplineSet
Validated: 3073
Substitution2: "'pnum' Proportional Numbers subtable" fit.6
EndChar

StartChar: seven
Encoding: 55 55 23
Width: 556
Flags: MW
AnchorPoint: "middle" 273 365 basechar 0
LayerCount: 2
Fore
SplineSet
520 709 m 1
 520 635 l 1
 360 422 271 227 232 0 c 1
 138 0 l 1
 191 233 260 381 429 622 c 1
 46 622 l 1
 46 709 l 5
 520 709 l 1
EndSplineSet
Validated: 3073
Substitution2: "'pnum' Proportional Numbers subtable" fit.7
EndChar

StartChar: eight
Encoding: 56 56 24
Width: 556
Flags: MW
AnchorPoint: "middle" 275 354 basechar 0
LayerCount: 2
Fore
SplineSet
391 373 m 1
 473 334 513 275 513 196 c 0
 513 67 415 -23 275 -23 c 0
 135 -23 37 67 37 197 c 0
 37 275 77 334 158 373 c 1
 86 418 62 454 62 520 c 0
 62 631 150 709 275 709 c 4
 401 709 488 631 488 520 c 0
 488 453 464 417 391 373 c 1
275 631 m 0
 201 631 152 587 152 519 c 0
 152 452 201 408 275 408 c 0
 349 408 398 452 398 518 c 0
 398 587 350 631 275 631 c 0
275 334 m 0
 187 334 127 278 127 195 c 0
 127 112 187 55 273 55 c 0
 363 55 423 111 423 195 c 0
 423 278 363 334 275 334 c 0
EndSplineSet
Validated: 3073
Substitution2: "'pnum' Proportional Numbers subtable" fit.8
EndChar

StartChar: nine
Encoding: 57 57 25
Width: 556
Flags: MW
AnchorPoint: "middle" 269 339 basechar 0
LayerCount: 2
Fore
SplineSet
509 363 m 0
 509 35 358 -23 254 -23 c 0
 146 -23 70 46 53 162 c 1
 141 162 l 1
 155 94 198 55 260 55 c 0
 361 55 417 151 418 324 c 1
 372 269 323 245 256 245 c 0
 128 245 38 338 38 470 c 0
 38 609 135 709 270 709 c 0
 446 709 509 565 509 363 c 0
269 632 m 0
 188 632 128 567 128 477 c 0
 128 382 181 323 266 323 c 0
 352 323 413 385 413 472 c 0
 413 564 351 632 269 632 c 0
EndSplineSet
Validated: 3073
Substitution2: "'pnum' Proportional Numbers subtable" fit.9
EndChar

StartChar: colon
Encoding: 58 58 26
Width: 250
Flags: HMW
LayerCount: 2
Fore
SplineSet
184 104 m 1
 184 0 l 1
 80 0 l 1
 80 104 l 1
 184 104 l 1
184 524 m 1
 184 420 l 1
 80 420 l 1
 80 524 l 1
 184 524 l 1
EndSplineSet
Validated: 3073
EndChar

StartChar: less
Encoding: 60 60 28
Width: 584
Flags: HMW
LayerCount: 2
Fore
SplineSet
45 198 m 1
 45 267 l 1
 534 474 l 1
 534 395 l 1
 140 234 l 1
 534 70 l 1
 534 -9 l 1
 45 198 l 1
EndSplineSet
Validated: 3073
EndChar

StartChar: equal
Encoding: 61 61 29
Width: 584
Flags: HMW
LayerCount: 2
Fore
SplineSet
534 353 m 1
 534 283 l 1
 50 283 l 1
 50 353 l 1
 534 353 l 1
534 181 m 1
 534 111 l 1
 50 111 l 1
 50 181 l 1
 534 181 l 1
EndSplineSet
Validated: 3073
EndChar

StartChar: greater
Encoding: 62 62 30
Width: 584
Flags: HMW
LayerCount: 2
Fore
SplineSet
539 267 m 1
 539 198 l 1
 50 -9 l 1
 50 70 l 1
 444 231 l 1
 50 395 l 1
 50 474 l 1
 539 267 l 1
EndSplineSet
Validated: 3073
EndChar

StartChar: question
Encoding: 63 63 31
Width: 556
Flags: HMW
LayerCount: 2
Fore
SplineSet
509 549 m 0
 509 384 330 365 330 246 c 2
 330 199 l 1
 240 199 l 1
 240 254 l 2
 240 390 419 423 419 549 c 0
 419 617 368 663 291 663 c 0
 187 663 162 596 162 507 c 1
 77 507 l 1
 77 661 152 741 296 741 c 0
 426 741 509 666 509 549 c 0
330 104 m 1
 330 0 l 1
 240 0 l 1
 240 104 l 1
 330 104 l 1
EndSplineSet
Validated: 3073
Substitution2: "'locl' Localized Forms in Devanagari-western-punct" indic_question
EndChar

StartChar: at
Encoding: 64 64 32
Width: 1015
Flags: HMW
LayerCount: 2
Fore
SplineSet
665 501 m 1
 748 501 l 1
 658 221 l 1
 650 198 646 180 646 171 c 0
 646 147 669 127 696 127 c 0
 781 127 864 240 864 357 c 0
 864 524 703 664 512 664 c 0
 301 664 119 483 119 273 c 0
 119 82 282 -65 494 -65 c 0
 548 -65 605 -56 687 -33 c 1
 715 -100 l 1
 643 -127 563 -142 489 -142 c 0
 236 -142 34 36 34 258 c 0
 34 517.998 258.403 741 525 741 c 0
 758 741 951 572 951 369 c 0
 951 219.595 858 57 679 57 c 0
 616 57 578 83 569 134 c 1
 523 84 480 62 427 62 c 0
 334 62 264 141 264 245 c 0
 264 390 387 522 521 522 c 0
 576 522 618 492 643 435 c 1
 665 501 l 1
453 126 m 0
 548 126 609 281 609 368 c 0
 609 419 569 458 515 458 c 0
 431 458 354 356 354 244 c 0
 354 178 398 126 453 126 c 0
EndSplineSet
Validated: 3073
EndChar

StartChar: A
Encoding: 65 65 33
Width: 666
Flags: HMW
AnchorPoint: "middle" 337 303 basechar 0
AnchorPoint: "below" 342 0 basechar 0
AnchorPoint: "ogonek" 598 -4 basechar 0
AnchorPoint: "above" 333 729 basechar 0
LayerCount: 2
Fore
SplineSet
472 219 m 1
 191 219 l 1
 114 0 l 1
 15 0 l 1
 275 729 l 1
 395 729 l 1
 651 0 l 1
 547 0 l 1
 472 219 l 1
446 297 m 1
 334 629 l 1
 214 297 l 1
 446 297 l 1
EndSplineSet
Validated: 3073
Substitution2: "'c2sc' Capitals to Small Capitals in Latin subtable" sc.a
EndChar

StartChar: B
Encoding: 66 66 34
Width: 664
Flags: HMW
AnchorPoint: "middle" 317 377 basechar 0
AnchorPoint: "above" 308 729 basechar 0
AnchorPoint: "below" 315 0 basechar 0
LayerCount: 2
Fore
SplineSet
624 208 m 0
 624 83 538 0 409 0 c 2
 80 0 l 1
 80 729 l 1
 376 729 l 2
 549 729 592 618 592 544 c 0
 592 470 557 416 491 385 c 1
 584 349 624 296 624 208 c 0
499 531 m 0
 499 625 431 647 353 647 c 2
 173 647 l 1
 173 415 l 1
 353 415 l 2
 441 415 499 444 499 531 c 0
400 82 m 2
 505 82 531 156 531 207 c 0
 531 281 486 333 400 333 c 2
 173 333 l 1
 173 82 l 1
 400 82 l 2
EndSplineSet
Validated: 3073
Substitution2: "'c2sc' Capitals to Small Capitals in Latin subtable" sc.b
EndChar

StartChar: C
Encoding: 67 67 35
Width: 709
Flags: HMW
AnchorPoint: "middle" 374 360 basechar 0
AnchorPoint: "below" 380 0 basechar 0
AnchorPoint: "above" 381 729 basechar 0
LayerCount: 2
Fore
SplineSet
40 356 m 0
 40 508 107 741 373 741 c 0
 533 741 625 663 654 503 c 1
 559 503 l 1
 538 605 480 659 362 659 c 0
 221 659 133 544 133 357 c 0
 133 175 225 59 370 59 c 0
 492 59 551 128 573 266 c 1
 669 266 l 1
 647 73 547 -23 369 -23 c 0
 106 -23 40 207 40 356 c 0
EndSplineSet
Validated: 3073
Substitution2: "'c2sc' Capitals to Small Capitals in Latin subtable" sc.c
EndChar

StartChar: D
Encoding: 68 68 36
Width: 698
Flags: HMW
AnchorPoint: "middle" 341 360 basechar 0
AnchorPoint: "above" 338 729 basechar 0
AnchorPoint: "below" 345 0 basechar 0
LayerCount: 2
Fore
SplineSet
80 0 m 1
 80 729 l 1
 361 729 l 2
 546 729 658 591 658 365 c 0
 658 138 545 0 361 0 c 2
 80 0 l 1
173 82 m 1
 345 82 l 2
 489 82 565 180 565 364 c 0
 565 550 489 647 345 647 c 2
 173 647 l 1
 173 82 l 1
EndSplineSet
Validated: 3073
Substitution2: "'c2sc' Capitals to Small Capitals in Latin subtable" sc.d
EndChar

StartChar: E
Encoding: 69 69 37
Width: 633
Flags: HMW
AnchorPoint: "middle" 340 360 basechar 0
AnchorPoint: "ogonek" 563 -1 basechar 0
AnchorPoint: "below" 334 0 basechar 0
AnchorPoint: "above" 334 729 basechar 0
LayerCount: 2
Fore
SplineSet
173 332 m 1
 173 82 l 1
 603 82 l 1
 603 0 l 1
 80 0 l 1
 80 729 l 1
 585 729 l 1
 585 647 l 1
 173 647 l 1
 173 414 l 1
 570 414 l 1
 570 332 l 1
 173 332 l 1
EndSplineSet
Validated: 3073
Substitution2: "'c2sc' Capitals to Small Capitals in Latin subtable" sc.e
EndChar

StartChar: F
Encoding: 70 70 38
Width: 599
Flags: HMW
AnchorPoint: "middle" 344 360 basechar 0
AnchorPoint: "above" 334 729 basechar 0
AnchorPoint: "below" 334 0 basechar 0
LayerCount: 2
Fore
SplineSet
173 332 m 1
 173 0 l 1
 80 0 l 1
 80 729 l 1
 569 729 l 1
 569 647 l 1
 173 647 l 1
 173 414 l 1
 521 414 l 1
 521 332 l 1
 173 332 l 1
EndSplineSet
Validated: 3073
Substitution2: "'c2sc' Capitals to Small Capitals in Latin subtable" sc.f
EndChar

StartChar: G
Encoding: 71 71 39
Width: 765
Flags: HMW
AnchorPoint: "middle" 382 360 basechar 0
AnchorPoint: "below" 399 0 basechar 0
AnchorPoint: "above" 399 729 basechar 0
LayerCount: 2
Fore
SplineSet
133 362 m 0
 133 245 185 59 394 59 c 0
 527 59 623 153 623 283 c 2
 623 303 l 1
 401 303 l 1
 401 385 l 1
 705 385 l 1
 705 -4 l 1
 646 -4 l 1
 623 93 l 1
 552 14 473 -23 374 -23 c 0
 177 -23 40 133 40 357 c 0
 40 503 110 741 390 741 c 0
 557 741 669 656 695 508 c 1
 600 508 l 1
 580 602 500 659 389 659 c 0
 235 659 133 541 133 362 c 0
EndSplineSet
Validated: 3073
Substitution2: "'c2sc' Capitals to Small Capitals in Latin subtable" sc.g
EndChar

StartChar: H
Encoding: 72 72 40
Width: 721
Flags: HMW
AnchorPoint: "middle" 361 368 basechar 0
AnchorPoint: "below" 360 0 basechar 0
AnchorPoint: "above" 360 729 basechar 0
LayerCount: 2
Fore
SplineSet
548 332 m 1
 173 332 l 1
 173 0 l 1
 80 0 l 1
 80 729 l 1
 173 729 l 1
 173 414 l 1
 548 414 l 1
 548 729 l 1
 641 729 l 1
 641 0 l 1
 548 0 l 1
 548 332 l 1
EndSplineSet
Validated: 3073
Substitution2: "'c2sc' Capitals to Small Capitals in Latin subtable" sc.h
EndChar

StartChar: I
Encoding: 73 73 41
Width: 278
Flags: HMW
AnchorPoint: "middle" 146 360 basechar 0
AnchorPoint: "ogonek" 146 1 basechar 0
AnchorPoint: "below" 146 0 basechar 0
AnchorPoint: "above" 142 729 basechar 0
LayerCount: 2
Fore
SplineSet
194 729 m 1
 194 0 l 1
 100 0 l 1
 100 729 l 1
 194 729 l 1
EndSplineSet
Validated: 3073
Substitution2: "'c2sc' Capitals to Small Capitals in Latin subtable" sc.i
EndChar

StartChar: J
Encoding: 74 74 42
Width: 528
Flags: HMW
AnchorPoint: "middle" 245 360 basechar 0
AnchorPoint: "below" 238 0 basechar 0
AnchorPoint: "above" 397 729 basechar 0
LayerCount: 2
Fore
SplineSet
239 55 m 0
 330 55 351 124 351 216 c 2
 351 729 l 1
 444 729 l 1
 444 182 l 2
 444 56 365 -23 238 -23 c 0
 113 -23 35 52 35 170 c 2
 35 234 l 1
 130 234 l 1
 130 187 l 2
 130 102 169 55 239 55 c 0
EndSplineSet
Validated: 3073
Substitution2: "'c2sc' Capitals to Small Capitals in Latin subtable" sc.j
EndChar

StartChar: K
Encoding: 75 75 43
Width: 674
Flags: HMW
AnchorPoint: "middle" 334 396 basechar 0
AnchorPoint: "above" 345 729 basechar 0
AnchorPoint: "below" 345 0 basechar 0
LayerCount: 2
Fore
SplineSet
173 255 m 1
 173 0 l 1
 80 0 l 1
 80 729 l 1
 173 729 l 1
 173 360 l 1
 536 729 l 1
 656 729 l 1
 359 432 l 1
 659 0 l 1
 549 0 l 1
 292 374 l 1
 173 255 l 1
EndSplineSet
Validated: 3073
Substitution2: "'c2sc' Capitals to Small Capitals in Latin subtable" sc.k
EndChar

StartChar: L
Encoding: 76 76 44
Width: 563
Flags: HMW
AnchorPoint: "middle" 303 360 basechar 0
AnchorPoint: "below" 302 0 basechar 0
AnchorPoint: "above" 140 737 basechar 0
LayerCount: 2
Fore
SplineSet
173 729 m 1
 173 82 l 1
 533 82 l 1
 533 0 l 1
 80 0 l 1
 80 729 l 1
 173 729 l 1
EndSplineSet
Validated: 3073
Substitution2: "'c2sc' Capitals to Small Capitals in Latin subtable" sc.l
EndChar

StartChar: M
Encoding: 77 77 45
Width: 846
Flags: HMW
AnchorPoint: "middle" 425 360 basechar 0
AnchorPoint: "below" 425 -2 basechar 0
AnchorPoint: "above" 425 727 basechar 0
LayerCount: 2
Fore
SplineSet
473 0 m 1
 375 0 l 1
 168 611 l 1
 168 0 l 1
 80 0 l 1
 80 729 l 1
 209 729 l 1
 425 94 l 1
 637 729 l 1
 766 729 l 1
 766 0 l 1
 678 0 l 1
 678 611 l 1
 473 0 l 1
EndSplineSet
Validated: 3073
Substitution2: "'c2sc' Capitals to Small Capitals in Latin subtable" sc.m
EndChar

StartChar: N
Encoding: 78 78 46
Width: 730
Flags: HMW
AnchorPoint: "middle" 366 360 basechar 0
AnchorPoint: "below" 347 0 basechar 0
AnchorPoint: "above" 372 737 basechar 0
LayerCount: 2
Fore
SplineSet
650 729 m 1
 650 0 l 1
 545 0 l 1
 168 591 l 1
 168 0 l 1
 80 0 l 1
 80 729 l 1
 181 729 l 1
 562 133 l 1
 562 729 l 1
 650 729 l 1
EndSplineSet
Validated: 3073
Substitution2: "'c2sc' Capitals to Small Capitals in Latin subtable" sc.n
EndChar

StartChar: O
Encoding: 79 79 47
Width: 784
Flags: HMW
AnchorPoint: "topright" 487 729 basechar 0
AnchorPoint: "middle" 389 360 basechar 0
AnchorPoint: "ogonek" 453 -4 basechar 0
AnchorPoint: "below" 392 0 basechar 0
AnchorPoint: "above" 392 729 basechar 0
LayerCount: 2
Fore
SplineSet
744 353 m 0
 744 143 610 -23 392 -23 c 0
 182 -23 40 131 40 359 c 0
 40 587 182 741 391 741 c 0
 605 741 744 588 744 353 c 0
391 659 m 0
 237 659 133 539 133 359 c 0
 133 179 237 59 392 59 c 0
 546 59 651 179 651 355 c 0
 651 539 549 659 391 659 c 0
EndSplineSet
Validated: 3073
Substitution2: "'c2sc' Capitals to Small Capitals in Latin subtable" sc.o
EndChar

StartChar: P
Encoding: 80 80 48
Width: 656
Flags: HMW
AnchorPoint: "middle" 310 360 basechar 0
AnchorPoint: "below" 303 0 basechar 0
AnchorPoint: "above" 296 729 basechar 0
LayerCount: 2
Fore
SplineSet
606 515 m 0
 606 390 522 309 402 309 c 2
 173 309 l 1
 173 0 l 1
 80 0 l 1
 80 729 l 1
 381 729 l 2
 525 729 606 652 606 515 c 0
173 391 m 1
 367 391 l 2
 456 391 509 439 509 519 c 0
 509 599 456 647 367 647 c 2
 173 647 l 1
 173 391 l 1
EndSplineSet
Validated: 3073
Substitution2: "'c2sc' Capitals to Small Capitals in Latin subtable" sc.p
EndChar

StartChar: Q
Encoding: 81 81 49
Width: 784
Flags: HMW
AnchorPoint: "middle" 388 360 basechar 0
AnchorPoint: "above" 392 729 basechar 0
AnchorPoint: "below" 392 0 basechar 0
LayerCount: 2
Fore
SplineSet
735 -1 m 1
 688 -59 l 1
 583 28 l 1
 524 -7 464 -23 392 -23 c 0
 182 -23 40 131 40 359 c 0
 40 587 182 741 392 741 c 0
 602 741 744 587 744 361 c 0
 744 246 710 152 641 76 c 1
 735 -1 l 1
483 205 m 1
 572 132 l 1
 626 193 651 266 651 360 c 0
 651 539 547 659 392 659 c 0
 237 659 133 539 133 359 c 0
 133 179 236 59 391 59 c 0
 435 59 468 67 511 87 c 1
 437 149 l 1
 483 205 l 1
EndSplineSet
Validated: 3073
Substitution2: "'c2sc' Capitals to Small Capitals in Latin subtable" sc.q
EndChar

StartChar: R
Encoding: 82 82 50
Width: 709
Flags: HMW
AnchorPoint: "middle" 349 360 basechar 0
AnchorPoint: "below" 351 0 basechar 0
AnchorPoint: "above" 344 729 basechar 0
LayerCount: 2
Fore
SplineSet
523 360 m 1
 613.5 321 623 254.75 623 189.25 c 0
 623 171.844 622.329 154.492 622.329 137.718 c 0
 622.329 91.3672 627.451 49.4336 666 23 c 1
 666 0 l 1
 553 0 l 1
 540 30 533 74 533 119 c 2
 533 184 l 2
 533 274 496 314 413 314 c 2
 173 314 l 1
 173 0 l 1
 80 0 l 1
 80 729 l 1
 416 729 l 2
 559 729 638 660 638 534 c 0
 638 451 605 400 523 360 c 1
541 521 m 0
 541 625 476 647 398 647 c 2
 173 647 l 1
 173 396 l 1
 398 396 l 2
 497 396 541 435 541 521 c 0
EndSplineSet
Validated: 3073
Substitution2: "'c2sc' Capitals to Small Capitals in Latin subtable" sc.r
EndChar

StartChar: S
Encoding: 83 83 51
Width: 667
Flags: HMW
AnchorPoint: "middle" 331 364 basechar 0
AnchorPoint: "below" 336 0 basechar 0
AnchorPoint: "above" 335 729 basechar 0
LayerCount: 2
Fore
SplineSet
342 59 m 0
 500 59 528 139 528 191 c 0
 528 248 486 285 394 309 c 2
 213 357 l 2
 117 382 70 438 70 527 c 0
 70 659 169 741 329 741 c 0
 497 741 595 658 596 515 c 1
 508 515 l 1
 507 610 442 663 326 663 c 0
 228 663 163 614 163 540 c 0
 163 484 195 456 283 432 c 2
 466 383 l 2
 565 356 621 290 621 200 c 0
 621 111 564 -23 336 -23 c 0
 210 -23 51 25 48 232 c 1
 136 232 l 1
 136 230 136 229 136 227 c 0
 136 153 177 59 342 59 c 0
EndSplineSet
Validated: 3073
Substitution2: "'c2sc' Capitals to Small Capitals in Latin subtable" sc.s
EndChar

StartChar: T
Encoding: 84 84 52
Width: 632
Flags: HMW
AnchorPoint: "middle" 318 360 basechar 0
AnchorPoint: "below" 314 0 basechar 0
AnchorPoint: "above" 317 729 basechar 0
LayerCount: 2
Fore
SplineSet
363 647 m 1
 363 0 l 1
 270 0 l 1
 270 647 l 1
 30 647 l 1
 30 729 l 1
 602 729 l 1
 602 647 l 1
 363 647 l 1
EndSplineSet
Validated: 3073
Substitution2: "'c2sc' Capitals to Small Capitals in Latin subtable" sc.t
EndChar

StartChar: U
Encoding: 85 85 53
Width: 720
Flags: HMW
AnchorPoint: "topright" 596 729 basechar 0
AnchorPoint: "middle" 358 367 basechar 0
AnchorPoint: "ogonek" 447 1 basechar 0
AnchorPoint: "below" 360 0 basechar 0
AnchorPoint: "above" 360 729 basechar 0
LayerCount: 2
Fore
SplineSet
547 729 m 1
 640 729 l 1
 640 217 l 2
 640 71 530 -23 359 -23 c 0
 186 -23 80 69 80 217 c 2
 80 729 l 1
 173 729 l 1
 173 217 l 2
 173 107 252 59 359 59 c 0
 476 59 547 119 547 217 c 2
 547 729 l 1
EndSplineSet
Validated: 3073
Substitution2: "'c2sc' Capitals to Small Capitals in Latin subtable" sc.u
EndChar

StartChar: V
Encoding: 86 86 54
Width: 645
Flags: HMW
AnchorPoint: "middle" 326 429 basechar 0
AnchorPoint: "above" 329 729 basechar 0
AnchorPoint: "below" 329 0 basechar 0
LayerCount: 2
Fore
SplineSet
377 0 m 1
 277 0 l 1
 15 729 l 1
 115 729 l 1
 329 112 l 1
 531 729 l 1
 630 729 l 1
 377 0 l 1
EndSplineSet
Validated: 3073
Substitution2: "'c2sc' Capitals to Small Capitals in Latin subtable" sc.v
EndChar

StartChar: W
Encoding: 87 87 55
Width: 937
Flags: HMW
AnchorPoint: "middle" 470 360 basechar 0
AnchorPoint: "below" 468 0 basechar 0
AnchorPoint: "above" 468 729 basechar 0
LayerCount: 2
Fore
SplineSet
737 0 m 1
 635 0 l 1
 467 599 l 1
 304 0 l 1
 202 0 l 1
 15 729 l 1
 119 729 l 1
 256 137 l 1
 418 729 l 1
 518 729 l 1
 684 137 l 1
 818 729 l 1
 922 729 l 1
 737 0 l 1
EndSplineSet
Validated: 3073
Substitution2: "'c2sc' Capitals to Small Capitals in Latin subtable" sc.w
EndChar

StartChar: X
Encoding: 88 88 56
Width: 657
Flags: HMW
AnchorPoint: "middle" 330 374 basechar 0
AnchorPoint: "above" 336 729 basechar 0
AnchorPoint: "below" 326 0 basechar 0
LayerCount: 2
Fore
SplineSet
384 374 m 1
 642 0 l 1
 527 0 l 1
 328 304 l 1
 128 0 l 1
 15 0 l 1
 273 374 l 1
 31 729 l 1
 144 729 l 1
 331 443 l 1
 519 729 l 1
 630 729 l 1
 384 374 l 1
EndSplineSet
Validated: 3073
Substitution2: "'c2sc' Capitals to Small Capitals in Latin subtable" sc.x
EndChar

StartChar: Y
Encoding: 89 89 57
Width: 678
Flags: HMW
AnchorPoint: "middle" 343 455 basechar 0
AnchorPoint: "ogonek" 355 -1 basechar 0
AnchorPoint: "below" 345 2 basechar 0
AnchorPoint: "above" 345 731 basechar 0
LayerCount: 2
Fore
SplineSet
389 286 m 1
 389 0 l 1
 296 0 l 1
 296 286 l 1
 15 729 l 1
 130 729 l 1
 344 374 l 1
 552 729 l 1
 663 729 l 1
 389 286 l 1
EndSplineSet
Validated: 3073
Substitution2: "'c2sc' Capitals to Small Capitals in Latin subtable" sc.y
EndChar

StartChar: Z
Encoding: 90 90 58
Width: 615
Flags: HMW
AnchorPoint: "middle" 309 360 basechar 0
AnchorPoint: "below" 317 0 basechar 0
AnchorPoint: "above" 321 729 basechar 0
LayerCount: 2
Fore
SplineSet
583 729 m 1
 583 645 l 1
 147 82 l 1
 585 82 l 1
 585 0 l 1
 30 0 l 1
 30 82 l 1
 468 647 l 1
 58 647 l 1
 58 729 l 1
 583 729 l 1
EndSplineSet
Validated: 3073
Substitution2: "'c2sc' Capitals to Small Capitals in Latin subtable" sc.z
EndChar

StartChar: bracketleft
Encoding: 91 91 59
Width: 278
Flags: HMW
LayerCount: 2
Fore
SplineSet
250 729 m 1
 250 657 l 1
 147 657 l 1
 147 -140 l 1
 250 -140 l 1
 250 -212 l 1
 64 -212 l 1
 64 729 l 1
 250 729 l 1
EndSplineSet
Validated: 3073
EndChar

StartChar: backslash
Encoding: 92 92 60
Width: 278
Flags: HMW
LayerCount: 2
Fore
SplineSet
47 729 m 1
 284 -20 l 1
 229 -20 l 1
 -8 729 l 1
 47 729 l 1
EndSplineSet
Validated: 3073
EndChar

StartChar: bracketright
Encoding: 93 93 61
Width: 277
Flags: HMW
LayerCount: 2
Fore
SplineSet
22 -212 m 1
 22 -140 l 1
 125 -140 l 1
 125 657 l 1
 22 657 l 1
 22 729 l 1
 208 729 l 1
 208 -212 l 1
 22 -212 l 1
EndSplineSet
Validated: 3073
EndChar

StartChar: asciicircum
Encoding: 94 94 62
Width: 469
Flags: HMW
LayerCount: 2
Fore
SplineSet
197 709 m 1
 270 709 l 1
 425 329 l 1
 356 329 l 1
 234 629 l 1
 113 329 l 1
 44 329 l 1
 197 709 l 1
EndSplineSet
Validated: 3073
EndChar

StartChar: underscore
Encoding: 95 95 63
Width: 556
Flags: HMW
LayerCount: 2
Fore
SplineSet
578 -126 m 1
 578 -176 l 1
 -22 -176 l 1
 -22 -126 l 1
 578 -126 l 1
EndSplineSet
Validated: 3073
EndChar

StartChar: grave
Encoding: 96 96 64
Width: 250
Flags: HMW
LayerCount: 2
Fore
SplineSet
135 740 m 1
 231 592 l 1
 171 592 l 1
 22 740 l 1
 135 740 l 1
EndSplineSet
Validated: 3073
EndChar

StartChar: a
Encoding: 97 97 65
Width: 543
Flags: HMW
AnchorPoint: "topright" 408 540 basechar 0
AnchorPoint: "middle" 248 264 basechar 0
AnchorPoint: "ogonek" 468 0 basechar 0
AnchorPoint: "below" 262 0 basechar 0
AnchorPoint: "above" 262 538 basechar 0
LayerCount: 2
Fore
SplineSet
53 369 m 1
 58 511 169 539 263 539 c 0
 392 539 460 489 460 396 c 2
 460 88 l 2
 460 62 476 47 505 47 c 0
 510 47 514 47 523 49 c 1
 523 -14 l 1
 496 -21 483 -23 466 -23 c 0
 412 -23 386 1 380 54 c 1
 321 0 268 -23 202 -23 c 0
 96 -23 30 37 30 132 c 0
 30 272 137 284 290 304 c 0
 356 312 377 327 377 362 c 2
 377 384 l 2
 377 434 335 462 260 462 c 0
 182 462 144 433 137 369 c 1
 53 369 l 1
220 50 m 0
 319 50 377 115 377 165 c 2
 377 259 l 1
 292 220 117 249 117 134 c 0
 117 81 155 50 220 50 c 0
EndSplineSet
Validated: 3073
Substitution2: "'smcp' Lowercase to Small Capitals in Latin subtable" sc.a
EndChar

StartChar: b
Encoding: 98 98 66
Width: 559
Flags: HMW
AnchorPoint: "topright" 456 540 basechar 0
AnchorPoint: "above" 171 728 basechar 0
AnchorPoint: "middle" 269 264 basechar 0
AnchorPoint: "below" 280 0 basechar 0
LayerCount: 2
Fore
SplineSet
60 729 m 1
 143 729 l 1
 143 453 l 1
 182 512 233 539 305 539 c 0
 443 539 529 434 529 264 c 0
 529 90 439 -23 301 -23 c 0
 228 -23 175 6 135 67 c 1
 135 0 l 1
 60 0 l 1
 60 729 l 1
289 461 m 0
 201 461 143 381 143 258 c 0
 143 135 201 55 289 55 c 0
 380 55 442 136 442 255 c 0
 442 380 382 461 289 461 c 0
EndSplineSet
Validated: 3073
Substitution2: "'smcp' Lowercase to Small Capitals in Latin subtable" sc.b
EndChar

StartChar: c
Encoding: 99 99 67
Width: 506
Flags: HMW
AnchorPoint: "topright" 409 540 basechar 0
AnchorPoint: "middle" 259 264 basechar 0
AnchorPoint: "below" 273 0 basechar 0
AnchorPoint: "above" 264 538 basechar 0
LayerCount: 2
Fore
SplineSet
470 348 m 1
 386 348 l 1
 376 421 332 462 262 462 c 0
 171 462 117 384 117 253 c 0
 117 129 172 54 264 54 c 0
 335 54 378 96 392 180 c 1
 476 180 l 1
 466 52 387 -23 262 -23 c 0
 120 -23 30 84 30 253 c 0
 30 427 122 539 263 539 c 0
 383 539 460 473 470 348 c 1
EndSplineSet
Validated: 3073
Substitution2: "'smcp' Lowercase to Small Capitals in Latin subtable" sc.c
EndChar

StartChar: d
Encoding: 100 100 68
Width: 559
Flags: HMW
AnchorPoint: "topright" 559 540 basechar 0
AnchorPoint: "above" 379 728 basechar 0
AnchorPoint: "middle" 264 264 basechar 0
AnchorPoint: "below" 278 0 basechar 0
LayerCount: 2
Fore
SplineSet
499 729 m 1
 499 0 l 1
 425 0 l 1
 425 69 l 1
 380 4 330 -23 258 -23 c 0
 117 -23 30 86 30 263 c 0
 30 430 119 539 255 539 c 0
 325 539 381 511 416 458 c 1
 416 729 l 1
 499 729 l 1
269 461 m 0
 178 461 117 380 117 258 c 0
 117 136 178 55 270 55 c 0
 358 55 416 135 416 256 c 0
 416 381 359 461 269 461 c 0
EndSplineSet
Validated: 3073
Substitution2: "'smcp' Lowercase to Small Capitals in Latin subtable" sc.d
EndChar

StartChar: e
Encoding: 101 101 69
Width: 533
Flags: HMW
AnchorPoint: "topright" 440 540 basechar 0
AnchorPoint: "middle" 267 264 basechar 0
AnchorPoint: "ogonek" 314 0 basechar 0
AnchorPoint: "below" 271 -1 basechar 0
AnchorPoint: "above" 275 538 basechar 0
LayerCount: 2
Fore
SplineSet
503 234 m 1
 117 234 l 1
 119.06 126.87 174.335 54 271 54 c 0
 338 54 385 90 408 159 c 1
 492 159 l 1
 471 45 388 -23 268 -23 c 0
 121 -23 30 83 30 255 c 0
 30 427 124 539 270 539 c 0
 432 539 503 424.089 503 234 c 1
119 302 m 1
 414 302 l 1
 414 391.92 354.528 462 269 462 c 0
 185 462 126 399 119 302 c 1
EndSplineSet
Validated: 3073
Substitution2: "'smcp' Lowercase to Small Capitals in Latin subtable" sc.e
EndChar

StartChar: f
Encoding: 102 102 70
Width: 280
Flags: HMW
AnchorPoint: "topright" 280 540 basechar 0
AnchorPoint: "above" 177 728 basechar 0
AnchorPoint: "middle" 132 333 basechar 0
AnchorPoint: "below" 136 0 basechar 0
LayerCount: 2
Fore
SplineSet
260 524 m 1
 260 456 l 1
 173 456 l 1
 173 0 l 1
 90 0 l 1
 90 456 l 1
 20 456 l 1
 20 524 l 1
 90 524 l 1
 90 613 l 2
 90 688 136 732 213 732 c 0
 230 732 241 731 260 727 c 1
 260 658 l 1
 241 659 238 659 231 659 c 0
 193 659 173 641 173 606 c 2
 173 524 l 1
 260 524 l 1
EndSplineSet
Validated: 3073
Substitution2: "'smcp' Lowercase to Small Capitals in Latin subtable" sc.f
EndChar

StartChar: g
Encoding: 103 103 71
Width: 550
Flags: HMW
AnchorPoint: "topright" 421 540 basechar 0
AnchorPoint: "middle" 261 208 basechar 0
AnchorPoint: "below" 261 -200 basechar 0
AnchorPoint: "above" 251 538 basechar 0
LayerCount: 2
Fore
SplineSet
246 -23 m 0
 127 -23 30 82 30 253 c 0
 30 423 120 539 253 539 c 0
 320 539 371 510 413 448 c 1
 403 524 l 5
 490 524 l 1
 490 86 l 2
 490 -96 455 -218 256 -218 c 0
 133 -218 56 -159 47 -60 c 1
 132 -60 l 1
 146 -145 233 -148 259 -148 c 0
 377 -148 405 -76 405 44 c 2
 405 71 l 1
 358 5 312 -23 246 -23 c 0
262 462 m 0
 173 462 117 384 117 258 c 0
 117 131 172 54 263 54 c 0
 351 54 405 130 405 255 c 0
 405 386 352 462 262 462 c 0
EndSplineSet
Validated: 3073
Substitution2: "'smcp' Lowercase to Small Capitals in Latin subtable" sc.g
EndChar

StartChar: h
Encoding: 104 104 72
Width: 536
Flags: HMW
AnchorPoint: "topright" 400 540 basechar 0
AnchorPoint: "middle" 267 287 basechar 0
AnchorPoint: "below" 264 0 basechar 0
AnchorPoint: "above" 100 716 basechar 0
LayerCount: 2
Fore
SplineSet
393 363 m 2
 393 445 328 466 285 466 c 0
 199 466 143 396 143 289 c 2
 143 0 l 1
 60 0 l 1
 60 729 l 1
 143 729 l 1
 143 452 l 1
 192 516 237 539 311 539 c 0
 413 539 476 484 476 396 c 2
 476 0 l 1
 393 0 l 1
 393 363 l 2
EndSplineSet
Validated: 3073
Substitution2: "'smcp' Lowercase to Small Capitals in Latin subtable" sc.h
EndChar

StartChar: i
Encoding: 105 105 73
Width: 222
Flags: HMW
AnchorPoint: "topright" 210 690 basechar 0
AnchorPoint: "middle" 107 322 basechar 0
AnchorPoint: "ogonek" 111 0 basechar 0
AnchorPoint: "below" 110 0 basechar 0
AnchorPoint: "above" 111 743 basechar 0
LayerCount: 2
Fore
SplineSet
150 524 m 1
 150 0 l 1
 67 0 l 1
 67 524 l 1
 150 524 l 1
150 729 m 1
 150 624 l 1
 66 624 l 1
 66 729 l 1
 150 729 l 1
EndSplineSet
Validated: 3073
Substitution2: "'smcp' Lowercase to Small Capitals in Latin for Turkish subtable" sc.i_dot
Substitution2: "'smcp' Lowercase to Small Capitals in Latin subtable" sc.i
EndChar

StartChar: j
Encoding: 106 106 74
Width: 243
Flags: HMW
AnchorPoint: "topright" 228 690 basechar 0
AnchorPoint: "middle" 125 322 basechar 0
AnchorPoint: "below" 106 -200 basechar 0
AnchorPoint: "above" 128 743 basechar 0
LayerCount: 2
Fore
SplineSet
88 524 m 1
 171 524 l 1
 171 -109 l 2
 171 -180 122 -218 28 -218 c 0
 15 -218 10 -217 0 -215 c 1
 0 -144 l 1
 7.36328 -145.273 16.1875 -146 23 -146 c 0
 71.667 -146 88 -128 88 -76 c 2
 88 524 l 1
171 729 m 1
 171 624 l 1
 88 624 l 1
 88 729 l 1
 171 729 l 1
EndSplineSet
Validated: 3073
Substitution2: "'smcp' Lowercase to Small Capitals in Latin subtable" sc.j
EndChar

StartChar: k
Encoding: 107 107 75
Width: 514
Flags: HMW
AnchorPoint: "topright" 362 540 basechar 0
AnchorPoint: "middle" 220 338 basechar 0
AnchorPoint: "above" 104 716 basechar 0
AnchorPoint: "below" 264 0 basechar 0
LayerCount: 2
Fore
SplineSet
143 729 m 1
 143 302 l 1
 365 524 l 1
 472 524 l 1
 290 343 l 1
 504 0 l 1
 401 0 l 1
 224 284 l 1
 143 204 l 1
 143 0 l 1
 60 0 l 1
 60 729 l 1
 143 729 l 1
EndSplineSet
Validated: 3073
Substitution2: "'smcp' Lowercase to Small Capitals in Latin subtable" sc.k
EndChar

StartChar: l
Encoding: 108 108 76
Width: 214
Flags: HMW
AnchorPoint: "topright" 212 540 basechar 0
AnchorPoint: "middle" 102 338 basechar 0
AnchorPoint: "above" 103 743 basechar 0
AnchorPoint: "below" 100 0 basechar 0
LayerCount: 2
Fore
SplineSet
144 729 m 1
 144 0 l 1
 60 0 l 1
 60 729 l 1
 144 729 l 1
EndSplineSet
Validated: 3073
Substitution2: "'smcp' Lowercase to Small Capitals in Latin subtable" sc.l
EndChar

StartChar: m
Encoding: 109 109 77
Width: 812
Flags: HMW
AnchorPoint: "topright" 690 540 basechar 0
AnchorPoint: "middle" 406 281 basechar 0
AnchorPoint: "above" 406.5 538 basechar 0
AnchorPoint: "below" 402 0 basechar 0
LayerCount: 2
Fore
SplineSet
60 524 m 1
 137 524 l 1
 137 450 l 1
 182 513 228 539 298 539 c 0
 366 539 408 515 439 459 c 1
 488 518 530 539 600 539 c 0
 698 539 752 487 752 393 c 2
 752 0 l 1
 668 0 l 1
 668 361 l 2
 668 427 632 466 571 466 c 0
 503 466 448 405 448 329 c 2
 448 0 l 1
 364 0 l 1
 364 361 l 2
 364 428 329 466 267 466 c 0
 199 466 144 405 144 329 c 2
 144 0 l 1
 60 0 l 1
 60 524 l 1
EndSplineSet
Validated: 3073
Substitution2: "'smcp' Lowercase to Small Capitals in Latin subtable" sc.m
EndChar

StartChar: n
Encoding: 110 110 78
Width: 537
Flags: HMW
AnchorPoint: "topright" 410 540 basechar 0
AnchorPoint: "middle" 270 281 basechar 0
AnchorPoint: "below" 264 0 basechar 0
AnchorPoint: "above" 268 538 basechar 0
LayerCount: 2
Fore
SplineSet
60 524 m 1
 137 524 l 1
 137 436 l 1
 183 509 233 539 311 539 c 0
 412 539 477 483 477 396 c 2
 477 0 l 1
 394 0 l 1
 394 363 l 2
 394 426 352 466 286 466 c 0
 200 466 144 396 144 289 c 2
 144 0 l 1
 60 0 l 1
 60 524 l 1
EndSplineSet
Validated: 3073
Substitution2: "'smcp' Lowercase to Small Capitals in Latin subtable" sc.n
EndChar

StartChar: o
Encoding: 111 111 79
Width: 534
Flags: HMW
AnchorPoint: "topright" 414 540 basechar 0
AnchorPoint: "middle" 267 257 basechar 0
AnchorPoint: "ogonek" 304 0 basechar 0
AnchorPoint: "below" 267 0 basechar 0
AnchorPoint: "above" 266 538 basechar 0
LayerCount: 2
Fore
SplineSet
266 539 m 0
 417 539 504 435 504 254 c 0
 504 82 414 -23 267 -23 c 0
 118 -23 30 82 30 258 c 0
 30 434 119 539 266 539 c 0
267 462 m 0
 174 462 117 384 117 258 c 0
 117 131 174 54 267 54 c 0
 359 54 417 132 417 255 c 0
 417 385 361 462 267 462 c 0
EndSplineSet
Validated: 3073
Substitution2: "'smcp' Lowercase to Small Capitals in Latin subtable" sc.o
EndChar

StartChar: p
Encoding: 112 112 80
Width: 559
Flags: HMW
AnchorPoint: "topright" 436 540 basechar 0
AnchorPoint: "middle" 279 251 basechar 0
AnchorPoint: "below" 278 -200 basechar 0
AnchorPoint: "above" 278 538 basechar 0
LayerCount: 2
Fore
SplineSet
60 -218 m 1
 60 524 l 1
 137 524 l 1
 137 445 l 1
 176 507 233 539 304 539 c 0
 443 539 529 429 529 253 c 0
 529 86 440 -23 305 -23 c 0
 237 -23 188 1 144 55 c 1
 144 -218 l 1
 60 -218 l 1
290 461 m 0
 202 461 144 381 144 258 c 0
 144 135 202 55 290 55 c 0
 381 55 442 136 442 255 c 0
 442 380 382 461 290 461 c 0
EndSplineSet
Validated: 3073
Substitution2: "'smcp' Lowercase to Small Capitals in Latin subtable" sc.p
EndChar

StartChar: q
Encoding: 113 113 81
Width: 559
Flags: HMW
AnchorPoint: "topright" 434 540 basechar 0
AnchorPoint: "middle" 267 256 basechar 0
AnchorPoint: "below" 276 -200 basechar 0
AnchorPoint: "above" 276 538 basechar 0
LayerCount: 2
Fore
SplineSet
499 -218 m 1
 416 -218 l 1
 416 60 l 1
 377 3 327 -23 254 -23 c 0
 116 -23 30 82 30 252 c 0
 30 426 120 539 258 539 c 0
 327 539 386 509 425 454 c 1
 425 524 l 1
 499 524 l 1
 499 -218 l 1
270 461 m 0
 178 461 117 379 117 258 c 0
 117 136 178 55 270 55 c 0
 358 55 416 135 416 255 c 0
 416 381 359 461 270 461 c 0
EndSplineSet
Validated: 3073
Substitution2: "'smcp' Lowercase to Small Capitals in Latin subtable" sc.q
EndChar

StartChar: r
Encoding: 114 114 82
Width: 332
Flags: HMW
AnchorPoint: "topright" 251 540 basechar 0
AnchorPoint: "middle" 176 257 basechar 0
AnchorPoint: "below" 101 0 basechar 0
AnchorPoint: "above" 182 538 basechar 0
LayerCount: 2
Fore
SplineSet
312 451 m 1
 211 449 144 419 144 272 c 2
 144 0 l 1
 60 0 l 1
 60 524 l 1
 137 524 l 1
 137 429 l 1
 185 507 226 539 280 539 c 0
 291 539 298 538 312 536 c 1
 312 451 l 1
EndSplineSet
Validated: 3073
Substitution2: "'smcp' Lowercase to Small Capitals in Latin subtable" sc.r
EndChar

StartChar: s
Encoding: 115 115 83
Width: 493
Flags: HMW
AnchorPoint: "topright" 360 540 basechar 0
AnchorPoint: "middle" 242 257 basechar 0
AnchorPoint: "below" 242 0 basechar 0
AnchorPoint: "above" 246 538 basechar 0
LayerCount: 2
Fore
SplineSet
122 156 m 1
 129 105 148 54 250 54 c 0
 323 54 372 87 372 136 c 0
 372 174 349 195 291 209 c 2
 213 228 l 2
 89 258 47 297 47 379 c 0
 47 476 126 539 248 539 c 0
 369 539 437 481 438 378 c 1
 350 378 l 1
 348 433 312 462 245 462 c 0
 177 462 134 431 134 383 c 0
 134 346 163 324 231 308 c 2
 311 289 l 2
 415 264 459 221 459 143 c 0
 459 42 375 -23 243 -23 c 0
 106 -23 38 35 34 156 c 1
 122 156 l 1
EndSplineSet
Validated: 3073
Substitution2: "'smcp' Lowercase to Small Capitals in Latin subtable" sc.s
EndChar

StartChar: t
Encoding: 116 116 84
Width: 280
Flags: HMW
AnchorPoint: "topright" 276 540 basechar 0
AnchorPoint: "above" 134 668 basechar 0
AnchorPoint: "middle" 135 304 basechar 0
AnchorPoint: "below" 162 0 basechar 0
LayerCount: 2
Fore
SplineSet
260 524 m 1
 260 456 l 1
 174 456 l 1
 174 97 l 2
 174 60 184 50 220 50 c 0
 236 50 249 51 260 54 c 1
 260 -16 l 1
 232 -21 212 -23 192 -23 c 0
 127 -23 91 7 91 60 c 2
 91 456 l 1
 20 456 l 1
 20 524 l 1
 91 524 l 1
 91 668 l 1
 174 668 l 1
 174 524 l 1
 260 524 l 1
EndSplineSet
Validated: 3073
Substitution2: "'smcp' Lowercase to Small Capitals in Latin subtable" sc.t
EndChar

StartChar: u
Encoding: 117 117 85
Width: 537
Flags: HMW
AnchorPoint: "topright" 405 540 basechar 0
AnchorPoint: "middle" 253 257 basechar 0
AnchorPoint: "below" 242 0 basechar 0
AnchorPoint: "ogonek" 442 0 basechar 0
AnchorPoint: "above" 268 538 basechar 0
LayerCount: 2
Fore
SplineSet
477 0 m 1
 402 0 l 1
 402 73 l 1
 353 4 304 -23 227 -23 c 0
 125 -23 60 33 60 120 c 2
 60 524 l 1
 143 524 l 1
 143 153 l 2
 143 90 185 50 251 50 c 0
 338 50 394 120 394 227 c 2
 394 524 l 1
 477 524 l 1
 477 0 l 1
EndSplineSet
Validated: 3073
Substitution2: "'smcp' Lowercase to Small Capitals in Latin subtable" sc.u
EndChar

StartChar: v
Encoding: 118 118 86
Width: 496
Flags: HMW
AnchorPoint: "topright" 400 540 basechar 0
AnchorPoint: "above" 251 538 basechar 0
AnchorPoint: "middle" 246 304 basechar 0
AnchorPoint: "below" 241 0 basechar 0
LayerCount: 2
Fore
SplineSet
285 0 m 1
 194 0 l 1
 10 524 l 1
 104 524 l 1
 244 99 l 1
 392 524 l 1
 486 524 l 1
 285 0 l 1
EndSplineSet
Validated: 3073
Substitution2: "'smcp' Lowercase to Small Capitals in Latin subtable" sc.v
EndChar

StartChar: w
Encoding: 119 119 87
Width: 722
Flags: HMW
AnchorPoint: "topright" 624 540 basechar 0
AnchorPoint: "middle" 358 257 basechar 0
AnchorPoint: "below" 357 0 basechar 0
AnchorPoint: "above" 360 538 basechar 0
LayerCount: 2
Fore
SplineSet
558 0 m 1
 463 0 l 1
 357 411 l 1
 256 0 l 1
 162 0 l 1
 10 524 l 1
 102 524 l 1
 209 116 l 1
 309 524 l 1
 411 524 l 1
 514 116 l 1
 618 524 l 1
 712 524 l 1
 558 0 l 1
EndSplineSet
Validated: 3073
Substitution2: "'smcp' Lowercase to Small Capitals in Latin subtable" sc.w
EndChar

StartChar: x
Encoding: 120 120 88
Width: 476
Flags: HMW
AnchorPoint: "topright" 373 540 basechar 0
AnchorPoint: "above" 248 538 basechar 0
AnchorPoint: "middle" 239 270 basechar 0
AnchorPoint: "below" 237 0 basechar 0
LayerCount: 2
Fore
SplineSet
285 271 m 1
 466 0 l 1
 369 0 l 1
 238 201 l 1
 105 0 l 1
 10 0 l 1
 195 267 l 1
 20 524 l 1
 115 524 l 1
 241 334 l 1
 367 524 l 1
 461 524 l 1
 285 271 l 1
EndSplineSet
Validated: 3073
Substitution2: "'smcp' Lowercase to Small Capitals in Latin subtable" sc.x
EndChar

StartChar: y
Encoding: 121 121 89
Width: 478
Flags: HMW
AnchorPoint: "topright" 390 540 basechar 0
AnchorPoint: "below" 351 0 basechar 0
AnchorPoint: "middle" 239 229 basechar 0
AnchorPoint: "ogonek" 366 -2 basechar 0
AnchorPoint: "above" 238 538 basechar 0
LayerCount: 2
Fore
SplineSet
378 524 m 1
 468 524 l 1
 235 -110 l 2
 206 -187 157 -218 100 -218 c 0
 78 -218 61 -214 44 -205 c 1
 44 -130 l 1
 62 -134 76 -136 88 -136 c 0
 123 -136 141 -122 155 -85 c 2
 187 -2 l 1
 10 524 l 1
 99 524 l 1
 233 116 l 1
 378 524 l 1
EndSplineSet
Validated: 3073
Substitution2: "'smcp' Lowercase to Small Capitals in Latin subtable" sc.y
EndChar

StartChar: z
Encoding: 122 122 90
Width: 486
Flags: HMW
AnchorPoint: "topright" 379 540 basechar 0
AnchorPoint: "middle" 237 257 basechar 0
AnchorPoint: "below" 238 0 basechar 0
AnchorPoint: "above" 249 538 basechar 0
LayerCount: 2
Fore
SplineSet
442 524 m 1
 442 450 l 1
 131 73 l 1
 456 73 l 1
 456 0 l 1
 30 0 l 1
 30 75 l 1
 343 451 l 1
 51 451 l 1
 51 524 l 1
 442 524 l 1
EndSplineSet
Validated: 3073
Substitution2: "'smcp' Lowercase to Small Capitals in Latin subtable" sc.z
EndChar

StartChar: braceleft
Encoding: 123 123 91
Width: 333
Flags: HMW
LayerCount: 2
Fore
SplineSet
276 729 m 1
 276 664 l 1
 261 664 l 2
 212 664 198 649 198 597 c 2
 198 416 l 2
 198 324 177 283 116 259 c 1
 172 233 198 184 198 101 c 2
 198 -80 l 2
 198 -132 212 -147 261 -147 c 2
 276 -147 l 1
 276 -212 l 1
 230 -212 l 2
 161 -212 121 -164 121 -81 c 2
 121 86 l 2
 121 178 102 212 43 224 c 1
 43 293 l 1
 102 305 121 338 121 431 c 2
 121 598 l 2
 121 681 161 729 230 729 c 2
 276 729 l 1
EndSplineSet
Validated: 3073
EndChar

StartChar: bar
Encoding: 124 124 92
Width: 250
Flags: HMW
LayerCount: 2
Fore
SplineSet
95 729 m 1
 155 729 l 1
 155 -212 l 1
 95 -212 l 1
 95 729 l 1
EndSplineSet
Validated: 3073
EndChar

StartChar: braceright
Encoding: 125 125 93
Width: 333
Flags: HMW
LayerCount: 2
Fore
SplineSet
57 -212 m 1
 57 -147 l 1
 73 -147 l 2
 123 -147 137 -132 137 -80 c 2
 137 101 l 2
 137 184 163 233 219 258 c 1
 163 284 137 334 137 416 c 2
 137 597 l 2
 137 649 123 664 73 664 c 2
 57 664 l 1
 57 729 l 1
 104 729 l 2
 174 729 214 681 214 598 c 2
 214 431 l 2
 214 339 233 305 290 293 c 1
 290 224 l 1
 233 212 214 178 214 86 c 2
 214 -81 l 2
 214 -164 174 -212 104 -212 c 2
 57 -212 l 1
EndSplineSet
Validated: 3073
EndChar

StartChar: asciitilde
Encoding: 126 126 94
Width: 500
Flags: HMW
LayerCount: 2
Fore
SplineSet
139 371 m 0
 96 371 88 320 86 293 c 1
 33 293 l 1
 38 387 76 438 141 438 c 0
 159 438 178 432 195 422 c 2
 312 353 l 2
 332 341 348 336 362 336 c 0
 405.144 336 413 364.924 413 411 c 1
 466 411 l 1
 466 307.1 424 268 361 268 c 0
 336 268 306 278 280 294 c 2
 182 357 l 2
 172 363 149 371 139 371 c 0
EndSplineSet
Validated: 3073
EndChar

StartChar: cent
Encoding: 162 162 97
Width: 556
Flags: MW
LayerCount: 2
Fore
SplineSet
312 462 m 1
 312 53 l 1
 376 60 414 101 426 180 c 1
 510 180 l 1
 503 60 428 -17 312 -23 c 1
 312 -120 l 1
 270 -120 l 1
 270 -22 l 1
 135 -10 52 94 52 253 c 0
 52 416 135 524 270 538 c 1
 270 628 l 1
 312 628 l 1
 312 539 l 1
 429 531 498 462 504 348 c 1
 420 348 l 1
 413 415 373 457 312 462 c 1
270 55 m 1
 270 461 l 1
 184 445 139 374 139 253 c 0
 139 140 187 68 270 55 c 1
EndSplineSet
Validated: 3073
EndChar

StartChar: sterling
Encoding: 163 163 98
Width: 556
Flags: MW
LayerCount: 2
Fore
SplineSet
147 523 m 0
 147 461 180 429 206 376 c 1
 366 376 l 1
 366 321 l 1
 230 321 l 1
 240 292 245 269 245 250 c 0
 245 198 217 152 127 61 c 1
 166 87 206 100 249 100 c 0
 313 100 358 69 410 69 c 0
 436 69 464 79 493 99 c 1
 535 33 l 1
 495 -6 456 -23 404 -23 c 0
 320 -23 265 23 192 23 c 0
 157 23 121 11 83 -14 c 1
 35 52 l 1
 127 131 160 182 160 243 c 0
 160 268 151 296 136 321 c 1
 26 321 l 1
 26 376 l 1
 107 376 l 1
 61 452 54 471 54 515 c 0
 54 636 158 729 292 729 c 0
 377 729 509 697 512 497 c 1
 424 497 l 1
 421 600 375 651 288 651 c 0
 203 651 147 600 147 523 c 0
EndSplineSet
Validated: 3073
EndChar

StartChar: currency
Encoding: 164 164 99
Width: 556
Flags: MW
LayerCount: 2
Fore
SplineSet
485 190 m 1
 427 136 l 1
 374 189 l 1
 347 169 313 159 274 159 c 0
 241 159 206 168 180 184 c 1
 129 133 l 1
 73 190 l 1
 121 239 l 1
 101 266 89 305 89 341 c 0
 89 377 101 415 121 443 c 1
 67 498 l 1
 123 551 l 1
 178 496 l 1
 207 513 239 522 275 522 c 0
 312 522 347 512 373 494 c 1
 432 547 l 1
 489 489 l 1
 434 434 l 1
 450 409 460 373 460 341 c 0
 460 307 450 275 431 244 c 1
 485 190 l 1
274 445 m 0
 216 445 168 398 168 340 c 0
 168 283 216 236 275 236 c 0
 332 236 381 283 381 339 c 0
 381 398 334 445 274 445 c 0
EndSplineSet
Validated: 3073
EndChar

StartChar: yen
Encoding: 165 165 100
Width: 556
Flags: MW
LayerCount: 2
Fore
SplineSet
495 354 m 1
 495 303 l 1
 325 303 l 1
 325 226 l 1
 495 226 l 1
 495 175 l 1
 325 175 l 1
 325 0 l 1
 237 0 l 1
 237 175 l 1
 65 175 l 1
 65 226 l 1
 237 226 l 1
 237 303 l 1
 65 303 l 1
 65 354 l 1
 216 354 l 1
 11 709 l 1
 96 709 l 1
 281 387 l 1
 460 709 l 1
 545 709 l 1
 344 354 l 1
 495 354 l 1
EndSplineSet
Validated: 3073
EndChar

StartChar: brokenbar
Encoding: 166 166 101
Width: 260
Flags: MW
LayerCount: 2
Fore
SplineSet
100 729 m 1
 160 729 l 1
 160 328 l 1
 100 328 l 1
 100 729 l 1
100 189 m 1
 160 189 l 1
 160 -212 l 1
 100 -212 l 1
 100 189 l 1
EndSplineSet
Validated: 3073
EndChar

StartChar: section
Encoding: 167 167 102
Width: 556
Flags: MW
LayerCount: 2
Fore
SplineSet
162 -14 m 1
 162 -118 223 -136 264 -136 c 0
 321 -136 360 -101 360 -50 c 0
 360 -15 344 11 305 38 c 2
 135 155 l 2
 70 200 43 247 43 312 c 0
 43 378 74 423 148 462 c 1
 117 498 104 526 104 564 c 0
 104 656 185 729 289 729 c 0
 393 729 464 658 464 552 c 1
 464 524 l 1
 380 524 l 1
 380 550 l 1
 380 612 342 652 283 652 c 0
 232 652 194 616 194 567 c 0
 194 538 209 518 251 490 c 2
 397 396 l 2
 478 344 506 301 506 229 c 0
 506 153 469 100 397 73 c 1
 437 28 450 -2 450 -45 c 0
 450 -141 370 -213 263 -213 c 0
 191 -213 77 -183 77 -14 c 1
 162 -14 l 1
188 229 m 2
 354 106 l 1
 401 131 427 168 427 208 c 0
 427 249 403 286 354 320 c 2
 193 429 l 1
 141 395 122 368 122 328 c 0
 122 288 135 268 188 229 c 2
EndSplineSet
Validated: 3073
EndChar

StartChar: ordfeminine
Encoding: 170 170 105
Width: 370
Flags: MW
LayerCount: 2
Fore
SplineSet
320 354 m 1
 320 303 l 1
 43 303 l 1
 43 354 l 1
 320 354 l 1
333 449 m 1
 333 405 l 1
 320 400 313 399 301 399 c 0
 268 399 252 411 246 442 c 1
 213 413 180 399 141 399 c 0
 77 399 37 436 37 495 c 0
 37 558 71 591 194 600 c 0
 232 603 243 611 243 633 c 2
 243 646 l 2
 243 674 219 690 176 690 c 0
 131 690 115 677 108 634 c 1
 49 634 l 1
 51 705 96 742 178 742 c 0
 259 742 300 711 300 648 c 2
 300 469 l 2
 300 454 308 446 323 446 c 0
 326 446 329 447 333 449 c 1
243 568 m 1
 187 544 95 564 95 498 c 0
 95 468 116 451 152 451 c 0
 201 451 243 482 243 517 c 2
 243 568 l 1
EndSplineSet
Validated: 3073
EndChar

StartChar: guillemotleft
Encoding: 171 171 106
Width: 500
Flags: HMW
LayerCount: 2
Fore
SplineSet
71 227 m 1
 71 316 l 1
 223 438 l 1
 223 355 l 1
 117 272 l 1
 223 189 l 1
 223 106 l 1
 71 227 l 1
276 227 m 1
 276 316 l 1
 428 438 l 1
 428 355 l 1
 322 272 l 1
 428 189 l 1
 428 106 l 1
 276 227 l 1
EndSplineSet
Validated: 3073
EndChar

StartChar: logicalnot
Encoding: 172 172 107
Width: 584
Flags: MW
LayerCount: 2
Fore
SplineSet
40 375 m 1
 544 375 l 1
 544 86 l 1
 474 86 l 1
 474 305 l 1
 40 305 l 1
 40 375 l 1
EndSplineSet
Validated: 3073
EndChar

StartChar: macron
Encoding: 175 175 110
Width: 333
Flags: MW
LayerCount: 2
Fore
SplineSet
302 701 m 1
 302 631 l 1
 28 631 l 1
 28 701 l 1
 302 701 l 1
EndSplineSet
Validated: 3073
EndChar

StartChar: degree
Encoding: 176 176 111
Width: 606
Flags: MW
LayerCount: 2
Fore
SplineSet
303 686 m 0
 386 686 454 618 454 535 c 0
 454 450 386 383 301 383 c 0
 219 383 151 452 151 535 c 0
 151 618 219 686 303 686 c 0
303 629 m 0
 251 629 208 586 208 535 c 0
 208 483 251 440 301 440 c 0
 355 440 397 482 397 535 c 0
 397 587 355 629 303 629 c 0
EndSplineSet
Validated: 3073
EndChar

StartChar: twosuperior
Encoding: 178 178 113
Width: 350
Flags: HMW
LayerCount: 2
Fore
SplineSet
178 762 m 0
 104 762 94 706 91 663 c 1
 29 663 l 1
 32 766 81 815 180 815 c 0
 266 815 326 763 326 689 c 0
 326 636 293 591 230 560 c 2
 167 528 l 2
 124 505 106 486 94 448 c 1
 323 448 l 1
 323 390 l 1
 19 390 l 1
 24 487 50 526 146 577 c 2
 204 608 l 2
 243 629 263 656 263 687 c 0
 263 730 226 762 178 762 c 0
EndSplineSet
Validated: 3073
EndChar

StartChar: threesuperior
Encoding: 179 179 114
Width: 350
Flags: HMW
LayerCount: 2
Fore
SplineSet
169 764 m 0
 103 764 88 728 88 675 c 1
 25 675 l 1
 27 769 76 817 169 817 c 0
 255 817 308 771 308 697 c 0
 308 658 288 629 251 612 c 1
 299 596 322 563 322 512 c 0
 322 431 261 378 167 378 c 0
 71 378 16 430 16 520 c 1
 78 520 l 1
 81 458 109 431 169 431 c 0
 225 431 259 461 259 512 c 0
 259 548 236 576 201 582 c 0
 186 584 170 584 135 584 c 1
 135 635 l 1
 221 635 245 649 245 696 c 0
 245 738 216 764 169 764 c 0
EndSplineSet
Validated: 3073
EndChar

StartChar: acute
Encoding: 180 180 115
Width: 333
Flags: MW
LayerCount: 2
Fore
SplineSet
188 740 m 1
 301 740 l 1
 152 592 l 1
 92 592 l 1
 188 740 l 1
EndSplineSet
Validated: 3073
EndChar

StartChar: micro
Encoding: 181 181 116
Width: 556
Flags: MW
LayerCount: 2
Fore
SplineSet
544 49 m 1
 544 -14 l 1
 518 -21 505 -23 487 -23 c 0
 430 -23 403 3 401 60 c 1
 362 5 306 -23 238 -23 c 0
 202 -23 173 -15 148 3 c 1
 148 -220 l 1
 65 -220 l 1
 65 524 l 1
 148 524 l 1
 148 153 l 2
 148 90 190 50 255 50 c 0
 342 50 398 120 398 227 c 2
 398 524 l 1
 481 524 l 1
 481 88 l 2
 481 61 497 47 526 47 c 0
 530 47 534 47 544 49 c 1
EndSplineSet
Validated: 3073
EndChar

StartChar: paragraph
Encoding: 182 182 117
Width: 537
Flags: MW
LayerCount: 2
Fore
SplineSet
255 259 m 1
 120 266 48 370 48 489 c 0
 48 624 146 729 272 729 c 2
 522 729 l 1
 522 665 l 1
 465 665 l 1
 465 -177 l 1
 401 -177 l 1
 401 665 l 1
 319 665 l 1
 319 -177 l 1
 255 -177 l 1
 255 259 l 1
EndSplineSet
Validated: 3073
EndChar

StartChar: cedilla
Encoding: 184 184 119
Width: 333
Flags: MW
LayerCount: 2
Fore
SplineSet
60 -140 m 1
 99 -157 121 -173 158 -173 c 0
 189 -173 212 -154 212 -128 c 0
 212 -105 195 -91 166 -91 c 0
 154 -91 147 -93 135 -99 c 1
 123 -92 l 1
 165 0 l 1
 203 0 l 1
 180 -56 l 1
 193 -54 200 -54 208 -54 c 0
 258 -54 287 -78 287 -121 c 0
 287 -178 240 -214 164 -214 c 0
 125 -214 101 -207 39 -180 c 1
 60 -140 l 1
EndSplineSet
Validated: 3073
EndChar

StartChar: onesuperior
Encoding: 185 185 120
Width: 350
Flags: HMW
LayerCount: 2
Fore
SplineSet
168 686 m 1
 69 686 l 1
 69 732 l 1
 84 733 l 2
 156 740 170 751 187 815 c 1
 230 815 l 1
 230 390 l 1
 168 390 l 1
 168 686 l 1
EndSplineSet
Validated: 3073
EndChar

StartChar: ordmasculine
Encoding: 186 186 121
Width: 365
Flags: MW
LayerCount: 2
Fore
SplineSet
314 354 m 1
 314 303 l 1
 51 303 l 1
 51 354 l 1
 314 354 l 1
182 742 m 0
 273 742 324 680 324 568 c 0
 324 462 271 399 182 399 c 0
 92 399 40 462 40 571 c 0
 40 679 92 742 182 742 c 0
182 690 m 0
 130 690 98 645 98 571 c 0
 98 496 130 451 182 451 c 0
 234 451 266 496 266 569 c 0
 266 645 235 690 182 690 c 0
EndSplineSet
Validated: 3073
EndChar

StartChar: onequarter
Encoding: 188 188 123
Width: 869
Flags: HMW
LayerCount: 2
Fore
SplineSet
160 597 m 1
 61 597 l 1
 61 643 l 1
 76 644 l 2
 148 651 162 662 179 726 c 1
 222 726 l 1
 222 301 l 1
 160 301 l 1
 160 597 l 1
643 709 m 1
 701 709 l 1
 249 -20 l 1
 191 -20 l 1
 643 709 l 1
720 100 m 1
 532 100 l 1
 532 159 l 1
 736 425 l 1
 782 425 l 1
 782 153 l 1
 849 153 l 1
 849 100 l 1
 782 100 l 1
 782 0 l 1
 720 0 l 1
 720 100 l 1
720 153 m 1
 720 323 l 1
 591 153 l 1
 720 153 l 1
EndSplineSet
Validated: 3073
EndChar

StartChar: onehalf
Encoding: 189 189 124
Width: 869
Flags: HMW
LayerCount: 2
Fore
SplineSet
160 600 m 1
 61 600 l 1
 61 646 l 1
 76 647 l 2
 148 654 162 665 179 729 c 1
 222 729 l 1
 222 304 l 1
 160 304 l 1
 160 600 l 1
619 709 m 1
 677 709 l 1
 225 -20 l 1
 167 -20 l 1
 619 709 l 1
696 372 m 0
 622 372 612 316 609 273 c 1
 547 273 l 1
 550 376 599 425 698 425 c 0
 784 425 844 373 844 299 c 0
 844 246 811 201 748 170 c 2
 685 138 l 2
 642 115 624 96 612 58 c 1
 841 58 l 1
 841 0 l 1
 537 0 l 1
 542 97 568 136 664 187 c 2
 722 218 l 2
 761 239 781 266 781 297 c 0
 781 340 744 372 696 372 c 0
EndSplineSet
Validated: 3073
EndChar

StartChar: threequarters
Encoding: 190 190 125
Width: 879
Flags: HMW
LayerCount: 2
Fore
SplineSet
179 681 m 0
 113 681 98 645 98 592 c 1
 35 592 l 1
 37 686 86 734 179 734 c 0
 265 734 318 688 318 614 c 0
 318 575 298 546 261 529 c 1
 309 513 332 480 332 429 c 0
 332 348 271 295 177 295 c 0
 81 295 26 347 26 437 c 1
 88 437 l 1
 91 375 119 348 179 348 c 0
 235 348 269 378 269 429 c 0
 269 465 246 493 211 499 c 0
 196 501 180 501 145 501 c 1
 145 552 l 1
 231 552 255 566 255 613 c 0
 255 655 226 681 179 681 c 0
640 709 m 1
 698 709 l 1
 246 -20 l 1
 188 -20 l 1
 640 709 l 1
707 100 m 1
 519 100 l 1
 519 159 l 1
 723 425 l 1
 769 425 l 1
 769 153 l 1
 836 153 l 1
 836 100 l 1
 769 100 l 1
 769 0 l 1
 707 0 l 1
 707 100 l 1
707 153 m 1
 707 323 l 1
 578 153 l 1
 707 153 l 1
EndSplineSet
Validated: 3073
EndChar

StartChar: AE
Encoding: 198 198 133
Width: 984
Flags: HMW
AnchorPoint: "below" 622 0 basechar 0
AnchorPoint: "above" 622 737 basechar 0
LayerCount: 2
Fore
SplineSet
472 214 m 1
 203 214 l 1
 118 0 l 1
 15 0 l 1
 314 729 l 1
 936 729 l 1
 936 647 l 1
 565 647 l 1
 565 414 l 1
 917 414 l 1
 917 332 l 1
 565 332 l 1
 565 82 l 1
 954 82 l 1
 954 0 l 1
 472 0 l 1
 472 214 l 1
472 296 m 1
 472 647 l 1
 372 647 l 1
 234 296 l 1
 472 296 l 1
EndSplineSet
Validated: 3073
Substitution2: "'c2sc' Capitals to Small Capitals in Latin subtable" sc.ae
EndChar

StartChar: Ccedilla
Encoding: 199 199 134
Width: 709
Flags: HMW
LayerCount: 2
Fore
SplineSet
370 58 m 0
 492 58 550 125 573 266 c 1
 669 266 l 1
 647 75 547 -23 371 -23 c 1
 358 -56 l 1
 371 -54 378 -54 386 -54 c 0
 436 -54 465 -78 465 -121 c 0
 465 -178 418 -214 342 -214 c 0
 304 -214 278 -207 217 -180 c 1
 238 -140 l 1
 270 -154 297 -173 336 -173 c 0
 367 -173 390 -154 390 -128 c 0
 390 -105 373 -91 344 -91 c 0
 332 -91 325 -93 313 -99 c 1
 302 -92 l 1
 333 -23 l 1
 257 -12 227 -1 184 29 c 0
 93 94 40 214 40 356 c 0
 40 508 107 741 373 741 c 0
 533 741 625 663 654 503 c 1
 559 503 l 1
 539 602 484 659 363 659 c 0
 221 659 133 544 133 357 c 0
 133 174 225 58 370 58 c 0
EndSplineSet
Validated: 3073
EndChar

StartChar: Eth
Encoding: 208 208 143
Width: 707
Flags: MW
LayerCount: 2
Fore
SplineSet
89 339 m 1
 20 339 l 1
 20 406 l 1
 89 406 l 1
 89 729 l 1
 371 729 l 2
 555 729 667 591 667 365 c 0
 667 138 555 0 371 0 c 2
 89 0 l 1
 89 339 l 1
182 339 m 1
 182 82 l 1
 355 82 l 2
 498 82 574 179 574 365 c 0
 574 550 498 647 355 647 c 2
 182 647 l 1
 182 406 l 1
 353 406 l 1
 353 339 l 1
 182 339 l 1
EndSplineSet
Validated: 3073
Substitution2: "'c2sc' Capitals to Small Capitals in Latin subtable" sc.eth
EndChar

StartChar: multiply
Encoding: 215 215 150
Width: 584
Flags: MW
LayerCount: 2
Fore
SplineSet
438 427 m 1
 487 377 l 1
 341 231 l 1
 488 84 l 1
 438 34 l 1
 291 181 l 1
 145 35 l 1
 95 84 l 1
 242 231 l 1
 96 377 l 1
 145 426 l 1
 291 281 l 1
 438 427 l 1
EndSplineSet
Validated: 3073
EndChar

StartChar: Oslash
Encoding: 216 216 151
Width: 789
Flags: HMW
AnchorPoint: "above" 395 729 basechar 0
LayerCount: 2
Fore
SplineSet
35 19 m 1
 116 108 l 1
 66 178 40 263 40 360 c 0
 40 587 182 741 392 741 c 0
 483 741 560 714 622 660 c 1
 709 755 l 1
 749 719 l 1
 660 622 l 1
 714 554 744 460 744 358 c 0
 744 131 602 -23 392 -23 c 0
 295 -23 217 6 151 67 c 1
 74 -17 l 1
 35 19 l 1
179 176 m 1
 563 595 l 1
 515 637 457 659 392 659 c 0
 237 659 133 539 133 360 c 0
 133 291 149 228 179 176 c 1
598 554 m 1
 211 133 l 1
 260 84 321 59 392 59 c 0
 547 59 651 179 651 358 c 0
 651 433 633 500 598 554 c 1
EndSplineSet
Validated: 3073
Substitution2: "'c2sc' Capitals to Small Capitals in Latin subtable" sc.oslash
EndChar

StartChar: Thorn
Encoding: 222 222 157
Width: 645
Flags: HMW
LayerCount: 2
Fore
SplineSet
173 189 m 1
 173 0 l 1
 80 0 l 1
 80 729 l 1
 173 729 l 1
 173 609 l 1
 381 609 l 2
 520 609 605 529 605 397 c 0
 605 275 521 189 402 189 c 2
 173 189 l 1
173 271 m 1
 367 271 l 2
 454 271 505 319 505 399 c 0
 505 479 454 527 367 527 c 2
 173 527 l 1
 173 271 l 1
EndSplineSet
Validated: 3073
Substitution2: "'c2sc' Capitals to Small Capitals in Latin subtable" sc.thorn
EndChar

StartChar: ssharp
Encoding: 223 223 158
Width: 594
Flags: HMW
AnchorPoint: "below" 297 0 basechar 0
AnchorPoint: "above" 310 729 basechar 0
LayerCount: 2
Fore
SplineSet
277 427 m 1
 397 427 432 481 432 540 c 0
 432 605 380 652 300 652 c 0
 202 652 168 595 168 510 c 2
 168 0 l 1
 80 0 l 1
 80 532 l 2
 80 647 160 728 301 728 c 0
 438 728 520 657 520 548 c 0
 520 451 461 415 438 400 c 1
 512 380 554 294 554 234 c 0
 554 57 448 -24 322 -24 c 0
 293 -24 261 -12.667 249 -8 c 1
 249 67 l 1
 264 61.667 299 56 313 56 c 0
 400 56 463 113 463 214 c 0
 463 326.898 390 354 277 354 c 1
 277 427 l 1
EndSplineSet
Validated: 3073
Substitution2: "'smcp' Lowercase to Small Capitals in Latin subtable" sc.ssharp
EndChar

StartChar: ae
Encoding: 230 230 165
Width: 871
Flags: HMW
AnchorPoint: "below" 432 0 basechar 0
AnchorPoint: "above" 432 538 basechar 0
LayerCount: 2
Fore
SplineSet
455 234 m 1
 458 88 547 54 609 54 c 0
 676 54 723 90 747 159 c 1
 831 159 l 1
 810 45 726 -23 608 -23 c 0
 463.071 -23 420 76.7148 414 87 c 1
 339 9 276 -23 198 -23 c 0
 96 -23 30 38 30 132 c 0
 30 263 137 290 290 303 c 0
 358 309 377 323 377 362 c 2
 377 384 l 2
 377 435 336 462 259 462 c 0
 182 462 144 433 137 369 c 1
 53 369 l 1
 58 511 170 539 261 539 c 0
 346 539 405 511 436 457 c 1
 472 508 537 539 609 539 c 0
 706 539 786 486 820 401 c 0
 835 362 841 314 841 234 c 1
 455 234 l 1
217 50 m 0
 324 50 377 135 377 157 c 2
 377 258 l 1
 278 215 117 249 117 134 c 0
 117 82 155 50 217 50 c 0
457 302 m 1
 751 302 l 1
 751 397 692 462 607 462 c 0
 523 462 464 399 457 302 c 1
EndSplineSet
Validated: 3073
Substitution2: "'smcp' Lowercase to Small Capitals in Latin subtable" sc.ae
EndChar

StartChar: ccedilla
Encoding: 231 231 166
Width: 506
Flags: HMW
LayerCount: 2
Fore
SplineSet
224 -21 m 1
 36 14 30 204 30 253 c 0
 30 427 122 539 263 539 c 0
 383 539 460 473 470 348 c 1
 386 348 l 1
 376 421 332 462 262 462 c 0
 171 462 117 384 117 252 c 0
 117 128 172 53 264 53 c 0
 335 53 378 96 392 180 c 1
 476 180 l 1
 469 55 386 -23 263 -23 c 1
 250 -56 l 1
 264 -54 270 -54 278 -54 c 0
 328 -54 357 -79 357 -121 c 0
 357 -178 310 -214 234 -214 c 0
 195 -214 173 -208 109 -181 c 1
 130 -140 l 1
 162 -154 188 -173 228 -173 c 0
 259 -173 282 -154 282 -128 c 0
 282 -105 265 -91 236 -91 c 0
 224 -91 217 -93 205 -99 c 1
 193 -92 l 1
 224 -21 l 1
EndSplineSet
Validated: 3073
EndChar

StartChar: eth
Encoding: 240 240 175
Width: 534
Flags: HMW
LayerCount: 2
Fore
SplineSet
30 258 m 0
 30 481 161 537 248 537 c 0
 267 537 281 534 311 524 c 1
 276 559 265 569 213 613 c 1
 116 568 l 1
 80 607 l 1
 165 647 l 1
 139 667 126 675 83 699 c 1
 127 743 l 1
 158 730 171 723 238 680 c 1
 335 725 l 1
 375 688 l 1
 285 647 l 1
 356 593 504 477 504 259 c 0
 504 79 418 -23 267 -23 c 0
 116 -23 30 79 30 258 c 0
267 462 m 0
 174 462 117 384 117 258 c 0
 117 132 174 54 267 54 c 0
 359 54 417 132 417 255 c 0
 417 385 361 462 267 462 c 0
EndSplineSet
Validated: 3073
Substitution2: "'smcp' Lowercase to Small Capitals in Latin subtable" sc.eth
EndChar

StartChar: divide
Encoding: 247 247 182
Width: 584
Flags: MW
LayerCount: 2
Fore
SplineSet
534 271 m 1
 534 201 l 1
 50 201 l 1
 50 271 l 1
 534 271 l 1
344 104 m 1
 344 0 l 1
 240 0 l 1
 240 104 l 1
 344 104 l 1
344 472 m 1
 344 368 l 1
 240 368 l 1
 240 472 l 1
 344 472 l 1
EndSplineSet
Validated: 3073
EndChar

StartChar: oslash
Encoding: 248 248 183
Width: 534
Flags: HMW
LayerCount: 2
Fore
SplineSet
521 511 m 1
 458 440 l 1
 488 390 502 334 502 258 c 0
 502 82 414 -23 266 -23 c 0
 199 -23 143 -2 103 39 c 1
 42 -30 l 1
 10 -2 l 1
 76 72 l 1
 43 121 28 180 28 258 c 0
 28 434 117 539 265 539 c 0
 334 539 386 519 431 474 c 1
 489 539 l 1
 521 511 l 1
397 371 m 1
 159 102 l 1
 188 70 223 54 265 54 c 0
 358 54 415 132 415 258 c 0
 415 302 409 340 397 371 c 1
136 141 m 1
 375 410 l 1
 349 443 309 462 265 462 c 0
 172 462 115 384 115 258 c 0
 115 211 122 174 136 141 c 1
EndSplineSet
Validated: 3073
Substitution2: "'smcp' Lowercase to Small Capitals in Latin subtable" sc.oslash
EndChar

StartChar: thorn
Encoding: 254 254 189
Width: 558
Flags: HMW
LayerCount: 2
Fore
SplineSet
60 -218 m 1
 60 714 l 1
 143 714 l 1
 143 459 l 1
 179 510 237 539 304 539 c 0
 440 539 528 427 528 253 c 0
 528 86 439 -23 304 -23 c 0
 236 -23 187 1 143 55 c 1
 143 -218 l 1
 60 -218 l 1
289 461 m 0
 201 461 143 381 143 258 c 0
 143 135 201 55 289 55 c 0
 380 55 441 136 441 255 c 0
 441 380 381 461 289 461 c 0
EndSplineSet
Validated: 3073
Substitution2: "'smcp' Lowercase to Small Capitals in Latin subtable" sc.thorn
EndChar

StartChar: Aogonek
Encoding: 260 260 195
Width: 667
Flags: HMW
AnchorPoint: "above" 335 729 basechar 0
LayerCount: 2
Fore
SplineSet
616 -205 m 0
 543 -205 484 -169 484 -111 c 0
 484 -63 520 -22 581 0 c 1
 549 0 l 1
 474 219 l 1
 193 219 l 1
 116 0 l 1
 17 0 l 1
 277 729 l 1
 397 729 l 1
 653 0 l 1
 651 0 l 1
 578 -41 557 -64 557 -106 c 0
 557 -141 582 -160 629 -160 c 0
 653 -160 674 -157 692 -150 c 1
 692 -195 l 1
 668 -200 635 -205 616 -205 c 0
448 297 m 1
 336 629 l 1
 216 297 l 1
 448 297 l 1
EndSplineSet
Validated: 3073
EndChar

StartChar: aogonek
Encoding: 261 261 196
Width: 543
Flags: HMW
AnchorPoint: "above" 270.5 538 basechar 0
LayerCount: 2
Fore
SplineSet
54 369 m 1
 59 511 169 539 263 539 c 0
 392 539 460 489 460 396 c 2
 460 88 l 2
 460 62 476 47 505 47 c 0
 510 47 514 47 523 49 c 1
 523 -14 l 1
 475 -33 447 -66 447 -105 c 0
 447 -141 472 -160 519 -160 c 0
 544 -160 565 -157 583 -150 c 1
 583 -195 l 1
 558 -201 528 -205 512 -205 c 0
 460 -205 375 -183 375 -112 c 0
 375 -74 393 -50 443 -23 c 1
 405 -16 384 10 380 54 c 1
 324 1 268 -23 202 -23 c 0
 96 -23 30 37 30 132 c 0
 30 274 150 286 291 304 c 0
 356 312 377 326 377 362 c 2
 377 384 l 2
 377 435 336 462 260 462 c 0
 182 462 144 433 138 369 c 1
 54 369 l 1
219 50 m 0
 318 50 376 115 376 165 c 2
 376 259 l 1
 291 220 116 249 116 134 c 0
 116 81 154 50 219 50 c 0
EndSplineSet
Validated: 3073
EndChar

StartChar: Dcroat
Encoding: 272 272 207
Width: 707
Flags: MW
LayerCount: 2
Fore
SplineSet
89 339 m 1
 20 339 l 1
 20 406 l 1
 89 406 l 1
 89 729 l 1
 371 729 l 2
 555 729 667 591 667 365 c 0
 667 138 555 0 371 0 c 2
 89 0 l 1
 89 339 l 1
182 339 m 1
 182 82 l 1
 355 82 l 2
 498 82 574 179 574 365 c 0
 574 550 498 647 355 647 c 2
 182 647 l 1
 182 406 l 1
 353 406 l 1
 353 339 l 1
 182 339 l 1
EndSplineSet
Validated: 3073
EndChar

StartChar: dcroat
Encoding: 273 273 208
Width: 576
Flags: HMW
LayerCount: 2
Fore
SplineSet
498 653 m 1
 561 653 l 1
 561 600 l 1
 498 600 l 1
 498 0 l 1
 424 0 l 1
 424 59 l 1
 376 3 323 -23 256 -23 c 0
 120 -23 30 91 30 264 c 0
 30 430 119 539 254 539 c 0
 322 539 371 515 415 461 c 1
 415 600 l 1
 265 600 l 1
 265 653 l 1
 415 653 l 1
 415 729 l 1
 498 729 l 1
 498 653 l 1
269 457 m 0
 178 457 117 377 117 258 c 0
 117 139 178 59 269 59 c 0
 357 59 415 137 415 256 c 0
 415 379 358 457 269 457 c 0
EndSplineSet
Validated: 3073
EndChar

StartChar: Eogonek
Encoding: 280 280 215
Width: 642
Flags: HMW
AnchorPoint: "above" 335 729 basechar 0
LayerCount: 2
Fore
SplineSet
566 -205 m 0
 493 -205 434 -169 434 -111 c 0
 434 -63 470 -22 531 0 c 1
 80 0 l 1
 80 729 l 1
 585 729 l 1
 585 647 l 1
 173 647 l 1
 173 414 l 1
 570 414 l 1
 570 332 l 1
 173 332 l 1
 173 82 l 1
 603 82 l 1
 603 0 l 1
 601 0 l 1
 528 -41 507 -64 507 -106 c 0
 507 -141 532 -160 579 -160 c 0
 603 -160 624 -157 642 -150 c 1
 642 -195 l 1
 618 -200 585 -205 566 -205 c 0
EndSplineSet
Validated: 3073
EndChar

StartChar: eogonek
Encoding: 281 281 216
Width: 533
Flags: HMW
AnchorPoint: "above" 274.5 538 basechar 0
LayerCount: 2
Fore
SplineSet
493 159 m 1
 466 11 341 -5 341 -109 c 0
 341 -141 368 -160 413 -160 c 0
 438 -160 459 -157 477 -150 c 1
 477 -195 l 1
 450 -201 430 -204 408 -204 c 0
 324 -204 269 -169 269 -116 c 0
 269 -59 320 -28 337 -15 c 1
 307 -21 292 -23 269 -23 c 0
 120 -23 30 81 30 254 c 0
 30 427 124 539 270 539 c 0
 437.066 539 503 423.243 503 234 c 1
 117 234 l 1
 120 88 211 54 271 54 c 0
 338 54 385 90 409 159 c 1
 493 159 l 1
414 302 m 1
 414 391.92 354.528 462 269 462 c 0
 185 462 126 399 120 302 c 1
 414 302 l 1
EndSplineSet
Validated: 3073
EndChar

StartChar: Hbar
Encoding: 294 294 229
Width: 722
Flags: HMW
LayerCount: 2
Fore
SplineSet
172 504 m 1
 172 414 l 1
 547 414 l 1
 547 504 l 1
 172 504 l 1
79 576 m 1
 79 729 l 1
 172 729 l 1
 172 576 l 1
 547 576 l 1
 547 729 l 1
 640 729 l 1
 640 576 l 1
 692 576 l 1
 692 506 l 1
 640 506 l 1
 640 0 l 1
 547 0 l 1
 547 332 l 1
 173 332 l 1
 173 0 l 1
 79 0 l 1
 79 506 l 1
 30 506 l 1
 30 576 l 1
 79 576 l 1
EndSplineSet
Validated: 3073
EndChar

StartChar: hbar
Encoding: 295 295 230
Width: 554
Flags: HMW
LayerCount: 2
Fore
SplineSet
411 363 m 2
 411 445 346 466 303 466 c 0
 217 466 161 396 161 289 c 2
 161 0 l 1
 78 0 l 1
 78 600 l 1
 15 600 l 1
 15 653 l 1
 78 653 l 1
 78 729 l 1
 161 729 l 1
 161 653 l 1
 311 653 l 1
 311 600 l 1
 161 600 l 1
 161 452 l 1
 210 516 255 539 329 539 c 0
 431 539 494 484 494 396 c 2
 494 0 l 1
 411 0 l 1
 411 363 l 2
EndSplineSet
Validated: 3073
EndChar

StartChar: Iogonek
Encoding: 302 302 237
Width: 278
Flags: HMW
AnchorPoint: "above" 146 729 basechar 0
LayerCount: 2
Fore
SplineSet
158 -205 m 0
 85 -205 26 -169 26 -111 c 0
 26 -63 62 -22 123 0 c 1
 100 0 l 1
 100 729 l 1
 194 729 l 1
 194 0 l 1
 121 -41 99 -64 99 -106 c 0
 99 -141 124 -160 171 -160 c 0
 195 -160 216 -157 234 -150 c 1
 234 -195 l 1
 210 -200 177 -205 158 -205 c 0
EndSplineSet
Validated: 3073
EndChar

StartChar: iogonek
Encoding: 303 303 238
Width: 262
Flags: HMW
AnchorPoint: "above" 127 729 basechar 0
LayerCount: 2
Fore
SplineSet
134 -205 m 0
 61 -205 2 -169 2 -111 c 0
 2 -66.2383 33.3066 -27.5635 87 -4.70801 c 1
 87 518 l 1
 170 518 l 1
 170 -6 l 1
 158.47 -6 l 1
 93.959 -43.3398 75 -66.0928 75 -106 c 0
 75 -141 100 -160 147 -160 c 0
 171 -160 192 -157 210 -150 c 1
 210 -195 l 1
 186 -200 153 -205 134 -205 c 0
170 729 m 1
 170 624 l 1
 86 624 l 1
 86 729 l 1
 170 729 l 1
EndSplineSet
Validated: 3073
MultipleSubs2: "Glyph Decomposition of iogonek-remove-dot" dotlessi ogonekcmb
EndChar

StartChar: dotlessi
Encoding: 305 305 240
Width: 222
Flags: HMW
AnchorPoint: "ogonek" 110 0 basechar 0
AnchorPoint: "below" 109 0 basechar 0
AnchorPoint: "above" 111 538 basechar 0
LayerCount: 2
Fore
SplineSet
153 524 m 1
 153 0 l 1
 70 0 l 1
 70 524 l 1
 153 524 l 1
EndSplineSet
Validated: 3073
Substitution2: "'smcp' Lowercase to Small Capitals in Latin for Turkish subtable" sc.i
EndChar

StartChar: kgreenlandic
Encoding: 312 312 247
Width: 514
Flags: HMW
LayerCount: 2
Fore
SplineSet
143 524 m 1
 143 302 l 1
 365 524 l 1
 472 524 l 1
 200 264 l 1
 504 0 l 1
 401 0 l 1
 143 216 l 1
 143 0 l 1
 60 0 l 1
 60 524 l 1
 143 524 l 1
EndSplineSet
Validated: 3073
EndChar

StartChar: Lslash
Encoding: 321 321 256
Width: 612
Flags: HMW
LayerCount: 2
Fore
SplineSet
203 406 m 1
 374 527 l 1
 374 451 l 1
 203 329 l 1
 203 82 l 1
 582 82 l 1
 582 0 l 1
 110 0 l 1
 110 280 l 1
 30 223 l 1
 30 300 l 1
 110 356 l 1
 110 729 l 1
 203 729 l 1
 203 406 l 1
EndSplineSet
Validated: 3073
Substitution2: "'c2sc' Capitals to Small Capitals in Latin subtable" sc.lslash
EndChar

StartChar: lslash
Encoding: 322 322 257
Width: 252
Flags: HMW
LayerCount: 2
Fore
SplineSet
166 421 m 1
 232 472 l 1
 232 408 l 1
 166 357 l 1
 166 0 l 1
 83 0 l 1
 83 313 l 1
 20 263 l 1
 20 327 l 1
 83 377 l 1
 83 729 l 1
 166 729 l 1
 166 421 l 1
EndSplineSet
Validated: 3073
Substitution2: "'smcp' Lowercase to Small Capitals in Latin subtable" sc.lslash
EndChar

StartChar: Eng
Encoding: 330 330 265
Width: 677
Flags: HMW
LayerCount: 2
Fore
SplineSet
382 -16 m 0
 320 -16 288 -2 278 0 c 1
 278 71 l 1
 295 70 328 57 374 57 c 0
 452 57 545 186 545 391 c 0
 545 612 416 671 350 671 c 0
 264 671 173 601 173 494 c 2
 173 0 l 17
 80 0 l 9
 80 729 l 1
 173 729 l 1
 173 652 l 1
 219 725 297 744 375 744 c 0
 476 744 637 654 637 424 c 0
 637 100 502 -16 382 -16 c 0
EndSplineSet
Validated: 3073
Substitution2: "'locl' Localized Forms for Sami-1" Engsami
EndChar

StartChar: eng
Encoding: 331 331 266
Width: 537
Flags: HMW
AnchorPoint: "above" 299 538 basechar 0
AnchorPoint: "topright" 410 540 basechar 0
LayerCount: 2
Fore
SplineSet
477 396 m 2
 477 -109 l 2
 477 -180 428 -218 334 -218 c 0
 321 -218 316 -217 306 -215 c 1
 306 -144 l 1
 323 -145 323 -145 326 -145 c 0
 377 -145 394 -128 394 -76 c 2
 394 363 l 2
 394 426 352 466 286 466 c 0
 200 466 144 396 144 289 c 2
 144 0 l 1
 60 0 l 1
 60 524 l 1
 137 524 l 1
 137 436 l 1
 183 509 233 539 311 539 c 0
 412 539 477 483 477 396 c 2
EndSplineSet
Validated: 3073
EndChar

StartChar: OE
Encoding: 338 338 273
Width: 986
Flags: HMW
AnchorPoint: "below" 568 0 basechar 0
AnchorPoint: "above" 568 729 basechar 0
LayerCount: 2
Fore
SplineSet
40 356 m 0
 40 664 218 741 339 741 c 0
 421 741 480 713 522 653 c 1
 522 729 l 1
 951 729 l 1
 951 647 l 1
 615 647 l 1
 615 409 l 1
 943 409 l 1
 943 327 l 1
 615 327 l 1
 615 82 l 1
 956 82 l 1
 956 0 l 1
 522 0 l 1
 522 74 l 1
 476 9 419 -20 338 -20 c 0
 215 -20 40 55 40 356 c 0
133 360 m 0
 133 107 250 62 338 62 c 0
 422 62 482 101 522 182 c 1
 522 539 l 1
 482 620 423 659 339 659 c 0
 246 659 133 610 133 360 c 0
EndSplineSet
Validated: 3073
EndChar

StartChar: oe
Encoding: 339 339 274
Width: 919
Flags: HMW
AnchorPoint: "below" 464 0 basechar 0
AnchorPoint: "above" 464 538 basechar 0
LayerCount: 2
Fore
SplineSet
503 234 m 1
 506 88 595 54 657 54 c 0
 724 54 771 90 794 159 c 1
 878 159 l 1
 857 45 774 -23 655 -23 c 0
 570 -23 501 14 461 80 c 1
 419 11 355 -23 267 -23 c 0
 116 -23 30 79 30 259 c 0
 30 438 116 539 267 539 c 0
 356 539 423 503 463 433 c 1
 504 500 575 539 656 539 c 0
 754 539 834 487 868 401 c 0
 883 362 889 314 889 234 c 1
 503 234 l 1
267 462 m 0
 174 462 117 385 117 259 c 0
 117 131 174 54 267 54 c 0
 359 54 417 131 417 256 c 0
 417 385 361 462 267 462 c 0
505 302 m 1
 799 302 l 1
 799 397 740 462 655 462 c 0
 571 462 512 399 505 302 c 1
EndSplineSet
Validated: 3073
EndChar

StartChar: Scedilla
Encoding: 350 350 285
Width: 667
Flags: MW
LayerCount: 2
Fore
SplineSet
342 59 m 0
 500 59 528 139 528 191 c 0
 528 248 486 285 394 309 c 2
 213 357 l 2
 117 382 70 438 70 527 c 0
 70 659 169 741 329 741 c 0
 497 741 595 658 596 515 c 1
 508 515 l 1
 507 610 442 663 326 663 c 0
 228 663 163 614 163 540 c 0
 163 484 195 456 283 432 c 2
 466 383 l 2
 565 356 621 290 621 200 c 0
 621 105 571 -14 335 -24 c 1
 320 -56 l 1
 334 -54 340 -54 348 -54 c 0
 398 -54 427 -78 427 -121 c 0
 427 -178 380 -214 304 -214 c 0
 266 -214 241 -207 179 -180 c 1
 200 -140 l 1
 232 -154 259 -173 298 -173 c 0
 329 -173 352 -154 352 -128 c 0
 352 -105 335 -91 306 -91 c 0
 295 -91 287 -93 275 -98 c 1
 264 -92 l 1
 295 -23 l 1
 289 -21 285 -20 284 -20 c 2
 240 -13 l 1
 121 12 48 104 48 225 c 0
 48 227 48 230 48 232 c 1
 136 232 l 1
 136 230 136 229 136 227 c 0
 136 153 177 59 342 59 c 0
EndSplineSet
Validated: 3073
EndChar

StartChar: scedilla
Encoding: 351 351 286
Width: 493
Flags: MW
LayerCount: 2
Fore
SplineSet
122 156 m 1
 129 105 148 54 250 54 c 0
 323 54 372 87 372 136 c 0
 372 174 349 195 291 209 c 2
 213 228 l 2
 89 258 47 297 47 379 c 0
 47 476 126 539 248 539 c 0
 369 539 437 481 438 378 c 1
 350 378 l 1
 348 433 312 462 245 462 c 0
 177 462 134 431 134 383 c 0
 134 346 163 324 231 308 c 2
 311 289 l 2
 415 264 459 221 459 143 c 0
 459 81 422 25 361 -2 c 0
 334 -14 304 -20 244 -24 c 1
 230 -56 l 1
 244 -54 250 -54 258 -54 c 0
 308 -54 337 -78 337 -121 c 0
 337 -178 290 -214 214 -214 c 0
 176 -214 151 -207 89 -180 c 1
 110 -140 l 1
 142 -154 169 -173 208 -173 c 0
 239 -173 262 -154 262 -128 c 0
 262 -105 245 -91 216 -91 c 0
 204 -91 197 -93 185 -98 c 1
 174 -92 l 1
 205 -21 l 1
 93 -10 36 48 34 156 c 1
 122 156 l 1
EndSplineSet
Validated: 3073
EndChar

StartChar: Tcedilla
Encoding: 354 354 289
Width: 632
Flags: HMW
LayerCount: 2
Fore
SplineSet
197 -139 m 1
 236 -156 258 -172 295 -172 c 0
 326 -172 349 -153 349 -127 c 0
 349 -104 332 -90 303 -90 c 0
 291 -90 284 -92 272 -98 c 1
 260 -91 l 1
 301.543 0 l 1
 270 0 l 1
 270 647 l 1
 30 647 l 1
 30 729 l 1
 602 729 l 1
 602 647 l 1
 363 647 l 1
 363 0 l 1
 339.589 0 l 1
 317 -55 l 1
 330 -53 337 -53 345 -53 c 0
 395 -53 424 -77 424 -120 c 0
 424 -177 377 -213 301 -213 c 0
 262 -213 238 -206 176 -179 c 1
 197 -139 l 1
EndSplineSet
Validated: 3073
EndChar

StartChar: tcedilla
Encoding: 355 355 290
Width: 284
Flags: HMW
LayerCount: 2
Fore
SplineSet
72 -153 m 1
 111 -170 133 -186 170 -186 c 0
 201 -186 224 -167 224 -141 c 0
 224 -118 207 -104 178 -104 c 0
 166 -104 159 -106 147 -112 c 1
 135 -105 l 1
 172.866 -22.0547 l 1
 119.973 -16.584 91 12.4531 91 60 c 2
 91 456 l 1
 20 456 l 1
 20 524 l 1
 91 524 l 1
 91 668 l 1
 174 668 l 1
 174 524 l 1
 260 524 l 1
 260 456 l 1
 174 456 l 1
 174 97 l 2
 174 60 184 50 220 50 c 0
 236 50 249 51 260 54 c 1
 260 -16 l 1
 240.82 -19.4248 225.394 -21.4424 211.15 -22.373 c 1
 192 -69 l 1
 205 -67 212 -67 220 -67 c 0
 270 -67 299 -91 299 -134 c 0
 299 -191 252 -227 176 -227 c 0
 137 -227 113 -220 51 -193 c 1
 72 -153 l 1
EndSplineSet
Validated: 3073
EndChar

StartChar: Tbar
Encoding: 358 358 293
Width: 632
Flags: HMW
LayerCount: 2
Fore
SplineSet
129 357 m 1
 129 429 l 1
 270 429 l 1
 270 647 l 1
 30 647 l 1
 30 729 l 1
 602 729 l 1
 602 647 l 1
 363 647 l 1
 363 429 l 1
 504 429 l 1
 504 357 l 1
 363 357 l 1
 363 0 l 1
 270 0 l 1
 270 357 l 1
 129 357 l 1
EndSplineSet
Validated: 3073
EndChar

StartChar: tbar
Encoding: 359 359 294
Width: 285
Flags: HMW
LayerCount: 2
Fore
SplineSet
265 524 m 1
 265 456 l 1
 179 456 l 1
 179 312 l 1
 258 312 l 1
 258 240 l 1
 179 240 l 1
 179 97 l 2
 179 60 189 50 225 50 c 0
 241 50 254 51 265 54 c 1
 265 -16 l 1
 237 -21 217 -23 197 -23 c 0
 132 -23 96 7 96 60 c 2
 96 240 l 1
 20 240 l 1
 20 312 l 1
 96 312 l 1
 96 456 l 1
 25 456 l 1
 25 524 l 1
 96 524 l 1
 96 668 l 1
 179 668 l 1
 179 524 l 1
 265 524 l 1
EndSplineSet
Validated: 3073
EndChar

StartChar: Uogonek
Encoding: 370 370 305
Width: 720
Flags: HMW
AnchorPoint: "above" 360 729 basechar 0
LayerCount: 2
Fore
SplineSet
522 -205 m 0
 448 -205 389 -168 389 -112 c 0
 389 -71 410 -42 462 -10 c 1
 418 -20 397 -23 361 -23 c 0
 187 -23 80 68 80 217 c 2
 80 729 l 1
 173 729 l 1
 173 217 l 2
 173 107 252 59 359 59 c 0
 476 59 547 119 547 217 c 2
 547 729 l 1
 640 729 l 1
 640 217 l 2
 640 29 462 -7 462 -106 c 0
 462 -141 487 -160 534 -160 c 0
 558 -160 579 -157 597 -150 c 1
 597 -195 l 1
 573 -200 540 -205 522 -205 c 0
EndSplineSet
Validated: 3073
EndChar

StartChar: uogonek
Encoding: 371 371 306
Width: 537
Flags: HMW
AnchorPoint: "above" 264.5 538 basechar 0
LayerCount: 2
Fore
SplineSet
477 524 m 1
 477 0 l 1
 431 -26 400 -69 400 -108 c 0
 400 -140 426 -160 467 -160 c 0
 483 -160 495 -158 516 -150 c 1
 516 -195 l 1
 497 -198 478 -204 464 -204 c 0
 381 -204 328 -168 328 -111 c 0
 328 -68 358 -34 424 0 c 1
 402 0 l 1
 402 73 l 1
 353 4 304 -23 227 -23 c 0
 125 -23 60 33 60 120 c 2
 60 524 l 1
 143 524 l 1
 143 153 l 2
 143 90 185 50 251 50 c 0
 338 50 394 120 394 227 c 2
 394 524 l 1
 477 524 l 1
EndSplineSet
Validated: 3073
EndChar

StartChar: longs
Encoding: 383 383 318
Width: 280
Flags: HMW
LayerCount: 2
Fore
SplineSet
173 0 m 1
 90 0 l 1
 90 456 l 1
 20 456 l 1
 20 524 l 1
 90 524 l 1
 90 613 l 2
 90 688 136 732 213 732 c 0
 230 732 241 731 260 727 c 1
 260 658 l 1
 241 659 238 659 231 659 c 0
 193 659 173 641 173 606 c 2
 173 0 l 1
EndSplineSet
Validated: 3073
EndChar

StartChar: uni0180
Encoding: 384 384 319
Width: 581
Flags: HMW
LayerCount: 2
Fore
SplineSet
83 653 m 1
 83 729 l 1
 166 729 l 1
 166 653 l 1
 316 653 l 1
 316 600 l 1
 166 600 l 1
 166 461 l 1
 210 515 259 539 327 539 c 0
 462 539 551 430 551 264 c 0
 551 91 461 -23 325 -23 c 0
 258 -23 205 3 157 59 c 1
 157 0 l 1
 83 0 l 1
 83 600 l 1
 20 600 l 1
 20 653 l 1
 83 653 l 1
312 457 m 0
 223 457 166 379 166 256 c 0
 166 137 224 59 312 59 c 0
 403 59 464 139 464 258 c 0
 464 377 403 457 312 457 c 0
EndSplineSet
Validated: 3073
EndChar

StartChar: uni0183
Encoding: 387 387 321
Width: 559
Flags: HMW
LayerCount: 2
Fore
SplineSet
289 461 m 0
 201 461 143 381 143 258 c 0
 143 135 201 55 289 55 c 0
 380 55 442 136 442 255 c 0
 442 380 382 461 289 461 c 0
60 0 m 1
 60 729 l 1
 451 729 l 1
 451 656 l 1
 143 656 l 1
 143 453 l 1
 182 512 233 539 305 539 c 0
 443 539 529 434 529 264 c 0
 529 90 439 -23 301 -23 c 0
 228 -23 175 6 135 67 c 1
 135 0 l 1
 60 0 l 1
EndSplineSet
Validated: 3073
EndChar

StartChar: uni0184
Encoding: 388 388 322
Width: 713
Flags: HMW
LayerCount: 2
Fore
SplineSet
222 82 m 1
 434 82 l 2
 520 82 580 144 580 225 c 0
 580 310 521 369 434 369 c 2
 222 369 l 1
 222 82 l 1
129 729 m 1
 222 729 l 1
 222 451 l 1
 387 451 l 2
 598 451 673 355 673 229 c 0
 673 226 l 0
 673 93 575 0 443 0 c 2
 129 0 l 1
 129 451 l 1
 1 590 l 1
 129 729 l 1
EndSplineSet
Validated: 3073
EndChar

StartChar: uni0185
Encoding: 389 389 323
Width: 593
Flags: HMW
LayerCount: 2
Fore
SplineSet
323 461 m 0
 235 461 177 381 177 258 c 0
 177 135 235 55 323 55 c 0
 414 55 476 136 476 255 c 0
 476 380 416 461 323 461 c 0
94 729 m 1
 177 729 l 1
 177 453 l 1
 216 512 267 539 339 539 c 0
 477 539 563 434 563 264 c 0
 563 90 473 -23 335 -23 c 0
 262 -23 209 6 169 67 c 1
 169 0 l 1
 94 0 l 1
 94 451 l 1
 1 590 l 1
 94 729 l 1
EndSplineSet
Validated: 3073
EndChar

StartChar: florin
Encoding: 402 402 324
Width: 278
Flags: MW
LayerCount: 2
Fore
SplineSet
258 524 m 1
 258 456 l 1
 171 456 l 1
 171 -109 l 2
 171 -180 122 -218 28 -218 c 0
 15 -218 10 -217 0 -215 c 1
 0 -144 l 1
 17 -145 17 -145 20 -145 c 0
 71 -145 88 -128 88 -76 c 2
 88 456 l 1
 18 456 l 1
 18 524 l 1
 88 524 l 1
 88 613 l 2
 88 688 134 732 211 732 c 0
 228 732 239 731 258 727 c 1
 258 658 l 1
 239 659 236 659 229 659 c 0
 191 659 171 641 171 606 c 2
 171 524 l 1
 258 524 l 1
EndSplineSet
Validated: 3073
EndChar

StartChar: uni0193
Encoding: 403 403 325
Width: 812
Flags: HMW
LayerCount: 2
Fore
SplineSet
133 362 m 0
 133 245 185 59 394 59 c 0
 527 59 623 153 623 283 c 2
 623 303 l 1
 401 303 l 1
 401 385 l 1
 705 385 l 1
 705 -4 l 1
 646 -4 l 1
 623 93 l 1
 552 14 473 -23 374 -23 c 0
 177 -23 40 133 40 357 c 0
 40 503 110 741 390 741 c 0
 487 741 566 712 620 659 c 1
 638 702 679 726 735 726 c 0
 752 726 763 725 782 721 c 1
 782 642 l 1
 763 643 760 643 753 643 c 0
 715 643 695 630 695 590 c 2
 695 508 l 1
 600 508 l 1
 580 602 500 659 389 659 c 0
 235 659 133 541 133 362 c 0
EndSplineSet
Validated: 3073
EndChar

StartChar: uni0199
Encoding: 409 409 326
Width: 514
Flags: HMW
LayerCount: 2
Fore
SplineSet
60 0 m 1
 60 613 l 2
 60 688 106 732 183 732 c 0
 200 732 211 731 230 727 c 1
 230 658 l 1
 211 659 208 659 201 659 c 0
 163 659 143 641 143 606 c 2
 143 302 l 1
 365 524 l 1
 472 524 l 1
 290 343 l 1
 504 0 l 1
 401 0 l 1
 224 284 l 1
 143 204 l 1
 143 0 l 1
 60 0 l 1
EndSplineSet
Validated: 3073
EndChar

StartChar: Obar
Encoding: 415 415 327
Width: 782
Flags: HMW
LayerCount: 2
Fore
SplineSet
744 353 m 0
 744 143 610 -23 392 -23 c 0
 182 -23 40 131 40 359 c 0
 40 587 182 741 391 741 c 0
 605 741 744 588 744 353 c 0
650 385 m 1
 640 552 540 659 391 659 c 0
 245 659 143 550 134 385 c 1
 650 385 l 1
649 315 m 1
 135 315 l 1
 151 160 250 59 392 59 c 0
 534 59 634 161 649 315 c 1
EndSplineSet
Validated: 3073
EndChar

StartChar: uni01A5
Encoding: 421 421 328
Width: 559
Flags: HMW
AnchorPoint: "below" 278 -200 basechar 0
AnchorPoint: "above" 319 720 basechar 0
LayerCount: 2
Fore
SplineSet
290 461 m 0
 202 461 144 381 144 258 c 0
 144 135 202 55 290 55 c 0
 381 55 442 136 442 255 c 0
 442 380 382 461 290 461 c 0
137 606 m 2
 137 445 l 1
 176 507 233 539 304 539 c 0
 443 539 529 429 529 253 c 0
 529 86 440 -23 305 -23 c 0
 237 -23 188 1 144 55 c 1
 144 -218 l 1
 60 -218 l 1
 60 613 l 2
 60 688 102 732 179 732 c 0
 196 732 205 731 224 727 c 1
 224 658 l 1
 205 659 202 659 195 659 c 0
 157 659 137 641 137 606 c 2
EndSplineSet
Validated: 3073
EndChar

StartChar: uni01A8
Encoding: 424 424 329
Width: 500
Flags: MW
LayerCount: 2
Fore
SplineSet
371 156 m 1
 459 156 l 1
 455 35 387 -23 250 -23 c 0
 118 -23 34 42 34 143 c 0
 34 221 78 264 182 289 c 2
 262 308 l 2
 330 324 359 346 359 383 c 0
 359 431 316 462 248 462 c 0
 181 462 145 433 143 378 c 1
 55 378 l 1
 56 481 124 539 245 539 c 0
 367 539 446 476 446 379 c 0
 446 297 404 258 280 228 c 2
 202 209 l 2
 144 195 121 174 121 136 c 0
 121 87 170 54 243 54 c 0
 345 54 364 105 371 156 c 1
EndSplineSet
Validated: 3073
EndChar

StartChar: uni01A9
Encoding: 425 425 330
Width: 615
Flags: HMW
LayerCount: 2
Fore
SplineSet
249 365 m 1
 32 645 l 1
 32 729 l 1
 557 729 l 1
 557 647 l 1
 147 647 l 1
 366 365 l 25
 147 82 l 1
 585 82 l 1
 585 0 l 1
 30 0 l 1
 30 82 l 1
 249 365 l 1
EndSplineSet
Validated: 3073
EndChar

StartChar: uni01AD
Encoding: 429 429 331
Width: 281
Flags: HMW
LayerCount: 2
Fore
SplineSet
174 606 m 2
 174 524 l 1
 260 524 l 1
 260 456 l 1
 174 456 l 1
 174 97 l 2
 174 60 184 50 220 50 c 0
 236 50 249 51 260 54 c 1
 260 -16 l 1
 232 -21 212 -23 192 -23 c 0
 127 -23 91 7 91 60 c 2
 91 456 l 1
 20 456 l 1
 20 524 l 1
 91 524 l 1
 91 613 l 2
 91 688 137 732 214 732 c 0
 231 732 242 731 261 727 c 1
 261 658 l 1
 242 659 239 659 232 659 c 0
 194 659 174 641 174 606 c 2
EndSplineSet
Validated: 3073
EndChar

StartChar: uni01AE
Encoding: 430 430 332
Width: 632
Flags: HMW
LayerCount: 2
Fore
SplineSet
270 -109 m 2
 270 647 l 1
 30 647 l 1
 30 729 l 1
 602 729 l 1
 602 647 l 1
 363 647 l 1
 363 -76 l 2
 363 -120 390 -135 431 -135 c 0
 434 -135 434 -135 451 -134 c 1
 451 -215 l 1
 441 -217 436 -218 423 -218 c 0
 329 -218 270 -180 270 -109 c 2
EndSplineSet
Validated: 3073
EndChar

StartChar: Oogonek
Encoding: 490 490 368
Width: 784
Flags: HMW
AnchorPoint: "above" 389 729 basechar 0
LayerCount: 2
Fore
SplineSet
392 -221 m 0
 319 -221 260 -185 260 -127 c 0
 260 -82.043 291.581 -43.2256 345.704 -20.4092 c 1
 161.4 0.635742 40 148.186 40 359 c 0
 40 587 182 741 391 741 c 0
 605 741 744 588 744 353 c 0
 744 150.792 619.759 -10.6211 415.917 -22.3203 c 1
 351.851 -59.4697 333 -82.207 333 -122 c 0
 333 -157 358 -176 405 -176 c 0
 429 -176 450 -173 468 -166 c 1
 468 -211 l 1
 444 -216 411 -221 392 -221 c 0
391 659 m 0
 237 659 133 539 133 359 c 0
 133 179 237 59 392 59 c 0
 546 59 651 179 651 355 c 0
 651 539 549 659 391 659 c 0
EndSplineSet
Validated: 3073
EndChar

StartChar: oogonek
Encoding: 491 491 369
Width: 534
Flags: HMW
AnchorPoint: "above" 268.5 538 basechar 0
LayerCount: 2
Fore
SplineSet
267 -221 m 0
 194 -221 135 -185 135 -127 c 0
 135 -81.5312 167.303 -42.3438 222.56 -19.6367 c 1
 100.663 -0.413086 30 100.288 30 258 c 0
 30 434 119 539 266 539 c 0
 417 539 504 435 504 254 c 0
 504 91.7676 423.931 -10.8584 291.485 -21.9912 c 1
 226.962 -59.3359 208 -82.0898 208 -122 c 0
 208 -157 233 -176 280 -176 c 0
 304 -176 325 -173 343 -166 c 1
 343 -211 l 1
 319 -216 286 -221 267 -221 c 0
267 462 m 0
 174 462 117 384 117 258 c 0
 117 131 174 54 267 54 c 0
 359 54 417 132 417 255 c 0
 417 385 361 462 267 462 c 0
EndSplineSet
Validated: 3073
EndChar

StartChar: uni0228
Encoding: 552 552 418
Width: 633
Flags: HMW
LayerCount: 2
Fore
SplineSet
218 -133 m 1
 257 -150 279 -166 316 -166 c 0
 347 -166 370 -147 370 -121 c 0
 370 -98 353 -84 324 -84 c 0
 312 -84 305 -86 293 -92 c 1
 281 -85 l 1
 319.804 -0 l 1
 80 0 l 1
 80 729 l 1
 585 729 l 1
 585 647 l 1
 173 647 l 1
 173 414 l 1
 570 414 l 1
 570 332 l 1
 173 332 l 1
 173 82 l 1
 603 82 l 1
 603 0 l 1
 358.125 0 l 1
 338 -49 l 1
 351 -47 358 -47 366 -47 c 0
 416 -47 445 -71 445 -114 c 0
 445 -171 398 -207 322 -207 c 0
 283 -207 259 -200 197 -173 c 1
 218 -133 l 1
EndSplineSet
Validated: 3073
EndChar

StartChar: uni0229
Encoding: 553 553 419
Width: 533
Flags: HMW
LayerCount: 2
Fore
SplineSet
144 -156 m 1
 183 -173 205 -189 242 -189 c 0
 273 -189 296 -170 296 -144 c 0
 296 -121 279 -107 250 -107 c 0
 238 -107 231 -109 219 -115 c 1
 207 -108 l 1
 246.172 -22.1953 l 1
 112.045 -12.1309 30 91.6826 30 255 c 0
 30 427 124 539 270 539 c 0
 368 539 448 487 482 401 c 0
 497 362 503 314 503 234 c 1
 117 234 l 1
 118 182 125 152 145 122 c 0
 173 78 218 54 271 54 c 0
 338 54 385 90 408 159 c 1
 492 159 l 1
 471.965 50.2373 395.495 -16.6553 284.301 -22.5713 c 1
 264 -72 l 1
 277 -70 284 -70 292 -70 c 0
 342 -70 371 -94 371 -137 c 0
 371 -194 324 -230 248 -230 c 0
 209 -230 185 -223 123 -196 c 1
 144 -156 l 1
119 302 m 1
 413 302 l 1
 414 304 414 306 414 308 c 0
 414 394 351 462 269 462 c 0
 185 462 126 399 119 302 c 1
EndSplineSet
Validated: 3073
EndChar

StartChar: ascript
Encoding: 593 593 431
Width: 572
Flags: HMW
AnchorPoint: "below" 278 0 basechar 0
AnchorPoint: "above" 278 538 basechar 0
LayerCount: 2
Fore
SplineSet
401 263 m 0
 401 372 349 471 252 471 c 0
 163 471 117 363 117 261 c 0
 117 158 177 60 269 60 c 0
 360 60 401 160 401 263 c 0
237 -14 m 0
 146 -14 30 91 30 258 c 0
 30 412 100 538 250 538 c 0
 310 538 362 511 406 458 c 1
 406 524 l 1
 489 524 l 1
 489 88 l 2
 489 62 505 47 534 47 c 0
 539 47 543 47 552 49 c 1
 552 -14 l 1
 525 -21 512 -23 495 -23 c 0
 443 -23 414 -2 407 57 c 1
 360 12 318 -12 237 -14 c 0
EndSplineSet
Validated: 3073
EndChar

StartChar: bhook
Encoding: 595 595 433
Width: 559
Flags: HMW
AnchorPoint: "below" 280 0 basechar 0
LayerCount: 2
Fore
SplineSet
289 461 m 0
 201 461 143 381 143 258 c 0
 143 135 201 55 289 55 c 0
 380 55 442 136 442 255 c 0
 442 380 382 461 289 461 c 0
60 0 m 1
 60 613 l 2
 60 688 106 732 183 732 c 0
 200 732 211 731 230 727 c 1
 230 658 l 1
 211 659 208 659 201 659 c 0
 163 659 143 641 143 606 c 2
 143 453 l 1
 182 512 233 539 305 539 c 0
 443 539 529 434 529 264 c 0
 529 90 439 -23 301 -23 c 0
 228 -23 175 6 135 67 c 1
 135 0 l 1
 60 0 l 1
EndSplineSet
Validated: 3073
EndChar

StartChar: dtail
Encoding: 598 598 435
Width: 602
Flags: HMW
AnchorPoint: "below" 278 -200 basechar 0
LayerCount: 2
Fore
SplineSet
269 461 m 0
 178 461 117 380 117 258 c 0
 117 136 178 55 270 55 c 0
 358 55 416 135 416 256 c 0
 416 381 359 461 269 461 c 0
425 69 m 1
 380 4 330 -23 258 -23 c 0
 117 -23 30 86 30 263 c 0
 30 430 119 539 255 539 c 0
 325 539 381 511 416 458 c 1
 416 729 l 1
 499 729 l 1
 499 -76 l 2
 499 -128 521 -145 572 -145 c 0
 575 -145 575 -145 592 -144 c 1
 592 -215 l 1
 582 -217 577 -218 564 -218 c 0
 470 -218 425 -180 425 -109 c 2
 425 69 l 1
EndSplineSet
Validated: 3073
EndChar

StartChar: dhook
Encoding: 599 599 436
Width: 596
Flags: HMW
AnchorPoint: "below" 278 0 basechar 0
LayerCount: 2
Fore
SplineSet
269 461 m 0
 178 461 117 380 117 258 c 0
 117 136 178 55 270 55 c 0
 358 55 416 135 416 256 c 0
 416 381 359 461 269 461 c 0
499 606 m 2
 499 0 l 1
 425 0 l 1
 425 69 l 1
 380 4 330 -23 258 -23 c 0
 117 -23 30 86 30 263 c 0
 30 430 119 539 255 539 c 0
 325 539 381 511 416 458 c 1
 416 613 l 2
 416 688 462 732 539 732 c 0
 556 732 567 731 586 727 c 1
 586 658 l 1
 567 659 564 659 557 659 c 0
 519 659 499 641 499 606 c 2
EndSplineSet
Validated: 3073
EndChar

StartChar: erev
Encoding: 600 600 437
Width: 533
Flags: HMW
AnchorPoint: "below" 264 0 basechar 0
AnchorPoint: "above" 264 538 basechar 0
LayerCount: 2
Fore
SplineSet
30 234 m 1
 32 390 79.9756 539 263 539 c 0
 408 539 503 427 503 255 c 0
 503 83 412 -23 265 -23 c 0
 145 -23 62 45 41 159 c 1
 125 159 l 1
 148 90 195 54 262 54 c 0
 313.882 54 413.022 79.1445 416 234 c 1
 30 234 l 1
414 302 m 1
 407 399 348 462 264 462 c 0
 186 462 122 398 119 302 c 1
 414 302 l 1
EndSplineSet
Validated: 3073
EndChar

StartChar: epsilonlatin
Encoding: 603 603 439
Width: 485
Flags: HMW
AnchorPoint: "below" 246 0 basechar 0
AnchorPoint: "above" 246 538 basechar 0
LayerCount: 2
Fore
SplineSet
367 156 m 1
 455 156 l 1
 451 35 383 -23 246 -23 c 0
 114 -23 30 42 30 143 c 0
 30 203 57 241 116 267 c 1
 70 293 51 326 51 379 c 0
 51 476 130 539 252 539 c 0
 373 539 441 481 442 378 c 1
 354 378 l 1
 352 433 316 462 249 462 c 0
 181 462 138 431 138 383 c 0
 138 346 165 297 235 297 c 2
 297 297 l 1
 297 221 l 1
 223 221 l 2
 163 221 121 174 121 136 c 0
 121 87 166 54 239 54 c 0
 341 54 360 105 367 156 c 1
EndSplineSet
Validated: 3073
EndChar

StartChar: ghook
Encoding: 608 608 441
Width: 587
Flags: HMW
AnchorPoint: "below" 251 -200 basechar 0
AnchorPoint: "above" 254 613 basechar 0
LayerCount: 2
Fore
SplineSet
262 462 m 0
 173 462 117 384 117 258 c 0
 117 131 172 54 263 54 c 0
 351 54 405 130 405 255 c 0
 405 386 352 462 262 462 c 0
259 -148 m 0
 377 -148 405 -77 405 44 c 2
 405 71 l 1
 358 5 312 -23 246 -23 c 0
 127 -23 30 82 30 253 c 0
 30 423 120 539 253 539 c 0
 320 539 371 510 413 448 c 1
 413 531 l 2
 413 606 453 650 530 650 c 0
 547 650 558 649 577 645 c 1
 577 576 l 1
 558 577 555 577 548 577 c 0
 510 577 490 564 490 524 c 2
 490 86 l 2
 490 -96 455 -218 256 -218 c 0
 133 -218 56 -159 47 -60 c 1
 132 -60 l 1
 146 -145 233 -148 259 -148 c 0
EndSplineSet
Validated: 3073
EndChar

StartChar: gscript
Encoding: 609 609 442
Width: 557
Flags: HMW
AnchorPoint: "below" 251 -200 basechar 0
AnchorPoint: "above" 251 538 basechar 0
LayerCount: 2
Fore
SplineSet
262 462 m 0
 173 462 117 384 117 258 c 0
 117 131 172 54 263 54 c 0
 351 54 405 130 405 255 c 0
 405 386 352 462 262 462 c 0
246 -23 m 0
 127 -23 30 82 30 253 c 0
 30 423 120 539 253 539 c 0
 319 539 370 511 411 450 c 1
 415 494 438 531 481 531 c 0
 503 531 523 527 542 520 c 1
 528 448 l 1
 521 450 516 451 512 451 c 0
 497 451 490 439 490 414 c 2
 490 86 l 2
 490 -96 455 -218 256 -218 c 0
 133 -218 56 -159 47 -60 c 1
 132 -60 l 1
 146 -145 233 -148 259 -148 c 0
 377 -148 405 -76 405 44 c 2
 405 71 l 1
 358 5 312 -23 246 -23 c 0
EndSplineSet
Validated: 3073
EndChar

StartChar: hhook
Encoding: 614 614 444
Width: 536
Flags: HMW
LayerCount: 2
Fore
SplineSet
393 363 m 2
 393 445 328 466 285 466 c 0
 199 466 143 396 143 289 c 2
 143 0 l 1
 60 0 l 1
 60 613 l 2
 60 688 106 732 183 732 c 0
 200 732 211 731 230 727 c 1
 230 658 l 1
 221.333 658.833 208 660 201 660 c 0
 163 660 143 641 143 606 c 2
 143 452 l 1
 192 516 237 539 311 539 c 0
 413 539 476 484 476 396 c 2
 476 0 l 1
 393 0 l 1
 393 363 l 2
EndSplineSet
Validated: 3073
EndChar

StartChar: henghook
Encoding: 615 615 445
Width: 536
Flags: HMW
LayerCount: 2
Fore
SplineSet
393 363 m 2
 393 445 328 466 285 466 c 0
 199 466 143 396 143 289 c 2
 143 0 l 1
 60 0 l 1
 60 613 l 2
 60 688 106 732 183 732 c 0
 200 732 211 731 230 727 c 1
 230 658 l 1
 211 659 208 659 201 659 c 0
 163 659 143 641 143 606 c 2
 143 452 l 1
 192 516 237 539 311 539 c 0
 413 539 476 484 476 396 c 2
 476 -109 l 2
 476 -180 427 -218 333 -218 c 0
 320 -218 315 -217 305 -215 c 1
 305 -144 l 1
 322 -145 322 -145 325 -145 c 0
 376 -145 393 -128 393 -76 c 2
 393 363 l 2
EndSplineSet
Validated: 3073
EndChar

StartChar: ibar
Encoding: 616 616 446
Width: 268
Flags: HMW
LayerCount: 2
Fore
SplineSet
173 729 m 1
 173 624 l 1
 89 624 l 1
 89 729 l 1
 173 729 l 1
90 312 m 1
 90 524 l 1
 173 524 l 1
 173 312 l 1
 253 312 l 1
 253 240 l 1
 173 240 l 1
 173 0 l 1
 90 0 l 1
 90 240 l 1
 15 240 l 1
 15 312 l 1
 90 312 l 1
EndSplineSet
Validated: 3073
EndChar

StartChar: iotalatin
Encoding: 617 617 447
Width: 255
Flags: MW
LayerCount: 2
Fore
SplineSet
149 524 m 1
 149 97 l 2
 149 60 159 50 195 50 c 0
 211 50 224 51 235 54 c 1
 235 -16 l 1
 207 -21 187 -23 167 -23 c 0
 102 -23 66 7 66 60 c 2
 66 524 l 1
 149 524 l 1
EndSplineSet
Validated: 3073
EndChar

StartChar: Ismallcap
Encoding: 618 618 448
Width: 278
Flags: HMW
AnchorPoint: "below" 142 0 basechar 0
AnchorPoint: "above" 143 538 basechar 0
LayerCount: 2
Fore
SplineSet
20 524 m 1
 258 524 l 1
 258 452 l 1
 185 452 l 1
 185 72 l 1
 258 72 l 1
 258 0 l 1
 20 0 l 1
 20 72 l 1
 102 72 l 1
 102 452 l 1
 20 452 l 1
 20 524 l 1
EndSplineSet
Validated: 3073
EndChar

StartChar: lrthook
Encoding: 621 621 449
Width: 260
Flags: MW
LayerCount: 2
Fore
SplineSet
68 -109 m 2
 68 729 l 1
 152 729 l 1
 152 -76 l 2
 152 -128 169 -145 220 -145 c 0
 223 -145 223 -145 240 -144 c 1
 240 -215 l 1
 230 -217 225 -218 212 -218 c 0
 118 -218 68 -180 68 -109 c 2
EndSplineSet
Validated: 3073
EndChar

StartChar: mlonglegturned
Encoding: 624 624 451
Width: 812
Flags: HMW
LayerCount: 2
Fore
SplineSet
752 -200 m 1
 675 -200 l 1
 675 74 l 1
 630 11 584 -15 514 -15 c 0
 446 -15 404 9 373 65 c 1
 324 6 282 -15 212 -15 c 0
 114 -15 60 37 60 131 c 2
 60 524 l 1
 144 524 l 1
 144 163 l 2
 144 97 180 58 241 58 c 0
 309 58 364 119 364 195 c 2
 364 524 l 1
 448 524 l 1
 448 163 l 2
 448 96 483 58 545 58 c 0
 613 58 668 119 668 195 c 2
 668 524 l 1
 752 524 l 1
 752 -200 l 1
EndSplineSet
Validated: 3073
EndChar

StartChar: mhook
Encoding: 625 625 452
Width: 812
Flags: HMW
AnchorPoint: "above" 406.5 538 basechar 0
AnchorPoint: "below" 402 -200 basechar 0
LayerCount: 2
Fore
SplineSet
60 524 m 1
 137 524 l 1
 137 450 l 1
 182 513 228 539 298 539 c 0
 366 539 408 515 439 459 c 1
 488 518 530 539 600 539 c 0
 698 539 752 487 752 393 c 2
 752 -109 l 2
 752 -180 702 -218 608 -218 c 0
 595 -218 590 -217 580 -215 c 1
 580 -144 l 1
 597 -145 597 -145 600 -145 c 0
 651 -145 668 -128 668 -76 c 2
 668 361 l 2
 668 427 632 466 571 466 c 0
 503 466 448 405 448 329 c 2
 448 0 l 1
 364 0 l 1
 364 361 l 2
 364 428 329 466 267 466 c 0
 199 466 144 405 144 329 c 2
 144 0 l 1
 60 0 l 1
 60 524 l 1
EndSplineSet
Validated: 3073
EndChar

StartChar: nhookleft
Encoding: 626 626 453
Width: 575
Flags: HMW
AnchorPoint: "above" 306 538 basechar 0
AnchorPoint: "below" 300 -200 basechar 0
LayerCount: 2
Fore
SplineSet
98 524 m 1
 175 524 l 1
 175 436 l 1
 221 509 271 539 349 539 c 0
 450 539 515 483 515 396 c 2
 515 0 l 1
 432 0 l 1
 432 363 l 2
 432 426 390 466 324 466 c 0
 238 466 182 396 182 289 c 2
 182 -109 l 2
 182 -180 132 -218 38 -218 c 0
 25 -218 20 -217 10 -215 c 1
 10 -144 l 1
 27 -145 27 -145 30 -145 c 0
 81 -145 98 -128 98 -76 c 2
 98 524 l 1
EndSplineSet
Validated: 3073
EndChar

StartChar: nrthook
Encoding: 627 627 454
Width: 576
Flags: HMW
AnchorPoint: "above" 268 538 basechar 0
AnchorPoint: "below" 262 -200 basechar 0
LayerCount: 2
Fore
SplineSet
60 524 m 1
 137 524 l 1
 137 436 l 1
 183 509 233 539 311 539 c 0
 412 539 478 483 478 396 c 2
 478 -76 l 2
 478 -128 495 -145 546 -145 c 0
 549 -145 549 -145 566 -144 c 1
 566 -215 l 1
 556 -217 551 -218 538 -218 c 0
 444 -218 394 -180 394 -109 c 2
 394 363 l 2
 394 426 352 466 286 466 c 0
 200 466 144 396 144 289 c 2
 144 0 l 1
 60 0 l 1
 60 524 l 1
EndSplineSet
Validated: 3073
EndChar

StartChar: obar
Encoding: 629 629 455
Width: 534
Flags: HMW
AnchorPoint: "above" 266 538 basechar 0
AnchorPoint: "below" 267 0 basechar 0
LayerCount: 2
Fore
SplineSet
266 539 m 0
 417 539 504 435 504 254 c 0
 504 82 414 -23 267 -23 c 0
 118 -23 30 82 30 258 c 0
 30 434 119 539 266 539 c 0
416 290 m 1
 406 399 352 462 267 462 c 0
 182 462 127 397 118 290 c 1
 416 290 l 1
415 220 m 1
 119 220 l 1
 129 116 184 54 267 54 c 0
 350 54 405 117 415 220 c 1
EndSplineSet
Validated: 3073
EndChar

StartChar: rlonglegturned
Encoding: 634 634 457
Width: 332
Flags: HMW
LayerCount: 2
Fore
SplineSet
20 73 m 1
 121 75 188 105 188 252 c 2
 188 729 l 1
 272 729 l 1
 272 0 l 1
 195 0 l 1
 195 95 l 1
 147 17 106 -15 52 -15 c 0
 41 -15 34 -14 20 -12 c 1
 20 73 l 1
EndSplineSet
Validated: 3073
EndChar

StartChar: rhookturned
Encoding: 635 635 458
Width: 380
Flags: HMW
LayerCount: 2
Fore
SplineSet
20 73 m 1
 121 75 188 105 188 252 c 2
 188 524 l 1
 272 524 l 1
 272 -76 l 2
 272 -128 289 -145 340 -145 c 0
 346.182 -145 354.273 -144.727 360 -144 c 1
 360 -215 l 1
 350 -217 345 -218 332 -218 c 0
 238 -218 195 -180 195 -109 c 2
 195 95 l 1
 147 17 106 -15 52 -15 c 0
 41 -15 34 -14 20 -12 c 1
 20 73 l 1
EndSplineSet
Validated: 3073
EndChar

StartChar: rlongleg
Encoding: 636 636 459
Width: 332
Flags: HMW
LayerCount: 2
Fore
SplineSet
312 451 m 1
 211 449 144 419 144 272 c 2
 144 -200 l 1
 60 -200 l 1
 60 524 l 1
 137 524 l 1
 137 429 l 1
 185 507 226 539 280 539 c 0
 291 539 298 538 312 536 c 1
 312 451 l 1
EndSplineSet
Validated: 3073
EndChar

StartChar: rhook
Encoding: 637 637 460
Width: 332
Flags: HMW
LayerCount: 2
Fore
SplineSet
312 451 m 1
 211 449 144 419 144 272 c 2
 144 -76 l 2
 144 -128 161 -145 212 -145 c 0
 215 -145 215 -145 232 -144 c 1
 232 -215 l 1
 222 -217 217 -218 204 -218 c 0
 110 -218 60 -180 60 -109 c 2
 60 524 l 1
 137 524 l 1
 137 429 l 1
 185 507 226 539 280 539 c 0
 291 539 298 538 312 536 c 1
 312 451 l 1
EndSplineSet
Validated: 3073
EndChar

StartChar: rfishhook
Encoding: 638 638 461
Width: 368
Flags: HMW
LayerCount: 2
Fore
SplineSet
144 0 m 1
 60 0 l 1
 60 430 l 2
 60 501 110 539 204 539 c 0
 298 539 348 501 348 430 c 2
 348 397 l 1
 264 397 l 1
 264 446 249 464 204 466 c 0
 159 464 144 446 144 397 c 2
 144 0 l 1
EndSplineSet
Validated: 3073
EndChar

StartChar: rfishhookrev
Encoding: 639 639 462
Width: 368
Flags: HMW
LayerCount: 2
Fore
SplineSet
224 -200 m 1
 224 397 l 2
 224 446 209 464 164 466 c 0
 119 464 104 446 104 397 c 1
 20 397 l 1
 20 430 l 2
 20 501 70 539 164 539 c 0
 258 539 308 501 308 430 c 2
 308 -200 l 1
 224 -200 l 1
EndSplineSet
Validated: 3073
EndChar

StartChar: shook
Encoding: 642 642 463
Width: 500
Flags: MW
LayerCount: 2
Fore
SplineSet
34 -107 m 2
 34 156 l 1
 122 156 l 1
 129 105 148 54 250 54 c 0
 323 54 372 87 372 136 c 0
 372 174 349 195 291 209 c 2
 213 228 l 2
 89 258 47 297 47 379 c 0
 47 476 126 539 248 539 c 0
 369 539 437 481 438 378 c 1
 350 378 l 1
 348 433 312 462 245 462 c 0
 177 462 134 431 134 383 c 0
 134 346 163 324 231 308 c 2
 311 289 l 2
 415 264 459 221 459 143 c 0
 459 42 375 -23 243 -23 c 0
 192 -23 150 -15 118 2 c 1
 118 -74 l 2
 118 -126 135 -143 186 -143 c 0
 189 -143 189 -143 206 -142 c 1
 206 -213 l 1
 196 -215 191 -216 178 -216 c 0
 84 -216 34 -178 34 -107 c 2
EndSplineSet
Validated: 3073
EndChar

StartChar: trthook
Encoding: 648 648 465
Width: 280
Flags: HMW
LayerCount: 2
Fore
SplineSet
260 524 m 1
 260 456 l 1
 174 456 l 1
 174 -98 l 2
 174 -135 184 -145 220 -145 c 0
 236 -145 249 -144 260 -141 c 1
 260 -211 l 1
 232 -216 212 -218 192 -218 c 0
 127 -218 91 -188 91 -135 c 2
 91 456 l 1
 20 456 l 1
 20 524 l 1
 91 524 l 1
 91 668 l 1
 174 668 l 1
 174 524 l 1
 260 524 l 1
EndSplineSet
Validated: 3073
EndChar

StartChar: ubar
Encoding: 649 649 466
Width: 596
Flags: HMW
LayerCount: 2
Fore
SplineSet
504 0 m 1
 429 0 l 1
 429 73 l 1
 380 4 331 -23 254 -23 c 0
 152 -23 87 33 87 120 c 2
 87 240 l 1
 14 240 l 1
 14 312 l 1
 87 312 l 1
 87 524 l 1
 170 524 l 1
 170 312 l 1
 421 312 l 1
 421 524 l 1
 504 524 l 1
 504 312 l 1
 582 312 l 1
 582 240 l 1
 504 240 l 1
 504 0 l 1
170 240 m 1
 170 153 l 2
 170 90 212 50 278 50 c 0
 365 50 421 120 421 227 c 2
 421 240 l 1
 170 240 l 1
EndSplineSet
Validated: 3073
EndChar

StartChar: zrthook
Encoding: 656 656 470
Width: 564
Flags: HMW
LayerCount: 2
Fore
SplineSet
372 -1 m 1
 30 -1 l 1
 30 74 l 1
 343 450 l 1
 51 450 l 1
 51 523 l 1
 442 523 l 1
 442 449 l 1
 131 72 l 1
 456 72 l 1
 456 -75 l 2
 456 -127 473 -144 524 -144 c 0
 527 -144 527 -144 544 -143 c 1
 544 -214 l 1
 534 -216 529 -217 516 -217 c 0
 422 -217 372 -179 372 -108 c 2
 372 -1 l 1
EndSplineSet
Validated: 3073
EndChar

StartChar: qhook
Encoding: 672 672 473
Width: 606
Flags: HMW
LayerCount: 2
Fore
SplineSet
270 461 m 0
 178 461 117 379 117 258 c 0
 117 136 178 55 270 55 c 0
 358 55 416 135 416 255 c 0
 416 381 359 461 270 461 c 0
422 458 m 1
 422 531 l 2
 422 606 462 650 539 650 c 0
 556 650 567 649 586 645 c 1
 586 576 l 1
 567 577 564 577 557 577 c 0
 519 577 499 564 499 524 c 2
 499 -218 l 1
 416 -218 l 1
 416 60 l 1
 377 3 327 -23 254 -23 c 0
 116 -23 30 82 30 252 c 0
 30 426 120 539 258 539 c 0
 325 539 383 510 422 458 c 1
EndSplineSet
Validated: 3073
EndChar

StartChar: breve
Encoding: 728 728 474
Width: 333
Flags: MW
LayerCount: 2
Fore
SplineSet
15 732 m 1
 74 732 l 1
 79 688 109 666 166 666 c 0
 220 666 253 690 257 732 c 1
 316 732 l 1
 309 643 257 597 164 597 c 0
 103 597 18 621 15 732 c 1
EndSplineSet
Validated: 3073
EndChar

StartChar: dotaccent
Encoding: 729 729 475
Width: 333
Flags: MW
LayerCount: 2
Fore
SplineSet
219 716 m 1
 219 612 l 1
 115 612 l 1
 115 716 l 1
 219 716 l 1
EndSplineSet
Validated: 3073
EndChar

StartChar: ring
Encoding: 730 730 476
Width: 333
Flags: HMW
LayerCount: 2
Fore
SplineSet
167 771.5 m 0
 225.8 771.5 272.6 724.7 272.6 665.9 c 0
 272.6 608.3 224.6 561.5 167 561.5 c 0
 109.4 561.5 61.4004 609.5 61.4004 667.1 c 0
 61.4004 723.5 109.4 771.5 167 771.5 c 0
167 710 m 0
 143 710 123 690 123 667 c 0
 123 643 143 623 167 623 c 0
 191 623 211 643 211 666 c 0
 211 691 192 710 167 710 c 0
EndSplineSet
Validated: 3073
EndChar

StartChar: ogonek
Encoding: 731 731 477
Width: 333
Flags: MW
LayerCount: 2
Fore
SplineSet
189 -205 m 0
 116 -205 57 -169 57 -111 c 0
 57 -63 93 -22 154 0 c 1
 224 0 l 1
 151 -41 130 -64 130 -106 c 0
 130 -141 155 -160 202 -160 c 0
 226 -160 247 -157 265 -150 c 1
 265 -195 l 1
 241 -200 208 -205 189 -205 c 0
EndSplineSet
Validated: 3073
EndChar

StartChar: tilde
Encoding: 732 732 478
Width: 333
Flags: MW
LayerCount: 2
Fore
SplineSet
91 717 m 0
 140 717 183 680 224 680 c 0
 242 680 253 692 261 717 c 1
 319 717 l 1
 309 648 279 613 230 613 c 0
 193 613 125 651 96 651 c 0
 81 651 69 637 63 614 c 1
 5 614 l 1
 16 680 47 717 91 717 c 0
EndSplineSet
Validated: 3073
EndChar

StartChar: hungarumlaut
Encoding: 733 733 479
Width: 333
Flags: HMW
LayerCount: 2
Fore
SplineSet
51 740 m 1
 164 740 l 1
 60 590 l 1
 0 590 l 1
 51 740 l 1
220 740 m 1
 333 740 l 1
 204 590 l 1
 144 590 l 1
 220 740 l 1
EndSplineSet
Validated: 3073
EndChar

StartChar: gravedblnosp
Encoding: 783 783 491
Width: 0
Flags: HMW
AnchorPoint: "abovecyr" -205 540 mark 0
AnchorPoint: "above" -198 538 mark 0
LayerCount: 2
Fore
SplineSet
-132 740 m 1
 -81 590 l 1
 -141 590 l 1
 -245 740 l 1
 -132 740 l 1
-301 740 m 1
 -225 590 l 1
 -285 590 l 1
 -414 740 l 1
 -301 740 l 1
EndSplineSet
Validated: 3073
EndChar

StartChar: commaabovecmb
Encoding: 787 787 494
Width: 0
Flags: HMW
AnchorPoint: "above" -165 535 mark 0
LayerCount: 2
Fore
SplineSet
-206 740 m 1
 -118 740 l 1
 -118 667 l 2
 -118 610 -151 577 -206 577 c 1
 -206 619 l 1
 -172 619 -161 631 -161 666 c 1
 -206 666 l 1
 -206 740 l 1
EndSplineSet
Validated: 3073
EndChar

StartChar: commareversedabovecmb
Encoding: 788 788 495
Width: 0
Flags: HMW
AnchorPoint: "above" -168 535 mark 0
LayerCount: 2
Fore
SplineSet
-124 740 m 1
 -124 666 l 1
 -169 666 l 1
 -169 631 -158 619 -124 619 c 1
 -124 577 l 1
 -179 577 -212 610 -212 667 c 2
 -212 740 l 1
 -124 740 l 1
EndSplineSet
Validated: 3073
EndChar

StartChar: uni0375
Encoding: 885 885 497
Width: 199
Flags: MW
LayerCount: 2
Fore
SplineSet
22 -130 m 1
 128 6 l 1
 139 -58 l 1
 73 -194 l 1
 22 -130 l 1
EndSplineSet
Validated: 3073
EndChar

StartChar: ypogegrammeni
Encoding: 890 890 498
Width: 332
Flags: MW
LayerCount: 2
Fore
SplineSet
229 -163 m 0
 258 -163 251 -158 258 -139 c 1
 283 -139 l 1
 283 -199 259 -200 201 -200 c 0
 148 -200 127 -172 127 -121 c 2
 127 -40 l 1
 203 -40 l 1
 203 -119 l 2
 203 -139 206 -163 229 -163 c 0
EndSplineSet
Validated: 3073
EndChar

StartChar: Gamma
Encoding: 915 915 508
Width: 594
Flags: HMW
LayerCount: 2
Fore
SplineSet
564 645 m 1
 176 645 l 1
 176 0 l 1
 80 0 l 1
 80 729 l 1
 564 729 l 1
 564 645 l 1
EndSplineSet
Validated: 3073
EndChar

StartChar: uni0394
Encoding: 916 916 509
Width: 699
Flags: HMW
LayerCount: 2
Fore
SplineSet
684 0 m 1
 14 0 l 1
 278 729 l 1
 394 729 l 1
 684 0 l 1
148 84 m 1
 546 84 l 1
 338 655 l 1
 148 84 l 1
EndSplineSet
Validated: 3073
EndChar

StartChar: Theta
Encoding: 920 920 513
Width: 784
Flags: HMW
LayerCount: 2
Fore
SplineSet
555 320 m 1
 219 320 l 1
 219 402 l 1
 555 402 l 1
 555 320 l 1
744 353 m 0
 744 143 610 -23 392 -23 c 0
 182 -23 40 131 40 359 c 0
 40 587 182 741 391 741 c 0
 605 741 744 588 744 353 c 0
391 659 m 0
 237 659 133 539 133 359 c 0
 133 179 237 59 392 59 c 0
 546 59 651 179 651 355 c 0
 651 539 549 659 391 659 c 0
EndSplineSet
Validated: 3073
EndChar

StartChar: Lambda
Encoding: 923 923 516
Width: 666
Flags: HMW
LayerCount: 2
Fore
SplineSet
114 0 m 1
 15 0 l 1
 275 729 l 1
 395 729 l 1
 651 0 l 1
 547 0 l 1
 334 629 l 1
 114 0 l 1
EndSplineSet
Validated: 3073
EndChar

StartChar: Xi
Encoding: 926 926 519
Width: 626
Flags: HMW
LayerCount: 2
Fore
SplineSet
586 0 m 1
 40 0 l 1
 40 83 l 1
 586 83 l 1
 586 0 l 1
578 646 m 1
 48 646 l 1
 48 729 l 1
 578 729 l 1
 578 646 l 1
521 332 m 1
 112 332 l 1
 112 415 l 1
 521 415 l 1
 521 332 l 1
EndSplineSet
Validated: 3073
EndChar

StartChar: Pi
Encoding: 928 928 521
Width: 720
Flags: MW
LayerCount: 2
Fore
SplineSet
640 0 m 1
 546 0 l 1
 546 647 l 1
 174 647 l 1
 174 0 l 1
 80 0 l 1
 80 729 l 1
 640 729 l 1
 640 0 l 1
EndSplineSet
Validated: 3073
EndChar

StartChar: Sigma
Encoding: 931 931 523
Width: 636
Flags: HMW
LayerCount: 2
Fore
SplineSet
606 0 m 1
 40 0 l 1
 40 85 l 1
 276 376 l 1
 74 647 l 1
 74 729 l 1
 586 729 l 1
 586 647 l 1
 190 647 l 1
 392 376 l 1
 150 81 l 1
 606 81 l 1
 606 0 l 1
EndSplineSet
Validated: 3073
EndChar

StartChar: Phi
Encoding: 934 934 526
Width: 739
Flags: HMW
LayerCount: 2
Fore
SplineSet
328 95 m 1
 169 95 40 198 40 369 c 0
 40 531 165 648 329 648 c 1
 329 729 l 1
 410 729 l 1
 410 648 l 1
 577 648 699 528 699 369 c 0
 699 200 570 95 411 95 c 1
 411 0 l 1
 328 0 l 1
 328 95 l 1
608 374 m 0
 608 492 521 565 411 576 c 1
 411 163 l 1
 525 175 608 254 608 374 c 0
328 163 m 1
 328 576 l 1
 217 565 131 491 131 374 c 0
 131 252 215 175 328 163 c 1
EndSplineSet
Validated: 3073
EndChar

StartChar: Psi
Encoding: 936 936 528
Width: 762
Flags: HMW
LayerCount: 2
Fore
SplineSet
462 171 m 2
 428 171 l 1
 428 0 l 1
 334 0 l 1
 334 171 l 1
 300 171 l 2
 132 171 60 251 60 376 c 2
 60 729 l 1
 150 709 l 1
 150 398 l 2
 150 289 198 252 312 252 c 2
 338 252 l 1
 338 709 l 1
 424 709 l 1
 424 252 l 1
 450 252 l 2
 563 252 612 288 612 398 c 2
 612 709 l 1
 702 729 l 1
 702 376 l 2
 702 225 598 171 462 171 c 2
EndSplineSet
Validated: 3073
EndChar

StartChar: Omega
Encoding: 937 937 529
Width: 757
Flags: HMW
LayerCount: 2
Fore
SplineSet
431 76 m 1
 480 96 626 206 626 393 c 0
 626 541 524 660 371 660 c 0
 220 660 127 530 127 390 c 0
 127 257 207 122 309 76 c 1
 309 0 l 1
 45 0 l 1
 45 72 l 1
 209 72 l 1
 104 134 40 256 40 391 c 0
 40 570 175 733 369 733 c 0
 578 733 717 583 717 395 c 0
 717 252 638 129 529 72 c 1
 705 72 l 1
 705 0 l 1
 431 0 l 1
 431 76 l 1
EndSplineSet
Validated: 3073
EndChar

StartChar: alpha
Encoding: 945 945 537
Width: 578
Flags: HMW
LayerCount: 2
Fore
SplineSet
30 262 m 0
 30 362 76 531 258 531 c 0
 338.746 529.909 398.802 500.396 428 442 c 1
 428 524 l 1
 500 524 l 1
 500 99 l 2
 500 81 507 68 521 68 c 0
 528 68 536 71 544 77 c 1
 565 8 l 1
 536 -6 510 -13 485 -13 c 0
 444 -13 420 11 420 46 c 2
 420 65 l 1
 402 20 345 -12 258 -12 c 0
 109 -12 30 79 30 262 c 0
406 266 m 0
 406 366 349 454 258 454 c 0
 154 454 114 372 114 258 c 0
 114 148 152 66 256 66 c 0
 352 66 406 135 406 266 c 0
EndSplineSet
Validated: 3073
EndChar

StartChar: beta
Encoding: 946 946 538
Width: 544
Flags: HMW
LayerCount: 2
Fore
SplineSet
60 490 m 2
 60 626 98 732 260 732 c 0
 388 732 460 661 460 544 c 0
 460 464 421 411 356 388 c 1
 452 370 514 312 514 200 c 0
 514 75 436 -14 308 -14 c 0
 228 -14 189 5 146 52 c 1
 146 -198 l 1
 60 -198 l 1
 60 490 l 2
388 546 m 0
 388 614 342 660 273 660 c 0
 176.444 660 146 609.116 146 486 c 2
 146 144 l 1
 166 89 210 60 290 60 c 0
 377 60 424 112 424 202 c 0
 424 272 392 338 262 338 c 2
 212 338 l 1
 212 412 l 1
 254 412 l 2
 340 412 388 466 388 546 c 0
EndSplineSet
Validated: 3073
EndChar

StartChar: gamma
Encoding: 947 947 539
Width: 518
Flags: HMW
LayerCount: 2
Fore
SplineSet
508 524 m 1
 320 38 l 1
 320 -198 l 1
 234 -198 l 1
 234 38 l 1
 67 446 l 2
 63 456 53 460 42 460 c 0
 33 460 25 458 16 454 c 1
 10 524 l 1
 10 529 46 536 52 536 c 0
 115 536 131 517 158 446 c 2
 276 142 l 1
 420 524 l 1
 508 524 l 1
EndSplineSet
Validated: 3073
EndChar

StartChar: delta
Encoding: 948 948 540
Width: 552
Flags: HMW
LayerCount: 2
Fore
SplineSet
30 242 m 0
 30 396 116 499 243 499 c 0
 259 499 265 497 277 495 c 1
 66 657 l 1
 66 729 l 1
 464 729 l 1
 464 657 l 1
 195 657 l 1
 370 519 l 2
 419.792 479.736 522 404 522 250 c 0
 522 38 372 -16 268 -16 c 0
 170 -16 30 36 30 242 c 0
274 432 m 0
 178 432 123 351 120 250 c 0
 120 125 180 66 268 66 c 0
 374 66 434 136.467 434 252 c 0
 434 357 381 432 274 432 c 0
EndSplineSet
Validated: 3073
EndChar

StartChar: epsilon
Encoding: 949 949 541
Width: 497
Flags: HMW
LayerCount: 2
Fore
SplineSet
467 136 m 1
 452 26 375 -10 244 -10 c 0
 122 -10 30 24 30 136 c 0
 30 209 74 244 132 261 c 1
 73 278 30 312 30 386 c 0
 30 503 142.967 532 244 532 c 24
 347.951 532 451.439 498.04 467 386 c 1
 391 386 l 1
 384 442 310 462 241 462 c 0
 172 462 112 443 112 377 c 0
 112 312 159 290 240 290 c 2
 286 290 l 1
 286 231 l 1
 240 231 l 2
 160 231 112 210 112 144 c 0
 112 81 173 60 241 60 c 0
 308 60 384 80 391 136 c 1
 467 136 l 1
EndSplineSet
Validated: 3073
EndChar

StartChar: zeta
Encoding: 950 950 542
Width: 447
Flags: HMW
LayerCount: 2
Fore
SplineSet
286 -4 m 0
 230 -4 30 30 30 220 c 0
 30 415 144 566 270 646 c 1
 46 646 l 1
 46 718 l 1
 402 718 l 1
 402 658 l 1
 270 583 122 427 122 236 c 0
 122 139 182 87 295 74 c 0
 373 68 432 53 432 -42 c 0
 432 -79 419 -130 394 -194 c 1
 318 -166 l 1
 341 -119 352 -85 352 -64 c 0
 352 -17 335 -4 286 -4 c 0
EndSplineSet
Validated: 3073
EndChar

StartChar: eta
Encoding: 951 951 543
Width: 549
Flags: HMW
LayerCount: 2
Fore
SplineSet
401 316 m 2
 401 401 380 454 293 454 c 0
 201 454 155 397 155 284 c 2
 155 0 l 1
 67 0 l 1
 67 414 l 2
 67 439 60 451 45 451 c 0
 41 451 36 450 29 448 c 1
 15 520 l 1
 34 527 54 531 76 531 c 0
 121 531 144 491 146 445 c 0
 147 430 l 1
 192 497 246 530 311 530 c 0
 420 530 482 475 488 371 c 0
 489 364 489 347 489 320 c 2
 489 -182 l 1
 401 -158 l 1
 401 316 l 2
EndSplineSet
Validated: 3073
EndChar

StartChar: theta
Encoding: 952 952 544
Width: 505
Flags: HMW
LayerCount: 2
Fore
SplineSet
475 360 m 0
 475 166 440 -12 253 -12 c 0
 62.7129 -12 30 163.011 30 360 c 0
 30 545 74 730 253 730 c 0
 431 730 475 544 475 360 c 0
253 658 m 0
 140 658 116 527 116 402 c 1
 391 402 l 1
 391 526.665 371.192 658 253 658 c 0
391 330 m 1
 116 330 l 1
 116 206 132 62 253 62 c 0
 374 62 391 202 391 330 c 1
EndSplineSet
Validated: 3073
EndChar

StartChar: iota
Encoding: 953 953 545
Width: 284
Flags: HMW
LayerCount: 2
Fore
SplineSet
148 136 m 2
 148 101 169 79 196 79 c 0
 207 79 225 85 244 94 c 1
 274 13 l 1
 243 -1 213 -8 184 -8 c 0
 104 -8 60 41 60 133 c 2
 60 524 l 1
 148 524 l 1
 148 136 l 2
EndSplineSet
Validated: 3073
EndChar

StartChar: kappa
Encoding: 954 954 546
Width: 500
Flags: MW
LayerCount: 2
Fore
SplineSet
490 0 m 1
 382 0 l 1
 210 266 l 1
 148 206 l 1
 148 0 l 1
 60 0 l 1
 60 524 l 1
 148 524 l 1
 148 314 l 1
 356 524 l 1
 470 524 l 1
 272 326 l 1
 490 0 l 1
EndSplineSet
Validated: 3073
EndChar

StartChar: lambda
Encoding: 955 955 547
Width: 546
Flags: HMW
LayerCount: 2
Fore
SplineSet
208 520 m 1
 180 600 166 644 100 644 c 0
 81 644 46 636 46 636 c 1
 56 718 l 1
 78 726 97 730 112 730 c 0
 223 730 253 619 288 528 c 2
 454 90 l 2
 459 78 469 71 482 71 c 0
 488 71 512 78 516 82 c 1
 536 12 l 1
 504 -4 477 -12 455 -12 c 0
 403 -12 389 23 374 66 c 2
 252 420 l 1
 106 0 l 1
 10 0 l 1
 208 520 l 1
EndSplineSet
Validated: 3073
EndChar

StartChar: uni03BC
Encoding: 956 956 548
Width: 540
Flags: HMW
LayerCount: 2
Fore
SplineSet
270 -12 m 0
 210 -12 180 9 148 52 c 1
 148 -200 l 1
 60 -200 l 1
 60 523 l 1
 148 523 l 1
 148 300 l 2
 148 219 152 168 160 145 c 0
 174 100 212 68 268 68 c 0
 332 68 371 118 377 137 c 0
 391 182 394 230 394 298 c 2
 394 523 l 1
 480 523 l 1
 480 0 l 1
 400 0 l 1
 400 62 l 1
 371 16 337 -12 270 -12 c 0
EndSplineSet
Validated: 3073
EndChar

StartChar: xi
Encoding: 958 958 550
Width: 485
Flags: HMW
LayerCount: 2
Fore
SplineSet
276 70 m 0
 415 70 455 52 455 -39 c 0
 455 -80 442 -131 416 -194 c 1
 342 -166 l 1
 368 -102 377 -70 377 -46 c 0
 377 -8 357 0 283 0 c 2
 264 0 l 2
 76 0 30 101 30 175 c 0
 30 336 159 370 198 376 c 1
 128 386 76 439 76 516 c 0
 76 576 112 627 152 648 c 1
 52 648 l 1
 52 718 l 1
 424 718 l 1
 424 648 l 1
 258 648 l 2
 200 648 152 577 152 516 c 0
 152 471 185 404 316 404 c 2
 398 404 l 1
 398 340 l 1
 288 340 l 2
 190 340 114 278 114 198 c 0
 114 114 191 70 276 70 c 0
EndSplineSet
Validated: 3073
EndChar

StartChar: omicron
Encoding: 959 959 551
Width: 544
Flags: HMW
LayerCount: 2
Fore
SplineSet
30 270 m 0
 30 482 169 532 270 532 c 0
 372 532 514 482 514 270 c 0
 514 86.21 410 -10 270 -10 c 0
 122 -10 30 84 30 270 c 0
270 64 m 0
 337 64 424 104 424 264 c 0
 424 421 332 460 270 460 c 0
 207 460 118 420 118 262 c 0
 118 104 203 64 270 64 c 0
EndSplineSet
Validated: 3073
EndChar

StartChar: pi
Encoding: 960 960 552
Width: 594
Flags: HMW
LayerCount: 2
Fore
SplineSet
538 64 m 0
 553 64 564 72 568 76 c 1
 584 14 l 1
 568 8 532 -4 510 -4 c 0
 454 -4 420 14 420 114 c 2
 420 454 l 1
 184 454 l 1
 184 0 l 1
 90 0 l 1
 90 454 l 1
 20 454 l 1
 20 524 l 1
 572 524 l 1
 572 454 l 1
 508 454 l 1
 508 116 l 2
 508 84 508 64 538 64 c 0
EndSplineSet
Validated: 3073
EndChar

StartChar: rho
Encoding: 961 961 553
Width: 574
Flags: HMW
LayerCount: 2
Fore
SplineSet
60 270 m 2
 60 482 199 532 300 532 c 0
 454 532 544 426 544 270 c 0
 544 86.21 440 -10 300 -10 c 0
 230 -10 181 17 148 61 c 1
 148 -200 l 1
 60 -200 l 1
 60 270 l 2
300 64 m 0
 367 64 454 104 454 264 c 0
 454 421 362 460 300 460 c 0
 237 460 148 420 148 262 c 0
 148 104 233 64 300 64 c 0
EndSplineSet
Validated: 3073
EndChar

StartChar: sigma1
Encoding: 962 962 554
Width: 539
Flags: HMW
LayerCount: 2
Fore
SplineSet
30 276 m 0
 30 433 132 536 286 536 c 0
 417 536 509 452 509 324 c 1
 418 324 l 1
 418 410 365 458 278 458 c 0
 217 458 126 421 126 274 c 0
 126 117 252 96 332 87 c 0
 416.321 77.5137 508 58 508 -28 c 0
 508 -69 477 -143 460 -182 c 1
 370 -150 l 1
 382 -126 411 -54 411 -34 c 0
 411 -7 336.009 -3.81836 296 -2 c 0
 167.152 3.85645 30 112.76 30 276 c 0
EndSplineSet
Validated: 3073
EndChar

StartChar: sigma
Encoding: 963 963 555
Width: 606
Flags: HMW
LayerCount: 2
Fore
SplineSet
30 260 m 0
 30 476 165 532 272 532 c 0
 291 532 308 529 322 526 c 1
 586 526 l 1
 586 444 l 1
 450 444 l 1
 493 389 514 328 514 260 c 0
 514 98 424 -12 272 -12 c 0
 115 -12 30 98 30 260 c 0
120 260 m 0
 120 103 205 62 272 62 c 0
 372 62 424 143 424 260 c 0
 424 366 380 458 272 458 c 0
 164 458 120 362 120 260 c 0
EndSplineSet
Validated: 3073
EndChar

StartChar: tau
Encoding: 964 964 556
Width: 492
Flags: HMW
LayerCount: 2
Fore
SplineSet
306 -12 m 0
 205 -12 184 34 184 136 c 2
 184 451 l 1
 20 451 l 1
 20 524 l 1
 472 524 l 1
 472 451 l 1
 272 451 l 1
 272 144 l 2
 272 90 276 72 322 72 c 0
 333 72 351 76 355 77 c 1
 374 -2 l 1
 360 -6 325 -12 306 -12 c 0
EndSplineSet
Validated: 3073
EndChar

StartChar: upsilon
Encoding: 965 965 557
Width: 558
Flags: HMW
LayerCount: 2
Fore
SplineSet
148 232 m 2
 148 109 164 62 280 62 c 0
 389.017 62 410 112.279 410 232 c 2
 410 524 l 1
 498 524 l 1
 498 198 l 2
 498 18 413 -14 282 -14 c 0
 93 -14 60 63 60 198 c 2
 60 524 l 1
 148 524 l 1
 148 232 l 2
EndSplineSet
Validated: 3073
EndChar

StartChar: phi
Encoding: 966 966 558
Width: 711
Flags: HMW
LayerCount: 2
Fore
SplineSet
295 -10 m 2
 129 -10 30 109 30 250 c 0
 30 376 103 469 190 514 c 1
 232 446 l 1
 169 406 114 338 114 254 c 0
 114 151 192 71 297 71 c 2
 317 71 l 1
 317 524 l 1
 405 524 l 2
 566 524 681 413 681 250 c 0
 681 107 588 -10 437 -10 c 2
 405 -10 l 1
 405 -200 l 1
 317 -200 l 1
 317 -10 l 1
 295 -10 l 2
597 251 m 0
 597 354 533 434 425 434 c 2
 405 434 l 1
 405 71 l 1
 429 71 l 2
 531 71 597 148 597 251 c 0
EndSplineSet
Validated: 3073
EndChar

StartChar: chi
Encoding: 967 967 559
Width: 569
Flags: HMW
LayerCount: 2
Fore
SplineSet
569 -200 m 1
 552 -208 535 -212 518 -212 c 2
 510 -212 l 2
 458 -212 417 -168 395 -123 c 0
 298 74 l 1
 114 -200 l 1
 10 -200 l 1
 244 160 l 1
 95 420 l 2
 81 446 73 458 37 458 c 1
 27 455 19 454 13 454 c 1
 13 532 l 1
 21 534 63 538 69 538 c 0
 120 538 147 516 167 478 c 0
 298 234 l 1
 455 524 l 1
 551 524 l 1
 352 160 l 1
 483 -91 l 2
 497 -122 515 -127 535 -127 c 0
 549 -127 559 -124 569 -121 c 1
 569 -200 l 1
EndSplineSet
Validated: 3073
EndChar

StartChar: psi
Encoding: 968 968 560
Width: 698
Flags: HMW
LayerCount: 2
Fore
SplineSet
638 214 m 2
 638 66 543 -2 392 -2 c 1
 392 -200 l 1
 306 -200 l 1
 306 -2 l 1
 157 -2 60 63 60 214 c 2
 60 524 l 1
 150 524 l 1
 150 242 l 2
 150 125 191 72 306 72 c 1
 306 506 l 1
 392 506 l 1
 392 72 l 1
 507 72 548 126 548 242 c 2
 548 524 l 1
 638 524 l 1
 638 214 l 2
EndSplineSet
Validated: 3073
EndChar

StartChar: omega
Encoding: 969 969 561
Width: 728
Flags: HMW
LayerCount: 2
Fore
SplineSet
406 153 m 2
 406 116 428 67 504 63 c 0
 589 63 614 150 614 235 c 0
 614 354 566 435 506 500 c 1
 586 526 l 1
 641 482 698 348 698 241 c 0
 698 43 587 -9 508 -9 c 0
 435 -9 392 28 364 81 c 1
 337 28 294 -9 220 -9 c 0
 88 -9 30 110 30 241 c 0
 30 302 65 465 142 526 c 1
 222 500 l 1
 159 437 114 343 114 235 c 0
 114 151 138 63 223 63 c 0
 306 67 322 122 322 153 c 2
 322 376 l 1
 406 376 l 1
 406 153 l 2
EndSplineSet
Validated: 3073
EndChar

StartChar: Djecyrillic
Encoding: 1026 1026 569
Width: 770
Flags: HMW
AnchorPoint: "abovecyr" 375 728 basechar 0
LayerCount: 2
Fore
SplineSet
555 454 m 2
 655 454 720 389 720 298 c 2
 720 0 l 2
 720 -125 622 -148 553 -148 c 2
 471 -148 l 1
 471 -82 l 1
 570 -82 l 2
 605 -82 627 -60 627 -16 c 2
 627 315 l 2
 627 350 605 372 561 372 c 2
 323 372 l 1
 323 0 l 1
 230 0 l 1
 229 649 l 1
 30 649 l 1
 30 729 l 1
 520 729 l 1
 520 649 l 1
 323 649 l 1
 323 454 l 1
 555 454 l 2
EndSplineSet
Validated: 3073
EndChar

StartChar: Ecyrillic
Encoding: 1028 1028 571
Width: 709
Flags: HMW
AnchorPoint: "abovecyr" 373 728 basechar 0
LayerCount: 2
Fore
SplineSet
559 503 m 1
 538 605 480 659 362 659 c 0
 236 659 152 567 136 414 c 1
 500 414 l 1
 500 332 l 1
 134 332 l 1
 142 164 232 59 370 59 c 0
 492 59 551 128 573 266 c 1
 669 266 l 1
 647 73 547 -23 369 -23 c 0
 106 -23 40 207 40 356 c 0
 40 508 107 741 373 741 c 0
 533 741 625 663 654 503 c 1
 559 503 l 1
EndSplineSet
Validated: 3073
EndChar

StartChar: Ljecyrillic
Encoding: 1033 1033 576
Width: 1009
Flags: HMW
AnchorPoint: "abovecyr" 396 728 basechar 0
LayerCount: 2
Fore
SplineSet
461 0 m 1
 460 647 l 1
 235 647 l 1
 235 610 236 524 236 524 c 2
 236 296 220 0 30 0 c 1
 30 94 l 1
 132 94 141 314 141 561 c 2
 141 729 l 1
 554 729 l 1
 554 415 l 1
 701 415 l 2
 876 415 969 324 969 210 c 0
 969 208 l 0
 968 82 883 0 754 0 c 2
 461 0 l 1
745 82 m 2
 850 82 876 156 876 207 c 0
 876 281 821 333 735 333 c 2
 554 333 l 1
 554 82 l 1
 745 82 l 2
EndSplineSet
Validated: 3073
EndChar

StartChar: Njecyrillic
Encoding: 1034 1034 577
Width: 1009
Flags: HMW
AnchorPoint: "abovecyr" 370 728 basechar 0
LayerCount: 2
Fore
SplineSet
478 0 m 1
 478 332 l 1
 174 332 l 1
 174 0 l 1
 80 0 l 1
 80 729 l 1
 173 729 l 1
 173 414 l 1
 478 414 l 1
 478 729 l 1
 571 729 l 1
 571 415 l 1
 711 415 l 2
 883 415 968 322 969 208 c 0
 969 206 l 0
 969 83 882 0 754 0 c 2
 478 0 l 1
745 82 m 2
 850 82 876 156 876 207 c 0
 876 281 821 333 735 333 c 2
 571 333 l 1
 571 82 l 1
 745 82 l 2
EndSplineSet
Validated: 3073
EndChar

StartChar: Tshecyrillic
Encoding: 1035 1035 578
Width: 770
Flags: HMW
LayerCount: 2
Fore
SplineSet
555 454 m 2
 655 454 720 389 720 298 c 2
 720 0 l 1
 627 0 l 1
 627 315 l 2
 627 350 605 372 561 372 c 2
 323 372 l 1
 323 0 l 1
 230 0 l 1
 229 649 l 1
 30 649 l 1
 30 729 l 1
 520 729 l 1
 520 649 l 1
 323 649 l 1
 323 454 l 1
 555 454 l 2
EndSplineSet
Validated: 3073
EndChar

StartChar: Dzhecyrillic
Encoding: 1039 1039 582
Width: 722
Flags: HMW
AnchorPoint: "abovecyr" 370 728 basechar 0
LayerCount: 2
Fore
SplineSet
401 0 m 1
 401 -135 l 1
 321 -135 l 1
 321 0 l 1
 80 0 l 1
 80 729 l 1
 174 729 l 1
 174 82 l 1
 548 82 l 1
 548 729 l 1
 642 729 l 1
 642 0 l 1
 401 0 l 1
EndSplineSet
Validated: 3073
EndChar

StartChar: Becyrillic
Encoding: 1041 1041 584
Width: 664
Flags: HMW
AnchorPoint: "abovecyr" 340 728 basechar 0
LayerCount: 2
Fore
SplineSet
624 218 m 2
 624 132 581 0 409 0 c 2
 80 0 l 1
 80 729 l 1
 569 729 l 1
 569 647 l 1
 173 647 l 1
 173 435 l 1
 353 435 l 2
 546 435 624 351 624 220 c 0
 624 218 l 2
531 217 m 0
 531 270 511 353 400 353 c 2
 173 353 l 1
 173 82 l 1
 400 82 l 2
 511 82 531 165 531 217 c 0
EndSplineSet
Validated: 3073
EndChar

StartChar: Gecyrillic
Encoding: 1043 1043 586
Width: 599
Flags: HMW
AnchorPoint: "abovecyr" 323 728 basechar 0
LayerCount: 2
Fore
SplineSet
173 0 m 1
 80 0 l 1
 80 729 l 1
 569 729 l 1
 569 647 l 1
 173 647 l 1
 173 0 l 1
EndSplineSet
Validated: 3073
EndChar

StartChar: Decyrillic
Encoding: 1044 1044 587
Width: 812
Flags: HMW
AnchorPoint: "abovecyr" 454 728 basechar 0
LayerCount: 2
Fore
SplineSet
262 82 m 1
 593 82 l 1
 593 647 l 1
 331 647 l 1
 331 602 332 549 332 493 c 0
 332 345 324 179 262 82 c 1
126 74 m 1
 228 121 237 325 237 564 c 0
 237 618 237 673 237 729 c 1
 687 729 l 1
 687 74 l 1
 778 74 l 1
 778 -135 l 1
 698 -135 l 1
 698 0 l 1
 114 0 l 1
 114 -135 l 1
 34 -135 l 1
 34 74 l 1
 126 74 l 1
EndSplineSet
Validated: 3073
EndChar

StartChar: Zhecyrillic
Encoding: 1046 1046 589
Width: 915
Flags: HMW
AnchorPoint: "abovecyr" 451 728 basechar 0
LayerCount: 2
Fore
SplineSet
411 324 m 1
 125 0 l 1
 15 0 l 1
 340 375 l 1
 57 729 l 1
 173 729 l 1
 411 421 l 1
 411 729 l 1
 504 729 l 1
 504 421 l 1
 742 729 l 1
 858 729 l 1
 575 375 l 1
 900 0 l 1
 782 0 l 1
 504 324 l 1
 504 0 l 1
 411 0 l 1
 411 324 l 1
EndSplineSet
Validated: 3073
EndChar

StartChar: Zecyrillic
Encoding: 1047 1047 590
Width: 653
Flags: HMW
AnchorPoint: "abovecyr" 331 728 basechar 0
LayerCount: 2
Fore
SplineSet
334 59 m 0
 492 59 520 139 520 191 c 0
 520 248 452 321 357 321 c 2
 249 321 l 1
 249 403 l 1
 337 403 l 2
 426 403 495 484 495 540 c 0
 495 614 430 663 332 663 c 0
 216 663 151 610 150 515 c 1
 62 515 l 1
 63 658 161 741 329 741 c 0
 489 741 588 659 588 527 c 0
 588 452 551 403 483 374 c 1
 566 343 613 282 613 200 c 0
 613 111 556 -23 328 -23 c 0
 202 -23 43 25 40 232 c 1
 128 232 l 1
 128 230 128 229 128 227 c 0
 128 153 169 59 334 59 c 0
EndSplineSet
Validated: 3073
EndChar

StartChar: Iicyrillic
Encoding: 1048 1048 591
Width: 730
Flags: HMW
AnchorPoint: "abovecyr" 383 728 basechar 0
LayerCount: 2
Fore
SplineSet
80 729 m 1
 168 729 l 1
 168 126 l 1
 549 729 l 1
 650 729 l 1
 650 0 l 1
 562 0 l 1
 562 598 l 1
 185 0 l 1
 80 0 l 1
 80 729 l 1
EndSplineSet
Validated: 3073
EndChar

StartChar: Kacyrillic
Encoding: 1050 1050 593
Width: 637
Flags: HMW
AnchorPoint: "abovecyr" 323 728 basechar 0
LayerCount: 2
Fore
SplineSet
173 0 m 1
 80 0 l 1
 80 729 l 1
 173 729 l 1
 173 423 l 1
 478 729 l 1
 589 729 l 1
 244 384 l 1
 622 0 l 1
 498 0 l 1
 173 333 l 1
 173 0 l 1
EndSplineSet
Validated: 3073
EndChar

StartChar: Elcyrillic
Encoding: 1051 1051 594
Width: 671
Flags: HMW
AnchorPoint: "abovecyr" 367 728 basechar 0
LayerCount: 2
Fore
SplineSet
497 647 m 1
 235 647 l 1
 235 610 236 568 236 524 c 0
 236 293 220 -10 30 -10 c 1
 30 84 l 1
 132 84 141 311 141 560 c 0
 141 616 141 673 141 729 c 1
 591 729 l 1
 591 0 l 1
 497 0 l 1
 497 647 l 1
EndSplineSet
Validated: 3073
EndChar

StartChar: Pecyrillic
Encoding: 1055 1055 598
Width: 721
Flags: HMW
AnchorPoint: "abovecyr" 352 728 basechar 0
LayerCount: 2
Fore
SplineSet
547 647 m 1
 174 647 l 1
 174 0 l 1
 80 0 l 1
 80 729 l 1
 641 729 l 1
 641 0 l 1
 547 0 l 1
 547 647 l 1
EndSplineSet
Validated: 3073
EndChar

StartChar: Ucyrillic
Encoding: 1059 1059 602
Width: 623
Flags: HMW
AnchorPoint: "abovecyr" 315 728 basechar 0
LayerCount: 2
Fore
SplineSet
241 0 m 1
 128 0 l 1
 257 244 l 1
 15 729 l 1
 128 729 l 1
 313 350 l 1
 497 729 l 1
 608 729 l 1
 241 0 l 1
EndSplineSet
Validated: 3073
EndChar

StartChar: Efcyrillic
Encoding: 1060 1060 603
Width: 845
Flags: HMW
AnchorPoint: "abovecyr" 419 728 basechar 0
LayerCount: 2
Fore
SplineSet
470 636 m 1
 473 636 476 636 480 636 c 0
 576 636 805 619 805 365 c 0
 805 102 581 94 470 94 c 1
 470 0 l 1
 375 0 l 1
 375 94 l 1
 264 94 40 102 40 365 c 0
 40 619 269 636 365 636 c 0
 369 636 372 636 375 636 c 1
 375 729 l 1
 470 729 l 1
 470 636 l 1
470 176 m 1
 527 176 705 190 705 365 c 0
 705 540 527 554 470 554 c 1
 470 176 l 1
375 176 m 1
 375 554 l 1
 318 554 140 540 140 365 c 0
 140 190 318 176 375 176 c 1
EndSplineSet
Validated: 3073
EndChar

StartChar: Tsecyrillic
Encoding: 1062 1062 605
Width: 742
Flags: HMW
AnchorPoint: "abovecyr" 340 728 basechar 0
LayerCount: 2
Fore
SplineSet
547 82 m 1
 547 729 l 1
 641 729 l 1
 641 74 l 1
 708 74 l 1
 708 -135 l 1
 628 -135 l 1
 628 0 l 1
 80 0 l 1
 80 729 l 1
 174 729 l 1
 174 82 l 1
 547 82 l 1
EndSplineSet
Validated: 3073
EndChar

StartChar: Checyrillic
Encoding: 1063 1063 606
Width: 620
Flags: HMW
AnchorPoint: "abovecyr" 310 728 basechar 0
LayerCount: 2
Fore
SplineSet
447 275 m 1
 215 275 l 2
 107 275 50 351 50 432 c 2
 50 729 l 1
 143 729 l 1
 143 414 l 2
 143 373 177 357 219 357 c 2
 447 357 l 1
 447 729 l 1
 540 729 l 1
 540 0 l 1
 447 0 l 1
 447 275 l 1
EndSplineSet
Validated: 3073
EndChar

StartChar: Shacyrillic
Encoding: 1064 1064 607
Width: 830
Flags: HMW
AnchorPoint: "abovecyr" 415 728 basechar 0
LayerCount: 2
Fore
SplineSet
462 82 m 1
 656 82 l 1
 656 729 l 1
 750 729 l 1
 750 0 l 1
 80 0 l 1
 80 729 l 1
 174 729 l 1
 174 82 l 1
 368 82 l 1
 368 729 l 1
 462 729 l 1
 462 82 l 1
EndSplineSet
Validated: 3073
EndChar

StartChar: Shchacyrillic
Encoding: 1065 1065 608
Width: 851
Flags: HMW
AnchorPoint: "abovecyr" 409 728 basechar 0
LayerCount: 2
Fore
SplineSet
737 0 m 1
 80 0 l 1
 80 729 l 1
 174 729 l 1
 174 82 l 1
 368 82 l 1
 368 729 l 1
 462 729 l 1
 462 82 l 1
 656 82 l 1
 656 729 l 1
 750 729 l 1
 750 74 l 1
 817 74 l 1
 817 -135 l 1
 737 -135 l 1
 737 0 l 1
EndSplineSet
Validated: 3073
EndChar

StartChar: Hardsigncyrillic
Encoding: 1066 1066 609
Width: 845
Flags: HMW
AnchorPoint: "abovecyr" 476 728 basechar 0
LayerCount: 2
Fore
SplineSet
261 0 m 1
 261 647 l 1
 30 647 l 1
 30 729 l 1
 354 729 l 1
 354 451 l 1
 519 451 l 2
 730 451 805 355 805 229 c 0
 805 226 l 0
 805 93 707 0 575 0 c 2
 261 0 l 1
354 82 m 1
 566 82 l 2
 652 82 712 144 712 225 c 0
 712 310 653 369 566 369 c 2
 354 369 l 1
 354 82 l 1
EndSplineSet
Validated: 3073
EndChar

StartChar: Yericyrillic
Encoding: 1067 1067 610
Width: 879
Flags: HMW
AnchorPoint: "abovecyr" 443 728 basechar 0
LayerCount: 2
Fore
SplineSet
394 0 m 2
 80 0 l 1
 80 729 l 1
 173 729 l 1
 173 451 l 1
 338 451 l 2
 549 451 624 355 624 229 c 0
 624 93.9192 527.84 0 394 0 c 2
173 82 m 1
 385 82 l 2
 471 82 531 144 531 225 c 0
 531 310 472 369 385 369 c 2
 173 369 l 1
 173 82 l 1
794 729 m 1
 794 0 l 1
 700 0 l 1
 700 729 l 1
 794 729 l 1
EndSplineSet
Validated: 3073
EndChar

StartChar: Softsigncyrillic
Encoding: 1068 1068 611
Width: 664
Flags: HMW
AnchorPoint: "abovecyr" 366 728 basechar 0
LayerCount: 2
Fore
SplineSet
624 226 m 0
 624 93 526 0 394 0 c 2
 80 0 l 1
 80 729 l 1
 173 729 l 1
 173 451 l 1
 338 451 l 2
 549 451 624 355 624 229 c 0
 624 226 l 0
173 82 m 1
 385 82 l 2
 471 82 531 144 531 225 c 0
 531 310 472 369 385 369 c 2
 173 369 l 1
 173 82 l 1
EndSplineSet
Validated: 3073
EndChar

StartChar: Ereversedcyrillic
Encoding: 1069 1069 612
Width: 709
Flags: HMW
AnchorPoint: "abovecyr" 343 728 basechar 0
LayerCount: 2
Fore
SplineSet
136 266 m 1
 158 128 216 59 339 59 c 0
 477 59 567 164 576 332 c 1
 209 332 l 1
 209 414 l 1
 573 414 l 1
 557 567 473 659 347 659 c 0
 228 659 171 605 150 503 c 1
 55 503 l 1
 84 663 176 741 336 741 c 0
 602 741 669 508 669 356 c 0
 669 207 603 -23 340 -23 c 0
 162 -23 62 73 40 266 c 1
 136 266 l 1
EndSplineSet
Validated: 3073
EndChar

StartChar: IUcyrillic
Encoding: 1070 1070 613
Width: 995
Flags: HMW
AnchorPoint: "abovecyr" 361 728 basechar 0
LayerCount: 2
Fore
SplineSet
955 353 m 0
 955 145 817 -23 626 -23 c 0
 424 -23 302 119 292 332 c 1
 174 332 l 1
 174 0 l 1
 80 0 l 1
 80 729 l 1
 173 729 l 1
 173 414 l 1
 294 414 l 1
 315 611 430 741 622 741 c 0
 836 741 955 588 955 353 c 0
622 659 m 0
 468 659 384 539 384 359 c 0
 384 179 468 59 623 59 c 0
 777 59 862 179 862 355 c 0
 862 539 780 659 622 659 c 0
EndSplineSet
Validated: 3073
EndChar

StartChar: IAcyrillic
Encoding: 1071 1071 614
Width: 686
Flags: HMW
AnchorPoint: "abovecyr" 373 728 basechar 0
LayerCount: 2
Fore
SplineSet
62 521 m 0
 62 646 148 729 277 729 c 2
 606 729 l 1
 606 0 l 1
 513 0 l 1
 513 314 l 1
 402 314 l 1
 125 0 l 1
 15 0 l 1
 288 314 l 1
 147 314 77 401 62 521 c 0
155 521 m 0
 155 469 181 396 286 396 c 2
 513 396 l 1
 513 647 l 1
 286 647 l 2
 181 647 155 573 155 521 c 0
EndSplineSet
Validated: 3073
EndChar

StartChar: becyrillic
Encoding: 1073 1073 616
Width: 534
Flags: HMW
AnchorPoint: "abovecyr" 271 752 basechar 0
LayerCount: 2
Fore
SplineSet
111 469 m 1
 149 530 224 539 266 539 c 0
 417 539 504 435 504 254 c 0
 504 82 414 -23 267 -23 c 0
 118 -23 30 82 30 258 c 0
 30 442 62 658 201 690 c 0
 270 705 390 707 390 775 c 1
 464 775 l 1
 464 640 407 656 218 611 c 0
 165 598 123 541 111 469 c 1
267 462 m 0
 174 462 117 384 117 258 c 0
 117 131 174 54 267 54 c 0
 359 54 417 132 417 255 c 0
 417 385 361 462 267 462 c 0
EndSplineSet
Validated: 3073
Substitution2: "'locl' Localized Forms for Serbian-Macedonian-1" cyrillic_serb_be
EndChar

StartChar: vecyrillic
Encoding: 1074 1074 617
Width: 488
UnlinkRmOvrlpSave: 1
Flags: HMW
AnchorPoint: "abovecyr" 234 545 basechar 0
LayerCount: 2
Fore
SplineSet
279 524 m 2
 401 524 431 448 431 392 c 0
 431 338 407.5 295.6 362 277 c 1
 424.5 252.6 458 216.6 458 150 c 0
 458 65 399 0 303 0 c 2
 60 0 l 1
 60 524 l 1
 279 524 l 2
143.5 230.6 m 1
 143.5 75.5996 l 1
 283.5 75.5996 l 2
 335.5 75.5996 367.5 105 367.5 155.5 c 0
 367.5 199.5 336 230.599 283.5 230.6 c 2
 143.5 230.6 l 1
347 376 m 0
 347 405 331 449 242 449 c 2
 144 449 l 1
 144 307 l 1
 242 307 l 2
 331 307 347 348 347 376 c 0
EndSplineSet
Validated: 3073
EndChar

StartChar: gecyrillic
Encoding: 1075 1075 618
Width: 390
Flags: HMW
AnchorPoint: "abovecyr" 222 545 basechar 0
LayerCount: 2
Fore
SplineSet
60 524 m 1
 370 524 l 1
 370 448 l 1
 144 448 l 1
 144 0 l 1
 60 0 l 1
 60 524 l 1
EndSplineSet
Validated: 3073
EndChar

StartChar: decyrillic
Encoding: 1076 1076 619
Width: 582
Flags: HMW
AnchorPoint: "abovecyr" 327 545 basechar 0
LayerCount: 2
Fore
SplineSet
77 64 m 1
 147 71 159 292 159 524 c 1
 498 524 l 1
 498 64 l 1
 562 64 l 1
 562 -120 l 1
 492 -120 l 1
 492 0 l 1
 90 0 l 1
 90 -120 l 1
 20 -120 l 1
 20 64 l 1
 77 64 l 1
193 76 m 1
 414 76 l 1
 414 448 l 1
 242 448 l 1
 242 389 l 2
 242 286 237 156 193 76 c 1
EndSplineSet
Validated: 3073
EndChar

StartChar: zhecyrillic
Encoding: 1078 1078 621
Width: 765
Flags: HMW
AnchorPoint: "abovecyr" 385 545 basechar 0
LayerCount: 2
Fore
SplineSet
424 524 m 1
 424 323 l 1
 616 524 l 1
 723 524 l 1
 481 274 l 1
 755 0 l 1
 649 0 l 1
 424 226 l 1
 424 0 l 1
 341 0 l 1
 341 226 l 1
 116 0 l 1
 10 0 l 1
 284 274 l 1
 42 524 l 1
 149 524 l 1
 341 323 l 1
 341 524 l 1
 424 524 l 1
EndSplineSet
Validated: 3073
EndChar

StartChar: zecyrillic
Encoding: 1079 1079 622
Width: 485
Flags: HMW
AnchorPoint: "abovecyr" 237 545 basechar 0
LayerCount: 2
Fore
SplineSet
118 156 m 1
 125 105 144 54 246 54 c 0
 319 54 364 87 364 136 c 0
 364 174 322 221 262 221 c 2
 188 221 l 1
 188 297 l 1
 250 297 l 2
 320 297 347 346 347 383 c 0
 347 431 304 462 236 462 c 0
 169 462 133 433 131 378 c 1
 43 378 l 1
 44 481 112 539 233 539 c 0
 355 539 434 476 434 379 c 0
 434 326 415 293 369 267 c 1
 428 241 455 203 455 143 c 0
 455 42 371 -23 239 -23 c 0
 102 -23 34 35 30 156 c 1
 118 156 l 1
EndSplineSet
Validated: 3073
EndChar

StartChar: iicyrillic
Encoding: 1080 1080 623
Width: 547
Flags: HMW
AnchorPoint: "abovecyr" 268 545 basechar 0
LayerCount: 2
Fore
SplineSet
60 524 m 1
 144 524 l 1
 144 111 l 1
 379 524 l 1
 487 524 l 1
 487 0 l 1
 404 0 l 1
 404 413 l 1
 169 0 l 1
 60 0 l 1
 60 524 l 1
EndSplineSet
Validated: 3073
EndChar

StartChar: kacyrillic
Encoding: 1082 1082 625
Width: 484
Flags: HMW
AnchorPoint: "abovecyr" 242 545 basechar 0
LayerCount: 2
Fore
SplineSet
143 524 m 1
 143 312 l 1
 355 524 l 1
 451 524 l 1
 200 274 l 1
 474 0 l 1
 368 0 l 1
 143 226 l 1
 143 0 l 1
 60 0 l 1
 60 524 l 1
 143 524 l 1
EndSplineSet
Validated: 3073
EndChar

StartChar: elcyrillic
Encoding: 1083 1083 626
Width: 497
Flags: HMW
AnchorPoint: "abovecyr" 271 545 basechar 0
LayerCount: 2
Fore
SplineSet
98 524 m 1
 437 524 l 1
 437 0 l 1
 353 0 l 1
 353 448 l 1
 181 448 l 1
 181 350 l 2
 181 202 170 -10 20 -10 c 1
 20 70 l 1
 96 70 98 242 98 441 c 2
 98 524 l 1
EndSplineSet
Validated: 3073
EndChar

StartChar: emcyrillic
Encoding: 1084 1084 627
Width: 598
Flags: HMW
AnchorPoint: "abovecyr" 311 545 basechar 0
LayerCount: 2
Fore
SplineSet
60 524 m 1
 164 524 l 1
 299 198 l 1
 434 524 l 1
 538 524 l 1
 538 0 l 1
 454 0 l 1
 454 363 l 1
 324 40 l 1
 274 40 l 1
 144 363 l 1
 144 0 l 1
 60 0 l 1
 60 524 l 1
EndSplineSet
Validated: 3073
EndChar

StartChar: encyrillic
Encoding: 1085 1085 628
Width: 538
Flags: HMW
AnchorPoint: "abovecyr" 269 545 basechar 0
LayerCount: 2
Fore
SplineSet
60 524 m 1
 144 524 l 1
 144 309 l 1
 394 309 l 1
 394 524 l 1
 478 524 l 1
 478 0 l 1
 394 0 l 1
 394 233 l 1
 144 233 l 1
 144 0 l 1
 60 0 l 1
 60 524 l 1
EndSplineSet
Validated: 3073
EndChar

StartChar: pecyrillic
Encoding: 1087 1087 630
Width: 537
Flags: HMW
AnchorPoint: "abovecyr" 267 545 basechar 0
LayerCount: 2
Fore
SplineSet
60 524 m 1
 477 524 l 1
 477 0 l 1
 393 0 l 1
 393 448 l 1
 144 448 l 1
 144 0 l 1
 60 0 l 1
 60 524 l 1
EndSplineSet
Validated: 3073
EndChar

StartChar: tecyrillic
Encoding: 1090 1090 633
Width: 412
Flags: HMW
AnchorPoint: "abovecyr" 205 545 basechar 0
LayerCount: 2
Fore
SplineSet
20 524 m 1
 392 524 l 1
 392 448 l 1
 248 448 l 1
 248 0 l 1
 164 0 l 1
 164 448 l 1
 20 448 l 1
 20 524 l 1
EndSplineSet
Validated: 3073
EndChar

StartChar: efcyrillic
Encoding: 1092 1092 635
Width: 849
Flags: HMW
AnchorPoint: "abovecyr" 423 675 basechar 0
LayerCount: 2
Fore
SplineSet
464 445 m 1
 493 506 538 539 609 539 c 0
 748 539 819 429 819 253 c 0
 819 86 745 -23 610 -23 c 0
 542 -23 508 1 464 55 c 1
 464 -218 l 1
 381 -218 l 1
 381 60 l 1
 342 3 307 -23 234 -23 c 0
 96 -23 30 82 30 252 c 0
 30 426 100 539 238 539 c 0
 307 539 351 502 381 445 c 1
 381 674 l 1
 464 674 l 1
 464 445 l 1
595 461 m 0
 507 461 464 381 464 258 c 0
 464 135 507 55 595 55 c 0
 686 55 732 136 732 255 c 0
 732 380 687 461 595 461 c 0
250 461 m 0
 158 461 117 379 117 258 c 0
 117 136 158 55 250 55 c 0
 338 55 381 135 381 255 c 0
 381 381 339 461 250 461 c 0
EndSplineSet
Validated: 3073
EndChar

StartChar: tsecyrillic
Encoding: 1094 1094 637
Width: 558
Flags: HMW
AnchorPoint: "abovecyr" 267 545 basechar 0
LayerCount: 2
Fore
SplineSet
60 0 m 1
 60 524 l 1
 144 524 l 1
 144 76 l 1
 393 76 l 1
 393 524 l 1
 477 524 l 1
 477 64 l 1
 538 64 l 1
 538 -120 l 1
 468 -120 l 1
 468 0 l 1
 60 0 l 1
EndSplineSet
Validated: 3073
EndChar

StartChar: checyrillic
Encoding: 1095 1095 638
Width: 490
Flags: HMW
AnchorPoint: "abovecyr" 257 545 basechar 0
LayerCount: 2
Fore
SplineSet
50 524 m 1
 134 524 l 1
 134 327 l 2
 134 291 163 277 192 277 c 2
 346 277 l 1
 346 524 l 1
 430 524 l 1
 430 0 l 1
 346 0 l 1
 346 201 l 1
 195 201 l 2
 121 201 50 244 50 324 c 2
 50 524 l 1
EndSplineSet
Validated: 3073
EndChar

StartChar: shacyrillic
Encoding: 1096 1096 639
Width: 672
Flags: HMW
AnchorPoint: "abovecyr" 334 545 basechar 0
LayerCount: 2
Fore
SplineSet
378 76 m 1
 528 76 l 1
 528 524 l 1
 612 524 l 1
 612 0 l 1
 60 0 l 1
 60 524 l 1
 144 524 l 1
 144 76 l 1
 294 76 l 1
 294 524 l 1
 378 524 l 1
 378 76 l 1
EndSplineSet
Validated: 3073
EndChar

StartChar: shchacyrillic
Encoding: 1097 1097 640
Width: 702
Flags: HMW
AnchorPoint: "abovecyr" 333 545 basechar 0
LayerCount: 2
Fore
SplineSet
602 0 m 1
 60 0 l 1
 60 524 l 1
 144 524 l 1
 144 76 l 1
 294 76 l 1
 294 524 l 1
 378 524 l 1
 378 76 l 1
 528 76 l 1
 528 524 l 1
 612 524 l 1
 612 64 l 1
 672 64 l 1
 672 -120 l 1
 602 -120 l 1
 602 0 l 1
EndSplineSet
Validated: 3073
EndChar

StartChar: hardsigncyrillic
Encoding: 1098 1098 641
Width: 646
Flags: HMW
AnchorPoint: "abovecyr" 378 545 basechar 0
LayerCount: 2
Fore
SplineSet
203 0 m 1
 203 448 l 1
 20 448 l 1
 20 524 l 1
 287 524 l 1
 287 341 l 1
 405 341 l 2
 552 341 616 271.4 616 167 c 0
 616 69 546 0 449 0 c 2
 203 0 l 1
287 76 m 1
 411 76 l 2
 507 76 525 118 525 164 c 0
 525 236 487 265 411 265 c 2
 287 265 l 1
 287 76 l 1
EndSplineSet
Validated: 3073
EndChar

StartChar: yericyrillic
Encoding: 1099 1099 642
Width: 680
Flags: HMW
AnchorPoint: "abovecyr" 357 545 basechar 0
LayerCount: 2
Fore
SplineSet
144 524 m 1
 144 341 l 1
 257 341 l 2
 260 341 l 0
 408 341 473 274 473 167 c 0
 473 69 403 0 306 0 c 2
 60 0 l 1
 60 524 l 1
 144 524 l 1
144 76 m 1
 268 76 l 2
 364 76 382 118 382 164 c 0
 382 236 344 265 268 265 c 2
 144 265 l 1
 144 76 l 1
610 524 m 1
 610 0 l 1
 527 0 l 1
 527 524 l 1
 610 524 l 1
EndSplineSet
Validated: 3073
EndChar

StartChar: softsigncyrillic
Encoding: 1100 1100 643
Width: 503
Flags: HMW
AnchorPoint: "abovecyr" 254 545 basechar 0
LayerCount: 2
Fore
SplineSet
144 524 m 1
 144 341 l 1
 257 341 l 2
 260 341 l 0
 408 341 473 274 473 167 c 0
 473 69 403 0 306 0 c 2
 60 0 l 1
 60 524 l 1
 144 524 l 1
144 76 m 1
 268 76 l 2
 364 76 382 118 382 164 c 0
 382 236 344 265 268 265 c 2
 144 265 l 1
 144 76 l 1
EndSplineSet
Validated: 3073
EndChar

StartChar: ereversedcyrillic
Encoding: 1101 1101 644
Width: 506
Flags: HMW
AnchorPoint: "abovecyr" 246 545 basechar 0
LayerCount: 2
Fore
SplineSet
36 348 m 1
 46 472 123 539 243 539 c 0
 384 539 476 427 476 253 c 0
 476 84 386 -23 244 -23 c 0
 119 -23 40 52 30 180 c 1
 114 180 l 1
 128 96 171 54 242 54 c 0
 329 54 383 120 389 232 c 1
 162 232 l 1
 162 309 l 1
 386 309 l 1
 372 406 321 462 244 462 c 0
 174 462 130 421 120 348 c 1
 36 348 l 1
EndSplineSet
Validated: 3073
EndChar

StartChar: iucyrillic
Encoding: 1102 1102 645
Width: 741
Flags: HMW
AnchorPoint: "abovecyr" 267 545 basechar 0
LayerCount: 2
Fore
SplineSet
240 309 m 1
 240 357 278 539 473 539 c 0
 624 539 711 435 711 254 c 0
 711 82 621 -23 474 -23 c 0
 280 -23 238 149 238 233 c 1
 144 233 l 1
 144 0 l 1
 60 0 l 1
 60 524 l 1
 144 524 l 1
 144 309 l 1
 240 309 l 1
474 462 m 0
 381 462 324 384 324 258 c 0
 324 131 381 54 474 54 c 0
 566 54 624 132 624 255 c 0
 624 385 568 462 474 462 c 0
EndSplineSet
Validated: 3073
EndChar

StartChar: iacyrillic
Encoding: 1103 1103 646
Width: 529
Flags: HMW
AnchorPoint: "abovecyr" 311 545 basechar 0
LayerCount: 2
Fore
SplineSet
66 375 m 0
 66 431 97 524 221 524 c 2
 469 524 l 1
 469 0 l 1
 385 0 l 1
 385 218 l 1
 316 218 l 1
 113 0 l 1
 10 0 l 1
 215 221 l 1
 132 228 66 274 66 375 c 0
157 364 m 0
 157 304 212 294 248 294 c 2
 385 294 l 1
 385 449 l 1
 248 449 l 2
 192 449 157 417 157 370 c 0
 157 364 l 0
EndSplineSet
Validated: 3073
EndChar

StartChar: djecyrillic
Encoding: 1106 1106 649
Width: 577
Flags: MW
LayerCount: 2
Fore
SplineSet
434 348 m 2
 434 430 370 451 326 451 c 0
 235 451 185 376 185 275 c 2
 185 0 l 1
 102 0 l 1
 102 596 l 1
 18 596 l 1
 18 660 l 1
 102 660 l 1
 102 729 l 1
 185 729 l 1
 185 660 l 1
 356 660 l 1
 356 596 l 1
 185 596 l 1
 185 437 l 1
 206 464 251 524 352 524 c 0
 450 524 517 475 517 382 c 2
 517 106 l 2
 517 -72 346 -163 272 -163 c 0
 267 -163 262 -163 258 -162 c 1
 258 -122 l 1
 314 -120 434 -41 434 96 c 2
 434 348 l 2
EndSplineSet
Validated: 3073
EndChar

StartChar: ecyrillic
Encoding: 1108 1108 651
Width: 506
Flags: HMW
AnchorPoint: "abovecyr" 265 545 basechar 0
LayerCount: 2
Fore
SplineSet
343 232 m 1
 117 232 l 1
 123 120 177 54 264 54 c 0
 335 54 378 96 392 180 c 1
 476 180 l 1
 466 52 387 -23 262 -23 c 0
 120 -23 30 84 30 253 c 0
 30 427 122 539 263 539 c 0
 383 539 460 473 470 348 c 1
 386 348 l 1
 376 421 332 462 262 462 c 0
 185 462 134 406 120 309 c 1
 343 309 l 1
 343 232 l 1
EndSplineSet
Validated: 3073
EndChar

StartChar: ljecyrillic
Encoding: 1113 1113 656
Width: 796
Flags: HMW
AnchorPoint: "abovecyr" 329 545 basechar 0
LayerCount: 2
Fore
SplineSet
20 80 m 1
 78 80 98 122 98 403 c 2
 98 524 l 1
 437 524 l 1
 437 310 l 1
 550 310 l 2
 684 310 766 279 766 155 c 0
 766 61 689 0 599 0 c 2
 353 0 l 1
 353 448 l 1
 181 448 l 1
 181 351 l 2
 181 64 124 0 20 0 c 1
 20 80 l 1
561 234 m 2
 437 234 l 1
 437 76 l 1
 561 76 l 2
 631 76 675 88 675 151 c 0
 675 204 652 234 561 234 c 2
EndSplineSet
Validated: 3073
EndChar

StartChar: njecyrillic
Encoding: 1114 1114 657
Width: 837
Flags: HMW
AnchorPoint: "abovecyr" 326 545 basechar 0
LayerCount: 2
Fore
SplineSet
640 0 m 2
 394 0 l 1
 394 233 l 1
 144 233 l 1
 144 0 l 1
 60 0 l 1
 60 524 l 1
 144 524 l 1
 144 309 l 1
 394 309 l 1
 394 524 l 1
 478 524 l 1
 478 310 l 1
 591 310 l 2
 725 310 807 280 807 156 c 0
 807 62 730 0 640 0 c 2
602 234 m 2
 478 234 l 1
 478 76 l 1
 602 76 l 2
 672 76 716 86 716 152 c 0
 716 202 693 234 602 234 c 2
EndSplineSet
Validated: 3073
EndChar

StartChar: tshecyrillic
Encoding: 1115 1115 658
Width: 579
Flags: HMW
LayerCount: 2
Fore
SplineSet
436 348 m 2
 436 430 372 451 328 451 c 0
 237 451 187 376 187 275 c 2
 187 0 l 1
 104 0 l 1
 104 596 l 1
 20 596 l 1
 20 660 l 1
 104 660 l 1
 104 729 l 1
 187 729 l 1
 187 660 l 1
 358 660 l 1
 358 596 l 1
 187 596 l 1
 187 437 l 1
 208 464 253 524 354 524 c 0
 452 524 519 475 519 382 c 2
 519 0 l 1
 436 0 l 1
 436 348 l 2
EndSplineSet
Validated: 3073
EndChar

StartChar: dzhecyrillic
Encoding: 1119 1119 662
Width: 538
Flags: HMW
AnchorPoint: "abovecyr" 267 545 basechar 0
LayerCount: 2
Fore
SplineSet
304 0 m 1
 304 -120 l 1
 234 -120 l 1
 234 0 l 1
 60 0 l 1
 60 524 l 1
 144 524 l 1
 144 76 l 1
 394 76 l 1
 394 524 l 1
 478 524 l 1
 478 0 l 1
 304 0 l 1
EndSplineSet
Validated: 3073
EndChar

StartChar: uni048C
Encoding: 1164 1164 663
Width: 693
Flags: HMW
LayerCount: 2
Fore
SplineSet
560 207 m 0
 560 259 534 333 429 333 c 2
 202 333 l 1
 202 82 l 1
 429 82 l 2
 534 82 560 156 560 207 c 0
653 208 m 0
 653 83 567 0 438 0 c 2
 109 0 l 1
 109 539 l 1
 20 539 l 1
 20 609 l 1
 109 609 l 1
 109 729 l 1
 202 729 l 1
 202 609 l 1
 294 609 l 1
 294 539 l 1
 202 539 l 1
 202 415 l 1
 382 415 l 2
 560 415 637 338 653 208 c 0
EndSplineSet
Validated: 3073
EndChar

StartChar: uni048D
Encoding: 1165 1165 664
Width: 520
Flags: HMW
LayerCount: 2
Fore
SplineSet
399 153 m 0
 399 196 381 231 308 231 c 2
 156 231 l 1
 156 76 l 1
 308 76 l 2
 362.089 76 399 106.8 399 153 c 0
490 150 m 0
 490 61 429 0 335 0 c 2
 72 0 l 1
 72 382 l 1
 10 382 l 1
 10 452 l 1
 72 452 l 1
 72 524 l 1
 156 524 l 1
 156 452 l 1
 228 452 l 1
 228 382 l 1
 156 382 l 1
 156 307 l 1
 274 307 l 2
 424 307 490 258 490 150 c 0
EndSplineSet
Validated: 3073
EndChar

StartChar: uni048E
Encoding: 1166 1166 665
Width: 646
Flags: HMW
LayerCount: 2
Fore
SplineSet
478 432 m 1
 498 453 509 483 509 519 c 0
 509 599 456 647 367 647 c 2
 173 647 l 1
 173 391 l 1
 367 391 l 2
 384 391 400 393 414 396 c 1
 360 450 l 1
 410 500 l 1
 478 432 l 1
486 325 m 1
 461 314 433 309 402 309 c 2
 173 309 l 1
 173 0 l 1
 80 0 l 1
 80 729 l 1
 381 729 l 2
 525 729 606 652 606 515 c 0
 606 449 588 403 546 364 c 1
 604 306 l 1
 554 256 l 1
 486 325 l 1
EndSplineSet
Validated: 3073
EndChar

StartChar: uni048F
Encoding: 1167 1167 666
Width: 562
Flags: HMW
LayerCount: 2
Fore
SplineSet
404 115 m 1
 428 150 442 198 442 255 c 0
 442 380 382 461 290 461 c 0
 202 461 144 381 144 258 c 0
 144 135 202 55 290 55 c 0
 312 55 333 60 351 69 c 1
 287 133 l 1
 336 183 l 1
 404 115 l 1
467 52 m 1
 530 -11 l 1
 481 -61 l 1
 414 6 l 1
 383 -13 346 -23 305 -23 c 0
 237 -23 188 1 144 55 c 1
 144 -218 l 1
 60 -218 l 1
 60 524 l 1
 137 524 l 1
 137 445 l 1
 176 507 233 539 304 539 c 0
 443 539 529 429 529 253 c 0
 529 169 507 100 467 52 c 1
EndSplineSet
Validated: 3073
EndChar

StartChar: uni0490
Encoding: 1168 1168 667
Width: 601
Flags: HMW
LayerCount: 2
Fore
SplineSet
173 0 m 1
 80 0 l 1
 80 729 l 1
 476 729 l 1
 476 825 l 1
 569 825 l 1
 569 647 l 1
 173 647 l 1
 173 0 l 1
EndSplineSet
Validated: 3073
EndChar

StartChar: uni0491
Encoding: 1169 1169 668
Width: 387
Flags: HMW
LayerCount: 2
Fore
SplineSet
60 524 m 1
 271 524 l 1
 271 629 l 1
 355 629 l 1
 355 448 l 1
 144 448 l 1
 144 0 l 1
 60 0 l 1
 60 524 l 1
EndSplineSet
Validated: 3073
EndChar

StartChar: uni0492
Encoding: 1170 1170 669
Width: 614
Flags: HMW
LayerCount: 2
Fore
SplineSet
188 493 m 1
 294 493 l 1
 294 423 l 1
 188 423 l 1
 188 0 l 1
 95 0 l 1
 95 423 l 1
 20 423 l 1
 20 493 l 1
 95 493 l 1
 95 729 l 1
 584 729 l 1
 584 647 l 1
 188 647 l 1
 188 493 l 1
EndSplineSet
Validated: 3073
EndChar

StartChar: uni0493
Encoding: 1171 1171 670
Width: 412
Flags: HMW
LayerCount: 2
Fore
SplineSet
82 328 m 1
 82 524 l 1
 392 524 l 1
 392 448 l 1
 166 448 l 1
 166 328 l 1
 234 328 l 1
 234 258 l 1
 166 258 l 1
 166 0 l 1
 82 0 l 1
 82 258 l 1
 20 258 l 1
 20 328 l 1
 82 328 l 1
EndSplineSet
Validated: 3073
EndChar

StartChar: uni0494
Encoding: 1172 1172 671
Width: 599
Flags: HMW
LayerCount: 2
Fore
SplineSet
173 0 m 1
 80 0 l 1
 80 729 l 1
 569 729 l 1
 569 647 l 1
 173 647 l 1
 173 469 l 1
 345 469 l 2
 471 469 530 393 530 277 c 2
 530 18 l 2
 530 -98 471 -174 345 -174 c 2
 293 -174 l 1
 293 -92 l 1
 341 -92 l 2
 396 -92 437 -62 437 0 c 2
 437 295 l 2
 437 357 396 387 341 387 c 2
 173 387 l 1
 173 0 l 1
EndSplineSet
Validated: 3073
EndChar

StartChar: uni0495
Encoding: 1173 1173 672
Width: 467
Flags: HMW
LayerCount: 2
Fore
SplineSet
226 -70 m 1
 269 -70 334 -49 334 33 c 2
 334 174 l 2
 334 250 312 277 256 277 c 0
 170 277 144 207 144 100 c 2
 144 0 l 1
 60 0 l 1
 60 524 l 1
 355 524 l 1
 355 448 l 1
 144 448 l 1
 144 263 l 1
 166 328 208 350 282 350 c 0
 384 350 417 295 417 207 c 2
 417 0 l 2
 417 -88 354 -143 252 -143 c 2
 226 -143 l 1
 226 -70 l 1
EndSplineSet
Validated: 3073
EndChar

StartChar: uni0496
Encoding: 1174 1174 673
Width: 932
Flags: HMW
LayerCount: 2
Fore
SplineSet
836 74 m 1
 900 74 l 1
 900 -135 l 1
 820 -135 l 1
 820 0 l 1
 790 0 l 1
 504 324 l 1
 504 0 l 1
 411 0 l 1
 411 324 l 1
 125 0 l 1
 15 0 l 1
 340 375 l 1
 53 729 l 1
 173 729 l 1
 411 421 l 1
 411 729 l 1
 504 729 l 1
 504 421 l 1
 742 729 l 1
 862 729 l 1
 575 375 l 1
 836 74 l 1
EndSplineSet
Validated: 3073
EndChar

StartChar: uni0497
Encoding: 1175 1175 674
Width: 835
Flags: HMW
LayerCount: 2
Fore
SplineSet
741 64 m 1
 815 64 l 1
 815 -120 l 1
 745 -120 l 1
 745 0 l 1
 712 0 l 1
 454 216 l 1
 454 0 l 1
 371 0 l 1
 371 216 l 1
 113 0 l 1
 10 0 l 1
 314 264 l 1
 42 524 l 1
 149 524 l 1
 371 302 l 1
 371 524 l 1
 454 524 l 1
 454 302 l 1
 676 524 l 1
 783 524 l 1
 511 264 l 1
 741 64 l 1
EndSplineSet
Validated: 3073
EndChar

StartChar: uni0498
Encoding: 1176 1176 675
Width: 653
Flags: HMW
LayerCount: 2
Fore
SplineSet
613 200 m 0
 613 79 527 -8 367 -22 c 1
 402 -44 421 -76 421 -111 c 0
 421 -168 362 -205 289 -205 c 0
 270 -205 237 -200 213 -195 c 1
 213 -150 l 1
 231 -157 252 -160 276 -160 c 0
 323 -160 348 -141 348 -106 c 0
 348 -72 334 -50 290 -22 c 1
 139 -9 42 73 40 232 c 1
 128 232 l 1
 128 230 128 229 128 227 c 0
 128 153 169 59 334 59 c 0
 492 59 520 139 520 191 c 0
 520 248 452 321 357 321 c 2
 249 321 l 1
 249 403 l 1
 337 403 l 2
 426 403 495 484 495 540 c 0
 495 614 430 663 332 663 c 0
 216 663 151 610 150 515 c 1
 62 515 l 1
 63 658 161 741 329 741 c 0
 489 741 588 659 588 527 c 0
 588 452 551 403 483 374 c 1
 566 343 613 282 613 200 c 0
EndSplineSet
Validated: 3073
EndChar

StartChar: uni0499
Encoding: 1177 1177 676
Width: 485
Flags: HMW
LayerCount: 2
Fore
SplineSet
118 156 m 1
 125 105 144 54 246 54 c 0
 319 54 364 87 364 136 c 0
 364 174 322 221 262 221 c 2
 188 221 l 1
 188 297 l 1
 250 297 l 2
 320 297 347 346 347 383 c 0
 347 431 304 462 236 462 c 0
 169 462 133 433 131 378 c 1
 43 378 l 1
 44 481 112 539 233 539 c 0
 355 539 434 476 434 379 c 0
 434 326 415 293 369 267 c 1
 428 241 455 203 455 143 c 0
 455 52 387 -10 277 -21 c 1
 311 -44 331 -76 331 -111 c 0
 331 -168 272 -205 199 -205 c 0
 180 -205 147 -200 123 -195 c 1
 123 -150 l 1
 141 -157 162 -160 186 -160 c 0
 233 -160 258 -141 258 -106 c 0
 258 -72 244 -50 199 -21 c 1
 89 -11 34 47 30 156 c 1
 118 156 l 1
EndSplineSet
Validated: 3073
EndChar

StartChar: uni049A
Encoding: 1178 1178 677
Width: 658
Flags: HMW
LayerCount: 2
Fore
SplineSet
549 74 m 1
 622 74 l 1
 622 -135 l 1
 542 -135 l 1
 542 0 l 1
 498 0 l 1
 173 333 l 1
 173 0 l 1
 80 0 l 1
 80 729 l 1
 173 729 l 1
 173 423 l 1
 478 729 l 1
 589 729 l 1
 244 384 l 1
 549 74 l 1
EndSplineSet
Validated: 3073
EndChar

StartChar: uni049B
Encoding: 1179 1179 678
Width: 494
Flags: HMW
LayerCount: 2
Fore
SplineSet
410 64 m 1
 474 64 l 1
 474 -120 l 1
 404 -120 l 1
 404 0 l 1
 368 0 l 1
 143 226 l 1
 143 0 l 1
 60 0 l 1
 60 524 l 1
 143 524 l 1
 143 312 l 1
 355 524 l 1
 451 524 l 1
 200 274 l 1
 410 64 l 1
EndSplineSet
Validated: 3073
EndChar

StartChar: uni049C
Encoding: 1180 1180 679
Width: 680
Flags: HMW
LayerCount: 2
Fore
SplineSet
221 283 m 1
 173 324 l 1
 173 0 l 1
 80 0 l 1
 80 729 l 1
 173 729 l 1
 173 414 l 1
 221 456 l 1
 221 593 l 1
 291 593 l 1
 291 516 l 1
 536 729 l 1
 656 729 l 1
 291 415 l 1
 291 333 l 1
 665 0 l 1
 549 0 l 1
 291 222 l 1
 291 159 l 1
 221 159 l 1
 221 283 l 1
EndSplineSet
Validated: 3073
EndChar

StartChar: uni049D
Encoding: 1181 1181 680
Width: 514
Flags: HMW
LayerCount: 2
Fore
SplineSet
192 175 m 1
 143 216 l 1
 143 0 l 1
 60 0 l 1
 60 524 l 1
 143 524 l 1
 143 302 l 1
 192 351 l 1
 192 458 l 1
 262 458 l 1
 262 421 l 1
 365 524 l 1
 472 524 l 1
 262 323 l 1
 262 210 l 1
 504 0 l 1
 401 0 l 1
 262 116 l 1
 262 74 l 1
 192 74 l 1
 192 175 l 1
EndSplineSet
Validated: 3073
EndChar

StartChar: uni049E
Encoding: 1182 1182 681
Width: 689
Flags: HMW
LayerCount: 2
Fore
SplineSet
188 623 m 1
 284 623 l 1
 284 553 l 1
 188 553 l 1
 188 414 l 1
 551 729 l 1
 671 729 l 1
 259 375 l 1
 674 0 l 1
 564 0 l 1
 188 324 l 1
 188 0 l 1
 95 0 l 1
 95 553 l 1
 10 553 l 1
 10 623 l 1
 95 623 l 1
 95 729 l 1
 188 729 l 1
 188 623 l 1
EndSplineSet
Validated: 3073
EndChar

StartChar: uni049F
Encoding: 1183 1183 682
Width: 524
Flags: HMW
LayerCount: 2
Fore
SplineSet
70 478 m 1
 70 524 l 1
 153 524 l 1
 153 478 l 1
 224 478 l 1
 224 408 l 1
 153 408 l 1
 153 302 l 1
 375 524 l 1
 482 524 l 1
 210 264 l 1
 514 0 l 1
 411 0 l 1
 153 216 l 1
 153 0 l 1
 70 0 l 1
 70 408 l 1
 10 408 l 1
 10 478 l 1
 70 478 l 1
EndSplineSet
Validated: 3073
EndChar

StartChar: uni04A0
Encoding: 1184 1184 683
Width: 845
Flags: HMW
LayerCount: 2
Fore
SplineSet
251 647 m 1
 20 647 l 1
 20 729 l 1
 344 729 l 1
 344 414 l 1
 707 729 l 1
 827 729 l 1
 415 375 l 1
 830 0 l 1
 720 0 l 1
 344 324 l 1
 344 0 l 1
 251 0 l 1
 251 647 l 1
EndSplineSet
Validated: 3073
EndChar

StartChar: uni04A1
Encoding: 1185 1185 684
Width: 658
Flags: HMW
LayerCount: 2
Fore
SplineSet
204 448 m 1
 20 448 l 1
 20 524 l 1
 287 524 l 1
 287 302 l 1
 509 524 l 1
 616 524 l 1
 344 264 l 1
 648 0 l 1
 545 0 l 1
 287 216 l 1
 287 0 l 1
 204 0 l 1
 204 448 l 1
EndSplineSet
Validated: 3073
EndChar

StartChar: uni04A2
Encoding: 1186 1186 685
Width: 740
Flags: HMW
LayerCount: 2
Fore
SplineSet
641 74 m 1
 708 74 l 1
 708 -135 l 1
 628 -135 l 1
 628 0 l 1
 547 0 l 1
 547 332 l 1
 174 332 l 1
 174 0 l 1
 80 0 l 1
 80 729 l 1
 173 729 l 1
 173 414 l 1
 547 414 l 1
 547 729 l 1
 641 729 l 1
 641 74 l 1
EndSplineSet
Validated: 3073
EndChar

StartChar: uni04A3
Encoding: 1187 1187 686
Width: 558
Flags: HMW
LayerCount: 2
Fore
SplineSet
478 64 m 1
 538 64 l 1
 538 -120 l 1
 468 -120 l 1
 468 0 l 1
 394 0 l 1
 394 233 l 1
 144 233 l 1
 144 0 l 1
 60 0 l 1
 60 524 l 1
 144 524 l 1
 144 309 l 1
 394 309 l 1
 394 524 l 1
 478 524 l 1
 478 64 l 1
EndSplineSet
Validated: 3073
EndChar

StartChar: uni04A4
Encoding: 1188 1188 687
Width: 995
Flags: HMW
LayerCount: 2
Fore
SplineSet
641 0 m 1
 547 0 l 1
 547 332 l 1
 174 332 l 1
 174 0 l 1
 80 0 l 1
 80 729 l 1
 173 729 l 1
 173 414 l 1
 547 414 l 1
 547 729 l 1
 965 729 l 1
 965 647 l 1
 641 647 l 1
 641 0 l 1
EndSplineSet
Validated: 3073
EndChar

StartChar: uni04A5
Encoding: 1189 1189 688
Width: 709
Flags: HMW
LayerCount: 2
Fore
SplineSet
478 0 m 1
 394 0 l 1
 394 233 l 1
 144 233 l 1
 144 0 l 1
 60 0 l 1
 60 524 l 1
 144 524 l 1
 144 309 l 1
 394 309 l 1
 394 524 l 1
 689 524 l 1
 689 448 l 1
 478 448 l 1
 478 0 l 1
EndSplineSet
Validated: 3073
EndChar

StartChar: uni04A6
Encoding: 1190 1190 689
Width: 1058
Flags: HMW
LayerCount: 2
Fore
SplineSet
641 729 m 1
 641 469 l 1
 813 469 l 2
 939 469 998 393 998 277 c 2
 998 18 l 2
 998 -98 939 -174 813 -174 c 2
 761 -174 l 1
 761 -92 l 1
 809 -92 l 2
 864 -92 905 -62 905 0 c 2
 905 295 l 2
 905 357 864 387 809 387 c 2
 641 387 l 1
 641 0 l 1
 547 0 l 1
 547 647 l 1
 174 647 l 1
 174 0 l 1
 80 0 l 1
 80 729 l 1
 641 729 l 1
EndSplineSet
Validated: 3073
EndChar

StartChar: uni04A7
Encoding: 1191 1191 690
Width: 790
Flags: HMW
LayerCount: 2
Fore
SplineSet
559 -70 m 1
 602 -70 667 -49 667 33 c 2
 667 174 l 2
 667 250 645 277 589 277 c 0
 503 277 477 207 477 100 c 2
 477 0 l 1
 393 0 l 1
 393 448 l 1
 144 448 l 1
 144 0 l 1
 60 0 l 1
 60 524 l 1
 477 524 l 1
 477 263 l 1
 499 328 541 350 615 350 c 0
 717 350 750 295 750 207 c 2
 750 0 l 2
 750 -88 687 -143 585 -143 c 2
 559 -143 l 1
 559 -70 l 1
EndSplineSet
Validated: 3073
EndChar

StartChar: uni04AA
Encoding: 1194 1194 691
Width: 709
Flags: HMW
LayerCount: 2
Fore
SplineSet
457 -111 m 0
 457 -168 398 -205 325 -205 c 0
 306 -205 273 -200 249 -195 c 1
 249 -150 l 1
 267 -157 288 -160 312 -160 c 0
 359 -160 384 -141 384 -106 c 0
 384 -72 370 -50 325 -21 c 1
 71 3 40 267 40 356 c 0
 40 508 107 741 373 741 c 0
 533 741 625 663 654 503 c 1
 559 503 l 1
 538 605 480 659 362 659 c 0
 221 659 133 544 133 357 c 0
 133 175 225 59 370 59 c 0
 492 59 551 128 573 266 c 1
 669 266 l 1
 648 86 560 -10 404 -22 c 1
 438 -45 457 -76 457 -111 c 0
EndSplineSet
Validated: 3073
EndChar

StartChar: uni04AB
Encoding: 1195 1195 692
Width: 506
Flags: HMW
LayerCount: 2
Fore
SplineSet
354 -111 m 0
 354 -168 295 -205 222 -205 c 0
 203 -205 170 -200 146 -195 c 1
 146 -150 l 1
 164 -157 185 -160 209 -160 c 0
 256 -160 281 -141 281 -106 c 0
 281 -71 267 -49 220 -20 c 1
 103 0 30 101 30 253 c 0
 30 427 122 539 263 539 c 0
 383 539 460 473 470 348 c 1
 386 348 l 1
 376 421 332 462 262 462 c 0
 171 462 117 384 117 253 c 0
 117 129 172 54 264 54 c 0
 335 54 378 96 392 180 c 1
 476 180 l 1
 467 65 403 -7 299 -21 c 1
 334 -44 354 -75 354 -111 c 0
EndSplineSet
Validated: 3073
EndChar

StartChar: uni04AC
Encoding: 1196 1196 693
Width: 632
Flags: HMW
LayerCount: 2
Fore
SplineSet
363 74 m 1
 430 74 l 1
 430 -135 l 1
 350 -135 l 1
 350 0 l 1
 270 0 l 1
 270 647 l 1
 30 647 l 1
 30 729 l 1
 602 729 l 1
 602 647 l 1
 363 647 l 1
 363 74 l 1
EndSplineSet
Validated: 3073
EndChar

StartChar: uni04AD
Encoding: 1197 1197 694
Width: 412
Flags: HMW
LayerCount: 2
Fore
SplineSet
248 64 m 1
 308 64 l 1
 308 -120 l 1
 238 -120 l 1
 238 0 l 1
 164 0 l 1
 164 448 l 1
 20 448 l 1
 20 524 l 1
 392 524 l 1
 392 448 l 1
 248 448 l 1
 248 64 l 1
EndSplineSet
Validated: 3073
EndChar

StartChar: uni04AE
Encoding: 1198 1198 695
Width: 678
Flags: HMW
LayerCount: 2
Fore
SplineSet
389 286 m 1
 389 0 l 1
 296 0 l 1
 296 286 l 1
 15 729 l 1
 130 729 l 1
 344 374 l 1
 552 729 l 1
 663 729 l 1
 389 286 l 1
EndSplineSet
Validated: 3073
EndChar

StartChar: uni04AF
Encoding: 1199 1199 696
Width: 588
Flags: HMW
LayerCount: 2
Fore
SplineSet
344 86 m 1
 344 -200 l 1
 251 -200 l 1
 251 86 l 1
 10 524 l 1
 125 524 l 1
 299 174 l 1
 467 524 l 1
 578 524 l 1
 344 86 l 1
EndSplineSet
Validated: 3073
EndChar

StartChar: uni04B0
Encoding: 1200 1200 697
Width: 678
Flags: HMW
LayerCount: 2
Fore
SplineSet
296 190 m 1
 76 190 l 1
 76 260 l 1
 296 260 l 1
 296 286 l 1
 15 729 l 1
 130 729 l 1
 344 374 l 1
 552 729 l 1
 663 729 l 1
 389 286 l 1
 389 260 l 1
 609 260 l 1
 609 190 l 1
 389 190 l 1
 389 0 l 1
 296 0 l 1
 296 190 l 1
EndSplineSet
Validated: 3073
EndChar

StartChar: uni04B1
Encoding: 1201 1201 698
Width: 588
Flags: HMW
LayerCount: 2
Fore
SplineSet
344 86 m 1
 564 86 l 1
 564 16 l 1
 344 16 l 1
 344 -200 l 1
 251 -200 l 1
 251 16 l 1
 31 16 l 1
 31 86 l 1
 251 86 l 1
 10 524 l 1
 125 524 l 1
 299 174 l 1
 467 524 l 1
 578 524 l 1
 344 86 l 1
EndSplineSet
Validated: 3073
EndChar

StartChar: uni04B2
Encoding: 1202 1202 699
Width: 674
Flags: HMW
LayerCount: 2
Fore
SplineSet
591 74 m 1
 642 74 l 1
 642 -135 l 1
 562 -135 l 1
 562 0 l 1
 527 0 l 1
 328 304 l 1
 128 0 l 1
 15 0 l 1
 273 374 l 1
 31 729 l 1
 144 729 l 1
 331 443 l 1
 519 729 l 1
 630 729 l 1
 384 374 l 1
 591 74 l 1
EndSplineSet
Validated: 3073
EndChar

StartChar: uni04B3
Encoding: 1203 1203 700
Width: 486
Flags: HMW
LayerCount: 2
Fore
SplineSet
423 64 m 1
 466 64 l 1
 466 -120 l 1
 396 -120 l 1
 396 0 l 1
 369 0 l 1
 238 201 l 1
 105 0 l 1
 10 0 l 1
 195 267 l 1
 20 524 l 1
 115 524 l 1
 241 334 l 1
 367 524 l 1
 461 524 l 1
 285 271 l 1
 423 64 l 1
EndSplineSet
Validated: 3073
EndChar

StartChar: uni04B4
Encoding: 1204 1204 701
Width: 951
Flags: HMW
LayerCount: 2
Fore
SplineSet
354 647 m 1
 354 82 l 1
 727 82 l 1
 727 729 l 1
 821 729 l 1
 821 74 l 1
 913 74 l 1
 913 -135 l 1
 833 -135 l 1
 833 0 l 1
 260 0 l 1
 260 647 l 1
 30 647 l 1
 30 729 l 1
 581 729 l 1
 581 647 l 1
 354 647 l 1
EndSplineSet
Validated: 3073
EndChar

StartChar: uni04B5
Encoding: 1205 1205 702
Width: 672
Flags: HMW
LayerCount: 2
Fore
SplineSet
154 448 m 1
 20 448 l 1
 20 524 l 1
 372 524 l 1
 372 448 l 1
 238 448 l 1
 238 76 l 1
 487 76 l 1
 487 524 l 1
 571 524 l 1
 571 64 l 1
 652 64 l 1
 652 -120 l 1
 582 -120 l 1
 582 0 l 1
 154 0 l 1
 154 448 l 1
EndSplineSet
Validated: 3073
EndChar

StartChar: uni04B6
Encoding: 1206 1206 703
Width: 640
Flags: HMW
LayerCount: 2
Fore
SplineSet
540 74 m 1
 607 74 l 1
 607 -135 l 1
 527 -135 l 1
 527 0 l 1
 447 0 l 1
 447 260 l 1
 235 260 l 2
 109 260 50 336 50 452 c 2
 50 729 l 1
 143 729 l 1
 143 434 l 2
 143 372 184 342 239 342 c 2
 447 342 l 1
 447 729 l 1
 540 729 l 1
 540 74 l 1
EndSplineSet
Validated: 3073
EndChar

StartChar: uni04B7
Encoding: 1207 1207 704
Width: 501
Flags: HMW
LayerCount: 2
Fore
SplineSet
411 0 m 1
 336 0 l 1
 336 191 l 1
 195 191 l 2
 114 191 40 240 40 334 c 2
 40 524 l 1
 124 524 l 1
 124 337 l 2
 124 288 152 267 192 267 c 2
 336 267 l 1
 336 524 l 1
 420 524 l 1
 420 64 l 1
 481 64 l 1
 481 -120 l 1
 411 -120 l 1
 411 0 l 1
EndSplineSet
Validated: 3073
EndChar

StartChar: uni04B8
Encoding: 1208 1208 705
Width: 630
Flags: HMW
LayerCount: 2
Fore
SplineSet
276 342 m 1
 276 479 l 1
 346 479 l 1
 346 342 l 1
 457 342 l 1
 457 729 l 1
 550 729 l 1
 550 0 l 1
 457 0 l 1
 457 260 l 1
 346 260 l 1
 346 135 l 1
 276 135 l 1
 276 260 l 1
 245 260 l 2
 119 260 60 336 60 452 c 2
 60 729 l 1
 153 729 l 1
 153 434 l 2
 153 372 194 342 249 342 c 2
 276 342 l 1
EndSplineSet
Validated: 3073
EndChar

StartChar: uni04B9
Encoding: 1209 1209 706
Width: 480
Flags: HMW
LayerCount: 2
Fore
SplineSet
200 191 m 1
 115.731 191 40 237.201 40 334 c 2
 40 524 l 1
 124 524 l 1
 124 337 l 2
 124 283.474 154.58 267 200 267 c 1
 200 370 l 1
 270 370 l 1
 270 267 l 1
 336 267 l 1
 336 524 l 1
 420 524 l 1
 420 0 l 1
 336 0 l 1
 336 191 l 1
 270 191 l 1
 270 98 l 1
 200 98 l 1
 200 191 l 1
EndSplineSet
Validated: 3073
EndChar

StartChar: uni04BA
Encoding: 1210 1210 707
Width: 630
Flags: HMW
LayerCount: 2
Fore
SplineSet
173 469 m 1
 385 469 l 2
 511 469 570 393 570 277 c 2
 570 0 l 1
 477 0 l 1
 477 295 l 2
 477 357 436 387 381 387 c 2
 173 387 l 1
 173 0 l 1
 80 0 l 1
 80 729 l 1
 173 729 l 1
 173 469 l 1
EndSplineSet
Validated: 3073
EndChar

StartChar: uni04BB
Encoding: 1211 1211 708
Width: 480
Flags: HMW
LayerCount: 2
Fore
SplineSet
440 0 m 1
 356 0 l 1
 356 187 l 2
 356 236 328 257 288 257 c 2
 144 257 l 1
 144 0 l 1
 60 0 l 1
 60 524 l 1
 144 524 l 1
 144 333 l 1
 285 333 l 2
 366 333 440 284 440 190 c 2
 440 0 l 1
EndSplineSet
Validated: 3073
EndChar

StartChar: uni04BC
Encoding: 1212 1212 709
Width: 915
Flags: HMW
LayerCount: 2
Fore
SplineSet
767 466 m 1
 754 557 731 659 575 659 c 0
 460 659 379 586 350 466 c 1
 767 466 l 1
578 -23 m 0
 312 -23 245 210 245 362 c 2
 245 384 l 1
 100 387 40 486 40 586 c 0
 40 690 96 757 180 757 c 0
 253 757 299 717 304 643 c 1
 224 643 l 1
 224 653 208.5 680 174 680 c 0
 143 680 120 642.5 120 586 c 0
 120 511 173 466 235 466 c 2
 255 466 l 1
 270 541 303 607 351 656 c 0
 407 714 479 741 574 741 c 0
 698 741 874 695 875 384 c 1
 339 384 l 1
 338 376 338 369 338 361 c 0
 338 174 426 59 567 59 c 0
 686 59 743 113 764 215 c 1
 859 215 l 1
 830 55 738 -23 578 -23 c 0
EndSplineSet
Validated: 3073
EndChar

StartChar: uni04BD
Encoding: 1213 1213 710
Width: 691
Flags: HMW
LayerCount: 2
Fore
SplineSet
277 302 m 1
 572 302 l 1
 572 412.825 493.562 462 427 462 c 0
 343 462 284 399 277 302 c 1
275 234 m 1
 278 88 367 54 429 54 c 0
 496 54 543 90 566 159 c 1
 650 159 l 1
 629 45 546 -23 426 -23 c 0
 285 -23 196 74 188 234 c 1
 74 236 30 307.5 30 382 c 0
 30 458.5 67 504 123 504 c 0
 171 504 201 471 206 420 c 1
 148 420 l 1
 145.5 433.5 137 440 122 440 c 0
 103 440 98 425.5 98 382 c 0
 98 332 120 302 156 302 c 2
 190 302 l 1
 206 447 296 539 428 539 c 0
 660.984 539 661 318.066 661 234 c 1
 275 234 l 1
EndSplineSet
Validated: 3073
EndChar

StartChar: uni04BE
Encoding: 1214 1214 711
Width: 915
Flags: HMW
LayerCount: 2
Fore
SplineSet
767 466 m 1
 754 557 731 659 575 659 c 0
 460 659 379 586 350 466 c 1
 767 466 l 1
255 466 m 1
 266 521 319 741 574 741 c 0
 698 741 874 695 875 384 c 1
 339 384 l 1
 338 376 338 369 338 361 c 0
 338 174 426 59 567 59 c 0
 686 59 743 113 764 215 c 1
 859 215 l 1
 832 64 748 -14 603 -22 c 1
 603 -197 l 1
 531 -197 l 1
 531 -20 l 1
 304 6 245 219 245 362 c 2
 245 384 l 1
 100 387 40 486 40 586 c 0
 40 690 96 757 180 757 c 0
 253 757 299 717 304 643 c 1
 224 643 l 1
 224 653 208 680 174 680 c 0
 143 680 120 642 120 586 c 0
 120 511 173 466 235 466 c 2
 255 466 l 1
EndSplineSet
Validated: 3073
EndChar

StartChar: uni04BF
Encoding: 1215 1215 712
Width: 691
Flags: HMW
LayerCount: 2
Fore
SplineSet
275 234 m 1
 278 88 367 54 429 54 c 0
 496 54 543 90 566 159 c 1
 650 159 l 1
 631 57 563 -8 464 -21 c 1
 464 -197 l 1
 392 -197 l 1
 392 -21 l 1
 271 -6 195 87 188 234 c 1
 74 236 30 308 30 382 c 0
 30 458 67 504 123 504 c 0
 171 504 201 471 206 420 c 1
 148 420 l 1
 146 434 137 440 122 440 c 0
 103 440 98 426 98 382 c 0
 98 332 120 302 156 302 c 2
 190 302 l 1
 206 447 296 539 428 539 c 0
 661 539 661 318 661 234 c 1
 275 234 l 1
277 302 m 1
 572 302 l 1
 572 413 494 462 427 462 c 0
 343 462 284 399 277 302 c 1
EndSplineSet
Validated: 3073
EndChar

StartChar: uni04C0
Encoding: 1216 1216 713
Width: 254
Flags: HMW
LayerCount: 2
Fore
SplineSet
174 729 m 1
 174 0 l 1
 80 0 l 1
 80 729 l 1
 174 729 l 1
EndSplineSet
Validated: 3073
EndChar

StartChar: uni04C3
Encoding: 1219 1219 716
Width: 671
Flags: HMW
LayerCount: 2
Fore
SplineSet
427 375 m 2
 553 375 612 299 612 183 c 2
 612 18 l 2
 612 -98 553 -174 427 -174 c 2
 375 -174 l 1
 375 -92 l 1
 423 -92 l 2
 478 -92 519 -62 519 0 c 2
 519 201 l 2
 519 263 478 293 423 293 c 2
 173 293 l 1
 173 0 l 1
 80 0 l 1
 80 729 l 1
 173 729 l 1
 173 414 l 1
 536 729 l 1
 656 729 l 1
 244 375 l 1
 427 375 l 2
EndSplineSet
Validated: 3073
EndChar

StartChar: uni04C4
Encoding: 1220 1220 717
Width: 482
Flags: HMW
LayerCount: 2
Fore
SplineSet
359 89 m 2
 359 171 294 192 251 192 c 2
 143 192 l 1
 143 0 l 1
 60 0 l 1
 60 524 l 1
 143 524 l 1
 143 302 l 1
 365 524 l 1
 472 524 l 1
 200 264 l 1
 277 265 l 2
 379 265 442 210 442 122 c 2
 442 0 l 2
 442 -88 379 -143 277 -143 c 2
 251 -143 l 1
 251 -70 l 1
 294 -70 359 -49 359 33 c 2
 359 89 l 2
EndSplineSet
Validated: 3073
EndChar

StartChar: uni04C7
Encoding: 1223 1223 718
Width: 721
Flags: HMW
LayerCount: 2
Fore
SplineSet
547 0 m 2
 547 332 l 1
 174 332 l 1
 174 0 l 1
 80 0 l 1
 80 729 l 1
 173 729 l 1
 173 414 l 1
 547 414 l 1
 547 729 l 1
 641 729 l 1
 641 18 l 2
 641 -98 581 -174 455 -174 c 2
 403 -174 l 1
 403 -92 l 1
 451 -92 l 2
 506 -92 547 -62 547 0 c 2
EndSplineSet
Validated: 3073
EndChar

StartChar: uni04C8
Encoding: 1224 1224 719
Width: 538
Flags: HMW
LayerCount: 2
Fore
SplineSet
287 -70 m 1
 331 -70 394 -49 394 33 c 2
 394 233 l 1
 144 233 l 1
 144 0 l 1
 60 0 l 1
 60 524 l 1
 144 524 l 1
 144 309 l 1
 394 309 l 1
 394 524 l 1
 478 524 l 1
 478 0 l 2
 478 -88 415 -143 313 -143 c 2
 287 -143 l 1
 287 -70 l 1
EndSplineSet
Validated: 3073
EndChar

StartChar: uni04CB
Encoding: 1227 1227 720
Width: 630
Flags: HMW
LayerCount: 2
Fore
SplineSet
470 0 m 1
 470 -135 l 1
 390 -135 l 1
 390 74 l 1
 457 74 l 1
 457 260 l 1
 245 260 l 2
 119 260 60 336 60 452 c 2
 60 729 l 1
 153 729 l 1
 153 434 l 2
 153 372 194 342 249 342 c 2
 457 342 l 1
 457 729 l 1
 550 729 l 1
 550 0 l 1
 470 0 l 1
EndSplineSet
Validated: 3073
EndChar

StartChar: uni04CC
Encoding: 1228 1228 721
Width: 480
Flags: HMW
LayerCount: 2
Fore
SplineSet
345 0 m 1
 345 -120 l 1
 275 -120 l 1
 275 64 l 1
 336 64 l 1
 336 191 l 1
 195 191 l 2
 114 191 40 240 40 334 c 2
 40 524 l 1
 124 524 l 1
 124 337 l 2
 124 288 152 267 192 267 c 2
 336 267 l 1
 336 524 l 1
 420 524 l 1
 420 0 l 1
 345 0 l 1
EndSplineSet
Validated: 3073
EndChar

StartChar: uni04D8
Encoding: 1240 1240 730
Width: 710
Flags: HMW
LayerCount: 2
Fore
SplineSet
148 252 m 1
 161 161 184 59 340 59 c 0
 455 59 536 132 565 252 c 1
 148 252 l 1
670 356 m 0
 670 207 604 -23 341 -23 c 0
 217 -23 41 23 40 334 c 1
 576 334 l 1
 577 342 577 349 577 357 c 0
 577 544 489 659 348 659 c 0
 229 659 172 605 151 503 c 1
 56 503 l 1
 85 663 177 741 337 741 c 0
 603 741 670 508 670 356 c 0
EndSplineSet
Validated: 3073
EndChar

StartChar: uni0531
Encoding: 1329 1329 762
Width: 730
Flags: HMW
LayerCount: 2
Fore
SplineSet
345 73 m 0
 508 73 538 161 538 303 c 2
 538 716 l 1
 633 716 l 1
 633 120 l 1
 720 27 l 1
 661 -41 l 1
 570 60 l 1
 521 5 399 -12 353 -12 c 0
 127 -12 70 106 70 302 c 2
 70 716 l 1
 164 716 l 1
 164 303 l 2
 164 197.542 167 73 345 73 c 0
EndSplineSet
Validated: 3073
EndChar

StartChar: uni0532
Encoding: 1330 1330 763
Width: 693
Flags: HMW
LayerCount: 2
Fore
SplineSet
353 726 m 0
 577 726 633 595 633 412 c 2
 633 330 l 1
 538 330 l 1
 538 411 l 2
 538 551 512.012 641 345 641 c 0
 177 641 165 532 165 372 c 2
 165 372 165 281 165 243 c 1
 630 243 l 1
 630 150 l 1
 165 150 l 1
 165 0 l 1
 70 0 l 1
 70 412 l 2
 70 597 121 726 353 726 c 0
EndSplineSet
Validated: 3073
EndChar

StartChar: uni0533
Encoding: 1331 1331 764
Width: 730
Flags: HMW
LayerCount: 2
Fore
SplineSet
700 134 m 1
 593 134 l 1
 593 -1 l 1
 498 -1 l 1
 498 134 l 1
 283 134 l 2
 59 134 40 348 40 412 c 0
 40 576 58 726 320 726 c 0
 549 726 590 602 590 518 c 2
 590 518 590 281 590 230 c 1
 700 230 l 1
 700 134 l 1
497 507 m 2
 497 587 427.02 641 328 641 c 0
 146 641 130 562 130 447 c 0
 130 262 236 230 317 230 c 2
 497 230 l 1
 497 507 l 2
EndSplineSet
Validated: 3073
EndChar

StartChar: uni0534
Encoding: 1332 1332 765
Width: 735
Flags: HMW
LayerCount: 2
Fore
SplineSet
340 729 m 0
 566 729 623 606 623 415 c 2
 623 239 l 1
 705 239 l 1
 705 145 l 1
 623 145 l 1
 623 1 l 1
 528 1 l 1
 528 414 l 2
 528 546 508 640 348 644 c 0
 185 644 155 556 155 414 c 2
 155 333 l 1
 60 333 l 1
 60 415 l 2
 60 541.275 75.2783 729 340 729 c 0
EndSplineSet
Validated: 3073
EndChar

StartChar: uni0535
Encoding: 1333 1333 766
Width: 693
Flags: HMW
LayerCount: 2
Fore
SplineSet
345 76 m 0
 509 76 538 163 538 305 c 2
 538 386 l 1
 633 386 l 1
 633 305 l 2
 633 128 584 -7 353 -10 c 0
 125 -10 70 115 70 305 c 2
 70 733 l 1
 165 733 l 1
 165 581 l 1
 630 581 l 1
 630 488 l 1
 165 488 l 1
 165 305 l 2
 165 210.447 166.64 76 345 76 c 0
EndSplineSet
Validated: 3073
EndChar

StartChar: uni0536
Encoding: 1334 1334 767
Width: 751
Flags: HMW
LayerCount: 2
Fore
SplineSet
655 469 m 0
 655 267 529 160 472 131 c 1
 595 131 l 2
 648 131 728 119 731 0 c 1
 648 0 l 1
 648 38 625 51 579 52 c 2
 156 52 l 1
 156 0 l 1
 66 0 l 1
 66 184 l 1
 156 184 l 1
 156 129 l 1
 283 129 l 2
 309.198 129 582 184.743 582 445 c 0
 582 617 444 660 363 660 c 0
 254.002 660 145 588.281 145 440 c 1
 333 440 l 1
 333 359 l 1
 50 359 l 1
 50 388 l 2
 50 576.075 114.4 735 372 735 c 0
 502.212 735 655 655.353 655 469 c 0
EndSplineSet
Validated: 3073
EndChar

StartChar: uni0537
Encoding: 1335 1335 768
Width: 446
Flags: HMW
LayerCount: 2
Fore
SplineSet
320 79 m 1
 320 0 l 1
 70 0 l 1
 70 721 l 1
 166 721 l 1
 166 488 l 1
 416 488 l 1
 416 411 l 1
 166 411 l 1
 166 79 l 1
 320 79 l 1
EndSplineSet
Validated: 3073
EndChar

StartChar: uni0538
Encoding: 1336 1336 769
Width: 703
Flags: HMW
LayerCount: 2
Fore
SplineSet
633 415 m 2
 633 274 l 1
 538 274 l 1
 538 414 l 2
 538 552 512 642 345 644 c 0
 190 644 164 554.015 164 414 c 2
 164 87 l 1
 633 87 l 1
 633 0 l 1
 70 0 l 1
 70 415 l 2
 70 600 121 729 353 729 c 0
 577.245 729 633 599.791 633 415 c 2
EndSplineSet
Validated: 3073
EndChar

StartChar: uni0539
Encoding: 1337 1337 770
Width: 790
Flags: HMW
LayerCount: 2
Fore
SplineSet
462 368 m 2
 373 368 347 346 347 218 c 0
 347 108 366 78 488 76 c 0
 590 76 641 122 641 213 c 2
 641 368 l 1
 462 368 l 2
736 206 m 2
 736 119.463 696.088 -2 469 -2 c 0
 276.222 -2 254 110.06 254 216 c 0
 254 379 296 448 461 448 c 2
 641 448 l 1
 641 514 l 2
 641 592 614 647 493 650 c 2
 314 650 l 2
 248 650 165 640 165 514 c 2
 165 0 l 1
 70 0 l 1
 70 523 l 2
 70 687 211 728 308 728 c 2
 499 728 l 2
 638 728 736 646 736 523 c 2
 736 448 l 1
 790 448 l 1
 790 370 l 1
 736 370 l 1
 736 206 l 2
EndSplineSet
Validated: 3073
EndChar

StartChar: uni053A
Encoding: 1338 1338 771
Width: 656
Flags: HMW
LayerCount: 2
Fore
SplineSet
540 195 m 2
 540 74 448 -7 302 -10 c 0
 163 -10 65 68 65 195 c 2
 65 321 l 2
 65 444 157 523 302 526 c 2
 445 526 l 1
 445 718 l 1
 537 718 l 1
 537 526 l 1
 636 526 l 1
 636 451 l 1
 540 451 l 1
 540 195 l 2
302 65 m 0
 386 65 442 90 445 202 c 2
 445 451 l 1
 295 451 l 2
 216 451 161.854 423.993 160 309 c 2
 160 202 l 2
 160 119 196 65 302 65 c 0
EndSplineSet
Validated: 3073
EndChar

StartChar: uni053B
Encoding: 1339 1339 772
Width: 697
Flags: HMW
LayerCount: 2
Fore
SplineSet
538 257 m 2
 538 394 511 486 358 486 c 0
 267 486 185 456 171 381 c 0
 167 360 164 329 164 286 c 0
 164 0 l 1
 70 0 l 1
 70 732 l 1
 168 732 l 1
 168 518 l 1
 182 551 291 575 346 575 c 0
 577 575 632 443 632 257 c 2
 632 186 l 1
 538 186 l 1
 538 257 l 2
EndSplineSet
Validated: 3073
EndChar

StartChar: uni053C
Encoding: 1340 1340 773
Width: 390
Flags: HMW
LayerCount: 2
Fore
SplineSet
70 0 m 1
 70 716 l 1
 165 716 l 1
 165 94 l 1
 350 94 l 1
 350 0 l 1
 70 0 l 1
EndSplineSet
Validated: 3073
EndChar

StartChar: uni053D
Encoding: 1341 1341 774
Width: 852
Flags: HMW
LayerCount: 2
Fore
SplineSet
548 73 m 0
 628.65 73 692 96 692 303 c 2
 692 527 l 1
 787 527 l 1
 787 302 l 2
 787 66 686 -12 547 -12 c 0
 316 -12 272 117 272 303 c 2
 272 303 272 411 272 448 c 1
 165 448 l 1
 165 0 l 1
 70 0 l 1
 70 723 l 1
 165 723 l 1
 165 528 l 1
 368 528 l 1
 368 303 l 2
 368 165 390 77 548 73 c 0
EndSplineSet
Validated: 3073
EndChar

StartChar: uni053E
Encoding: 1342 1342 775
Width: 791
Flags: HMW
LayerCount: 2
Fore
SplineSet
118 762 m 1
 122 712 174 707 214 707 c 2
 629 707 l 2
 687 707 734 693 759 662 c 1
 768 646 l 1
 703 583 l 1
 695 626 666 627 642 627 c 2
 516 628 l 1
 552 614 712 530 712 312 c 0
 712 123.572 549.791 -4 375 -4 c 0
 190 -4 47 142 47 330 c 0
 47 528.514 227.123 628.854 240 631 c 1
 159 632 l 2
 97 632 35 650 35 713 c 0
 35 716 35 718 35 721 c 1
 118 762 l 1
627 316 m 0
 627 466 521 582 384 582 c 0
 240.179 582 130 450.832 130 312 c 0
 130 185.285 237.473 72.0696 372 70 c 0
 501.29 70 624.862 174.893 627 316 c 0
EndSplineSet
Validated: 3073
EndChar

StartChar: uni053F
Encoding: 1343 1343 776
Width: 698
Flags: HMW
LayerCount: 2
Fore
SplineSet
356 159 m 0
 127 159 70 286 70 476 c 2
 70 733 l 1
 164 733 l 1
 164 477 l 2
 164 366.78 171.146 251.347 345 247 c 0
 532.208 247 538 344.017 538 477 c 2
 538 553 l 1
 633 553 l 1
 632 1 l 1
 535 1 l 1
 535 216 l 1
 524 193 470 159 356 159 c 0
EndSplineSet
Validated: 3073
EndChar

StartChar: uni0540
Encoding: 1344 1344 777
Width: 585
Flags: HMW
LayerCount: 2
Fore
SplineSet
501 725 m 0
 524 725 550 721 564 710 c 1
 564 607 l 1
 556.652 616.043 543.934 636.805 511 639 c 0
 479 639 452 613 435 593 c 2
 164 265 l 1
 548 89 l 1
 548 -74 l 1
 516 -74 l 1
 500 15 425 46 398 59 c 2
 20 229 l 1
 392 669 l 2
 416 699 451 725 501 725 c 0
EndSplineSet
Validated: 3073
EndChar

StartChar: uni0541
Encoding: 1345 1345 778
Width: 656
Flags: HMW
LayerCount: 2
Fore
SplineSet
331 653 m 0
 242 653 172 591 172 495 c 2
 172 434 l 1
 77 436 l 1
 77 502 l 2
 77 612.287 175.561 728 331 728 c 0
 487 728 588 629 591 482 c 2
 591 419 l 2
 591 285 517 162 404 84 c 1
 435 58 458 23 485 -8 c 1
 412 -42 l 1
 383 -18 360 4 337 36 c 1
 251.301 -9.23047 227 -9.59961 199 -11 c 0
 79.7998 -11 50 64 50 106 c 0
 50 189 96 235 173 237 c 0
 202.833 237 295.683 228.529 350 138 c 1
 432 190 498 308 498 429 c 2
 498 473 l 2
 498 626 362 653 331 653 c 0
189 156 m 0
 158 156 136 144.056 136 108 c 0
 136 84 157 64 198 64 c 0
 227 64 256 83 279 99 c 1
 265 118 234 156 189 156 c 0
EndSplineSet
Validated: 3073
EndChar

StartChar: uni0542
Encoding: 1346 1346 779
Width: 651
Flags: HMW
LayerCount: 2
Fore
SplineSet
302 728 m 0
 444 728 539 645 539 523 c 2
 539 75 l 1
 636 75 l 1
 636 0 l 1
 444 0 l 1
 444 517 l 2
 444 594 418 650 302 653 c 0
 222 653 160 626 160 517 c 2
 160 313 l 1
 65 313 l 1
 65 523 l 2
 65 642 158 728 302 728 c 0
EndSplineSet
Validated: 3073
EndChar

StartChar: uni0543
Encoding: 1347 1347 780
Width: 658
Flags: HMW
LayerCount: 2
Fore
SplineSet
618 0 m 1
 40 0 l 1
 40 342.274 245.242 535.374 249 536 c 1
 234 547 201 563 177 572 c 1
 237 643 l 1
 274 630 292 629 326 606 c 1
 373 648 462 696 523 724 c 1
 589 657 l 1
 517 625 457 595 403 557 c 1
 412.928 557 618 333.323 618 0 c 1
530 96 m 1
 512.825 165.711 469.065 357.029 335 496 c 1
 329.06 496 183.922 316.349 143 96 c 1
 530 96 l 1
EndSplineSet
Validated: 3073
EndChar

StartChar: uni0544
Encoding: 1348 1348 781
Width: 759
Flags: HMW
LayerCount: 2
Fore
SplineSet
348 75 m 0
 503 75 529 170 529 304 c 2
 529 729 l 1
 728 729 l 1
 729 636 l 1
 623 635 l 1
 623 304 l 2
 623 110 566 -10 340 -10 c 0
 116 -10 60 121 60 304 c 2
 60 728 l 1
 155 728 l 1
 155 304 l 2
 155 162 184 75 348 75 c 0
EndSplineSet
Validated: 3073
EndChar

StartChar: uni0545
Encoding: 1349 1349 782
Width: 595
Flags: HMW
LayerCount: 2
Fore
SplineSet
443 386 m 1
 493 380 550 315 550 203 c 0
 550 66 436 -12 294 -12 c 0
 122 -12 45 94 45 194 c 1
 138 194 l 1
 138 76 278 63 297 63 c 1
 311.977 63 456 67.8818 456 209 c 0
 456 335.999 349.944 352 303 352 c 2
 71 352 l 1
 71 429 l 1
 302 429 l 2
 355 429 435 442 435 544 c 0
 435 631 348 653 295 653 c 0
 227 653 171 616 171 556 c 1
 75 556 l 1
 75 623 119 728 296 728 c 0
 481 728 528 619 528 541 c 0
 528 434.667 472.878 397.951 443 386 c 1
EndSplineSet
Validated: 3073
EndChar

StartChar: uni0546
Encoding: 1350 1350 783
Width: 772
Flags: HMW
LayerCount: 2
Fore
SplineSet
447 -9 m 0
 221 -9 169 102 164 305 c 2
 164 635 l 1
 10 635 l 1
 10 729 l 1
 259 729 l 1
 259 305 l 2
 259 209.262 262.165 76 439 76 c 0
 603 76 632 163 632 305 c 2
 632 454 l 1
 727 454 l 1
 727 305 l 2
 727 125 675 -9 447 -9 c 0
EndSplineSet
Validated: 3073
EndChar

StartChar: uni0547
Encoding: 1351 1351 784
Width: 603
Flags: HMW
LayerCount: 2
Fore
SplineSet
40 333 m 2
 40 497 134 590 232 625 c 1
 92 655 l 1
 92 739 l 1
 514 642 l 1
 514 559 l 1
 458 571 445 574 382 587 c 1
 237 587 138 522.138 138 333 c 2
 138 242 l 2
 138 129.299 204.486 70.4242 301 63 c 0
 324.779 63 460 75.5317 460 221 c 2
 460 285 l 1
 556 285 l 1
 556 215 l 2
 556 103.858 459.777 -12 301 -12 c 0
 93 -12 40 162 40 215 c 2
 40 333 l 2
EndSplineSet
Validated: 3073
EndChar

StartChar: uni0548
Encoding: 1352 1352 785
Width: 703
Flags: HMW
LayerCount: 2
Fore
SplineSet
633 415 m 2
 633 1 l 1
 538 1 l 1
 538 414 l 2
 538 552 512 642 345 644 c 0
 190 644 166 554 164 414 c 2
 164 1 l 1
 70 1 l 1
 70 415 l 2
 70 600 121 729 353 729 c 0
 577.245 729 633 599.791 633 415 c 2
EndSplineSet
Validated: 3073
EndChar

StartChar: uni0549
Encoding: 1353 1353 786
Width: 648
Flags: MW
LayerCount: 2
Fore
SplineSet
583 386 m 2
 583 218 448 129 335 108 c 1
 486 68 l 1
 488 -14 l 1
 86 91 l 1
 86 176 l 1
 217 139 l 1
 387 154 486 244 486 402 c 2
 486 487 l 2
 486 620 392 644 320 653 c 0
 225 653 163 592 161 495 c 2
 161 431 l 1
 66 430 l 1
 66 502 l 2
 66 562 96 617 130 653 c 0
 171 694 233 728 320 728 c 0
 541 728 580 548 582 502 c 2
 583 386 l 2
EndSplineSet
Validated: 3073
EndChar

StartChar: uni054A
Encoding: 1354 1354 787
Width: 698
Flags: HMW
LayerCount: 2
Fore
SplineSet
628 415 m 2
 628 1 l 1
 533 1 l 1
 533 414 l 2
 533 597 475 622 388 645 c 1
 388 507.065 388 347.981 388 223 c 9
 291 223 l 1
 291 644 l 1
 172.964 644 160.06 505.13 159 414 c 2
 159 372 l 1
 65 372 l 1
 65 415 l 2
 65 600 116 729 348 729 c 0
 572.245 729 628 599.791 628 415 c 2
EndSplineSet
Validated: 3073
EndChar

StartChar: uni054B
Encoding: 1355 1355 788
Width: 744
Flags: HMW
LayerCount: 2
Fore
SplineSet
521 281 m 1
 540 320 563 381 565 438 c 0
 565 615.6 436.3 660 332 660 c 0
 163 660 125 502 125 434 c 1
 229.814 434 477.457 429.645 521 281 c 1
638 469 m 0
 638 267 512 160 455 131 c 1
 578 131 l 2
 665 131 712 89 714 0 c 1
 631 0 l 1
 631 38 608 51 562 52 c 2
 139 52 l 1
 139 0 l 1
 49 0 l 1
 49 184 l 1
 139 184 l 1
 139 129 l 1
 266 129 l 2
 347 129 441 164 441 237 c 0
 441 349.226 236.435 355 162 355 c 0
 68.3584 357.341 55.252 356.583 45 360 c 1
 45 449 l 2
 45 554.369 102.8 735 334 735 c 0
 409 735 638 714 638 469 c 0
EndSplineSet
Validated: 3073
EndChar

StartChar: uni054C
Encoding: 1356 1356 789
Width: 738
Flags: HMW
LayerCount: 2
Fore
SplineSet
633 415 m 2
 633 250 l 1
 708 250 l 1
 708 169 l 1
 630 169 l 1
 630 1 l 1
 538 1 l 1
 538 414 l 2
 538 552 512 642 345 644 c 0
 190 644 166 554 164 414 c 2
 164 1 l 1
 70 1 l 1
 70 415 l 2
 70 600 121 729 353 729 c 0
 577.245 729 633 599.791 633 415 c 2
EndSplineSet
Validated: 3073
EndChar

StartChar: uni054D
Encoding: 1357 1357 790
Width: 703
Flags: HMW
LayerCount: 2
Fore
SplineSet
345 73 m 0
 508 73 538 161 538 303 c 2
 538 716 l 1
 633 716 l 1
 633 302 l 2
 633 131 586 -12 353 -12 c 0
 127 -12 70 106 70 302 c 2
 70 716 l 1
 164 716 l 1
 164 303 l 2
 164 197.542 171 73 345 73 c 0
EndSplineSet
Validated: 3073
EndChar

StartChar: uni054E
Encoding: 1358 1358 791
Width: 739
Flags: HMW
LayerCount: 2
Fore
SplineSet
351 159 m 0
 122 159 65 286 65 476 c 2
 65 577 l 1
 159 577 l 1
 159 477 l 2
 159 366.78 159 247 340 247 c 0
 527.208 247 533 344.017 533 477 c 2
 533 729 l 1
 628 729 l 1
 628 95 l 1
 718 95 l 1
 718 1 l 1
 530 1 l 1
 530 216 l 1
 519 193 465 159 351 159 c 0
EndSplineSet
Validated: 3073
EndChar

StartChar: uni054F
Encoding: 1359 1359 792
Width: 660
Flags: HMW
LayerCount: 2
Fore
SplineSet
523 194 m 0
 523 390 88 251 72 531 c 0
 72 659 188 728 324 728 c 0
 580.21 728 593 542.476 593 514 c 1
 502 514 l 1
 494 606 434 643 328 645 c 0
 234 645 164 611 164 537 c 0
 164 358 615 474 615 202 c 0
 615 78 499 -12 350 -12 c 0
 106 -12 45 134 45 232 c 1
 134 232 l 1
 140.366 159.146 178 73 346 73 c 0
 434 73 523 112 523 194 c 0
EndSplineSet
Validated: 3073
EndChar

StartChar: uni0550
Encoding: 1360 1360 793
Width: 693
Flags: HMW
LayerCount: 2
Fore
SplineSet
633 415 m 2
 633 294 l 1
 538 294 l 1
 538 414 l 2
 538 552 512 642 345 644 c 0
 190 644 166 554 164 414 c 2
 164 1 l 1
 70 1 l 1
 70 415 l 2
 70 600 121 729 353 729 c 0
 577.245 729 633 599.791 633 415 c 2
EndSplineSet
Validated: 3073
EndChar

StartChar: uni0551
Encoding: 1361 1361 794
Width: 623
Flags: HMW
LayerCount: 2
Fore
SplineSet
79 544 m 0
 79 615 114 728 312 728 c 0
 459 728 546 672 546 544 c 0
 546 468 505 426 458 406 c 1
 506 394 569 324 569 211 c 0
 569 81 467 -12 313 -12 c 0
 162 -12 60 75 60 203 c 1
 153 203 l 1
 153 119 216 63 313 63 c 0
 374 63 475 90 475 211 c 0
 475 342 363 359 314 359 c 0
 245 359 198 341 175 306 c 1
 69 307 l 1
 76 329 90 372 164 404 c 1
 128.397 416.715 79 450 79 544 c 0
170 544 m 0
 170 480 232 432 312 432 c 0
 384 432 452 463 452 544 c 0
 452 630 368 652 311 652 c 0
 236 652 170 610 170 544 c 0
EndSplineSet
Validated: 3073
EndChar

StartChar: uni0552
Encoding: 1362 1362 795
Width: 385
Flags: HMW
LayerCount: 2
Fore
SplineSet
70 723 m 1
 165 723 l 1
 165 475 l 1
 345 475 l 1
 345 395 l 1
 165 395 l 1
 165 0 l 1
 70 0 l 1
 70 723 l 1
EndSplineSet
Validated: 3073
EndChar

StartChar: uni0553
Encoding: 1363 1363 796
Width: 788
Flags: HMW
LayerCount: 2
Fore
SplineSet
348 48 m 1
 281 56 45 103 45 362 c 0
 45 612 272 660 348 670 c 1
 348 725 l 1
 442 725 l 1
 442 670 l 1
 481.928 670 743 632.033 743 362 c 0
 743 111 517 55 442 48 c 1
 442 1 l 1
 348 1 l 1
 348 48 l 1
348 591 m 1
 293 585 144 548 140 360 c 0
 140 216 224 150 348 126 c 1
 348 591 l 1
442 126 m 1
 497 136 645 168 651 360 c 0
 651 499 568 574 442 591 c 1
 442 126 l 1
EndSplineSet
Validated: 3073
EndChar

StartChar: uni0554
Encoding: 1364 1364 797
Width: 632
Flags: HMW
LayerCount: 2
Fore
SplineSet
355 728 m 0
 495 728 582 651 588 521 c 0
 588 368 511 275 365 275 c 0
 273 275 227 314 211 335 c 1
 211 199 l 1
 592 199 l 1
 592 121 l 1
 210 121 l 1
 210 0 l 1
 117 0 l 1
 117 121 l 1
 30 121 l 1
 30 199 l 1
 117 199 l 1
 117 523 l 2
 117 646 212 728 355 728 c 0
355 653 m 0
 276 653 212 602 212 518 c 2
 212 472 l 2
 212 401 288 352 366 352 c 0
 452 352 494 405 494 511 c 0
 494 625 409 651 355 653 c 0
EndSplineSet
Validated: 3073
EndChar

StartChar: uni0555
Encoding: 1365 1365 798
Width: 775
Flags: HMW
LayerCount: 2
Fore
SplineSet
730 357 m 0
 730 137 587 -12 388 -12 c 0
 178 -12 48 150 45 349 c 0
 45 584 183 727 388 729 c 0
 587 729 727 583 730 357 c 0
389 647 m 0
 294 647 143 602 143 347 c 0
 143 179 241 69 387 69 c 0
 485 69 632 127 632 357 c 0
 632 589 482 647 389 647 c 0
EndSplineSet
Validated: 3073
EndChar

StartChar: uni0556
Encoding: 1366 1366 799
Width: 714
Flags: HMW
LayerCount: 2
Fore
SplineSet
579 273 m 2
 579 410 490 433 437 433 c 2
 391 433 l 1
 391 67 l 1
 437 67 l 2
 494 67 579 97 579 218 c 2
 579 273 l 2
156 578 m 0
 156 524 203 507 265 507 c 2
 299 507 l 1
 299 653 l 1
 258 653 l 2
 197 653 156 636 156 578 c 0
674 212 m 2
 674 88 584 -5 437 -8 c 2
 304 -8 l 2
 75.7871 -8 40 101.8 40 175 c 1
 133 175 l 1
 133 114 171 66 300 66 c 1
 300 434 l 1
 255 435 l 2
 198 435 87 461 87 576 c 0
 87 703 173 725 296 725 c 2
 391 725 l 1
 391 508 l 1
 437 508 l 2
 579 508 667 429 674 298 c 2
 674 212 l 2
EndSplineSet
Validated: 3073
EndChar

StartChar: uni055A
Encoding: 1370 1370 800
Width: 222
Flags: MW
LayerCount: 2
Fore
SplineSet
61 621 m 1
 61 723 l 1
 155 723 l 1
 155 643 l 2
 155 579 149 527 74 489 c 1
 53 523 l 1
 87 536 106 571 106 621 c 1
 61 621 l 1
EndSplineSet
Validated: 3073
EndChar

StartChar: uni055B
Encoding: 1371 1371 801
Width: 200
Flags: HMW
LayerCount: 2
Fore
SplineSet
30 588 m 1
 118 718 l 1
 173 718 l 1
 68 588 l 1
 30 588 l 1
EndSplineSet
Validated: 3073
EndChar

StartChar: uni055C
Encoding: 1372 1372 802
Width: 333
Flags: HMW
LayerCount: 2
Fore
SplineSet
27 632 m 1
 41 655 81 685 120 685 c 0
 151.5 685 181 682 214 682 c 0
 255 682 284 708 306 730 c 1
 306 675 l 1
 287 655 259 627 214 627 c 0
 163 627 161.5 630 120 630 c 0
 71 630 47 606 27 577 c 1
 27 632 l 1
EndSplineSet
Validated: 3073
EndChar

StartChar: uni055E
Encoding: 1374 1374 804
Width: 333
Flags: HMW
LayerCount: 2
Fore
SplineSet
13 639 m 2
 13 700 48 793 180 793 c 0
 259 793 305 744 305 683 c 0
 305 624 267 588 211 588 c 0
 155 588 126 620 126 685 c 1
 181 685 l 1
 181 656.5 196 643 213 643 c 0
 236 643 250 655.5 250 684 c 0
 250 723 223.5 739 178 739 c 0
 115 739 68 715 68 638 c 2
 68 638 68 607 68 596 c 1
 13 596 l 1
 13 639 l 2
EndSplineSet
Validated: 3073
EndChar

StartChar: uni0561
Encoding: 1377 1377 805
Width: 833
Flags: HMW
LayerCount: 2
Fore
SplineSet
552 66 m 0
 648 66 680 138 680 251 c 2
 680 524 l 1
 768 524 l 1
 768 1 l 1
 689 1 l 1
 689 74 l 1
 663 29 604 -10 532 -10 c 0
 455 -10 405 23 386 81 c 1
 345 20 292 -10 226 -10 c 0
 118 -10 65 50 65 164 c 2
 65 524 l 1
 153 524 l 1
 153 193 l 2
 153 121.692 164 66 245 66 c 1
 294 66 372 89 372 219 c 2
 372 524 l 1
 460 524 l 1
 460 183 l 2
 460 111 482 66 552 66 c 0
EndSplineSet
Validated: 3073
EndChar

StartChar: uni0562
Encoding: 1378 1378 806
Width: 551
Flags: HMW
LayerCount: 2
Fore
SplineSet
491 195 m 1
 403 195 l 1
 403 293 l 2
 403 370.977 402.958 460 296 460 c 0
 185.462 460 158 376.209 158 283 c 2
 158 66 l 1
 489 66 l 1
 489 0 l 1
 158 0 l 1
 158 -200 l 1
 70 -200 l 1
 70 524 l 1
 149 524 l 1
 149 447 l 1
 189 506 244 535 313 535 c 0
 373 535 430 508 458 474 c 0
 482 442 491 389 491 326 c 2
 491 195 l 1
EndSplineSet
Validated: 3073
EndChar

StartChar: uni0563
Encoding: 1379 1379 807
Width: 572
Flags: HMW
LayerCount: 2
Fore
SplineSet
35 268 m 0
 35 432 123 535 254 535 c 0
 332 535 370 505 405 456 c 1
 405 524 l 1
 485 524 l 1
 485 66 l 1
 561 66 l 1
 561 0 l 1
 485 0 l 1
 485 -200 l 1
 397 -200 l 1
 397 59 l 1
 369 24 323 -5 261 -7 c 0
 125 -7 35 111 35 268 c 0
267 66 m 0
 327 66 405 105 405 261 c 0
 405 386 347 466 263 466 c 0
 210 466 125 427 125 269 c 0
 125 107 207 66 267 66 c 0
EndSplineSet
Validated: 3073
EndChar

StartChar: uni0564
Encoding: 1380 1380 808
Width: 569
Flags: HMW
LayerCount: 2
Fore
SplineSet
148 444 m 1
 165 468 201 534 313 534 c 0
 401 534 454 487 459 404 c 2
 459 62 l 1
 559 62 l 1
 559 0 l 1
 459 0 l 1
 459 -200 l 1
 371 -200 l 1
 371 366 l 2
 371 428 346 458 293 459 c 0
 193 459 153 382 153 289 c 0
 153 0 l 1
 65 0 l 1
 65 524 l 1
 148 524 l 1
 148 444 l 1
EndSplineSet
Validated: 3073
EndChar

StartChar: echarmenian
Encoding: 1381 1381 809
Width: 546
Flags: HMW
LayerCount: 2
Fore
SplineSet
261 65 m 0
 366 65 399 138 399 236 c 2
 399 333 l 1
 486 333 l 1
 486 0 l 1
 407 0 l 1
 407 74 l 1
 369 18 315 -11 242 -11 c 0
 67.3906 -11 65 123.94 65 200 c 2
 65 719 l 1
 153 721 l 1
 153 483 l 1
 490 483 l 1
 490 417 l 1
 153 417 l 1
 153 204 l 2
 153 121 175 65 261 65 c 0
EndSplineSet
Validated: 3073
EndChar

StartChar: uni0566
Encoding: 1382 1382 810
Width: 581
Flags: HMW
LayerCount: 2
Fore
SplineSet
236 5 m 0
 119 5 35 121 35 264 c 0
 35 412 109 537 250 537 c 0
 334 537 377 492 390 470 c 1
 390 524 l 1
 472 524 l 1
 472 -141 l 1
 571 -141 l 1
 571 -200 l 1
 387 -200 l 1
 387 81 l 1
 360 39 308 5 236 5 c 0
124 268 m 0
 124 159 171 81 263 75 c 0
 346 75 388 176 390 266 c 0
 390 370 353 468 258 468 c 0
 159 468 124 371 124 268 c 0
EndSplineSet
Validated: 3073
EndChar

StartChar: uni0567
Encoding: 1383 1383 811
Width: 353
Flags: HMW
LayerCount: 2
Fore
SplineSet
294 74 m 1
 294 -121 l 1
 218 -119 l 1
 218 0 l 1
 70 0 l 1
 70 721 l 1
 156 721 l 1
 156 467 l 1
 333 467 l 1
 333 401 l 1
 156 401 l 1
 156 74 l 1
 294 74 l 1
EndSplineSet
Validated: 3073
EndChar

StartChar: uni0568
Encoding: 1384 1384 812
Width: 551
Flags: HMW
LayerCount: 2
Fore
SplineSet
291 454 m 0
 186 454 153 375.021 153 277 c 2
 153 -136 l 1
 482 -136 l 1
 482 -200 l 1
 65 -200 l 1
 65 518 l 1
 144 518 l 1
 144 441 l 1
 184 500 239 529 309 529 c 0
 450.6 529 486 436.412 486 320 c 2
 486 -1 l 1
 398 -1 l 1
 398 287 l 2
 398 382 390 454 291 454 c 0
EndSplineSet
Validated: 3073
EndChar

StartChar: uni0569
Encoding: 1385 1385 813
Width: 568
Flags: HMW
LayerCount: 2
Fore
SplineSet
514 169 m 2
 514 73 438 4 348 4 c 0
 259 4 210 56 210 145 c 0
 210 226 275 295 365 295 c 2
 426 295 l 1
 426 360 l 2
 426 434 382 472 306 472 c 0
 189.983 472 156 350 156 319 c 2
 156 -200 l 1
 70 -200 l 1
 70 524 l 1
 148 524 l 1
 148 459 l 1
 184 526 260 537 293 537 c 0
 481 537 513 424 513 372 c 2
 513 292 l 1
 554 292 l 1
 554 232 l 1
 514 232 l 1
 514 169 l 2
348 69 m 0
 403 69 428 109 428 170 c 2
 428 234 l 1
 356 234 l 2
 312 234 288 192 286 142 c 0
 286 98 302 69 348 69 c 0
EndSplineSet
Validated: 3073
EndChar

StartChar: uni056A
Encoding: 1386 1386 814
Width: 569
Flags: HMW
LayerCount: 2
Fore
SplineSet
35 269 m 0
 35 396 103 524 242 524 c 2
 382 524 l 1
 382 734 l 1
 471 734 l 1
 471 524 l 1
 569 524 l 1
 569 456 l 1
 471 456 l 1
 471 221 l 2
 471 82 374 -3 251 -3 c 0
 78.2002 -3 35 165.178 35 269 c 0
259 67 m 0
 367 67 385 167 385 311 c 2
 385 311 385 340 385 456 c 1
 263 456 l 2
 161 456 128 372 125 267 c 0
 125 186 142 69 259 67 c 0
EndSplineSet
Validated: 3073
EndChar

StartChar: iniarmenian
Encoding: 1387 1387 815
Width: 552
Flags: HMW
LayerCount: 2
Fore
SplineSet
295 455 m 0
 240 455 158 429 158 284 c 2
 158 -200 l 1
 70 -200 l 1
 70 716 l 1
 158 716 l 1
 158 459 l 1
 199 506 251 530 313 530 c 0
 456 530 492 446 492 329 c 2
 492 0 l 1
 404 0 l 1
 404 329 l 2
 404 412 371 453 295 455 c 0
EndSplineSet
Validated: 3073
EndChar

StartChar: uni056C
Encoding: 1388 1388 816
Width: 276
Flags: HMW
LayerCount: 2
Fore
SplineSet
256 -143 m 1
 256 -200 l 1
 70 -200 l 1
 70 524 l 1
 158 524 l 1
 158 -143 l 1
 256 -143 l 1
EndSplineSet
Validated: 3073
EndChar

StartChar: xeharmenian
Encoding: 1389 1389 817
Width: 795
Flags: HMW
LayerCount: 2
Fore
SplineSet
504 63 m 0
 608 63 642 133 642 234 c 2
 642 524 l 1
 730 524 l 1
 730 -1 l 1
 651 -1 l 1
 651 73 l 1
 613 16 558.007 -13 486 -13 c 0
 318 -13 309.549 96.0024 309 219 c 2
 308 443 l 1
 158 443 l 1
 158 -200 l 1
 70 -200 l 1
 70 713 l 1
 158 713 l 1
 158 524 l 1
 397 524 l 1
 397 202 l 2
 397 125 412 67 504 63 c 0
EndSplineSet
Validated: 3073
EndChar

StartChar: uni056E
Encoding: 1390 1390 818
Width: 535
Flags: HMW
LayerCount: 2
Fore
SplineSet
413 452 m 1
 435 436 463 381 472 270 c 0
 472 111.477 420.547 -8 261 -8 c 0
 125 -8 35 108 35 264 c 0
 35 428.873 141.525 523 241 523 c 2
 263 524 l 1
 228 548 201 587 199 633 c 0
 199 673 227 712 284 748 c 1
 335 696 l 1
 295 681 276 661 275 634 c 0
 275 584 347 535 369 520 c 1
 515 520 l 1
 515 452 l 1
 413 452 l 1
388 265 m 0
 388 302 373 462 287 462 c 0
 162 462 123 391 123 262 c 0
 123 151 159 62 262 62 c 0
 369 62 386 184 388 265 c 0
EndSplineSet
Validated: 3073
EndChar

StartChar: uni056F
Encoding: 1391 1391 819
Width: 553
Flags: HMW
LayerCount: 2
Fore
SplineSet
268 71 m 0
 321 71 405 97 405 242 c 2
 405 524 l 1
 493 524 l 1
 493 -200 l 1
 405 -200 l 1
 405 66 l 1
 364 19 312 -4 249 -5 c 0
 101 -5 72 85 70 197 c 2
 70 721 l 1
 158 721 l 1
 158 197 l 2
 158 115 192 71 268 71 c 0
EndSplineSet
Validated: 3073
EndChar

StartChar: uni0570
Encoding: 1392 1392 820
Width: 537
Flags: HMW
LayerCount: 2
Fore
SplineSet
295 455 m 0
 240 455 158 429 158 284 c 2
 158 0 l 1
 70 0 l 1
 70 716 l 1
 158 716 l 1
 158 459 l 1
 199 506 251 530 313 530 c 0
 456 530 492 446 492 329 c 2
 492 0 l 1
 404 0 l 1
 404 329 l 2
 404 412 371 453 295 455 c 0
EndSplineSet
Validated: 3073
EndChar

StartChar: uni0571
Encoding: 1393 1393 821
Width: 512
Flags: HMW
LayerCount: 2
Fore
SplineSet
325 665 m 0
 386 665 396 642 396 620 c 0
 396 586 336 542 306 517 c 1
 408 497 467 400 467 276 c 2
 467 0 l 1
 390 0 l 1
 390 63 l 1
 381 39 342 -14 255 -14 c 0
 119 -14 35 106 35 260 c 0
 35 444 270 551 299 602 c 1
 299 615 173 602 162 645 c 0
 162 680 188 719 203 736 c 1
 275 736 l 1
 270 715 254 699 254 688 c 0
 254 671.729 289 665 325 665 c 0
124 256 m 0
 124 153 162.98 56 263 56 c 0
 384 56 396 207 396 258 c 0
 396 370 344 453 267 453 c 0
 181.842 453 124 345.282 124 256 c 0
EndSplineSet
Validated: 3073
EndChar

StartChar: uni0572
Encoding: 1394 1394 822
Width: 568
Flags: HMW
LayerCount: 2
Fore
SplineSet
312 530 m 0
 429 530 458 447 458 400 c 2
 458 -137 l 1
 558 -137 l 1
 558 -200 l 1
 373 -200 l 1
 373 362 l 2
 373 424 346 454 292 455 c 0
 207 455 166 406 153 317 c 2
 153 0 l 1
 65 0 l 1
 65 524 l 1
 147 524 l 1
 147 437 l 1
 188 488 217 530 312 530 c 0
EndSplineSet
Validated: 3073
EndChar

StartChar: uni0573
Encoding: 1395 1395 823
Width: 552
Flags: HMW
LayerCount: 2
Fore
SplineSet
44 31 m 2
 44 224 152 390 205 461 c 1
 141 510 l 1
 190 574 l 1
 252 524 l 1
 311 595 390 676 458 731 c 1
 507 683 l 1
 442 619 381 552 319 486 c 1
 470.509 318.2 498 142 498 31 c 2
 498 31 498 13.4333 498 0 c 1
 44 0 l 1
 44 31 l 2
401 70 m 1
 401 216 288.748 398.043 271 422 c 1
 264 400 154 247 154 70 c 1
 401 70 l 1
EndSplineSet
Validated: 3073
EndChar

StartChar: menarmenian
Encoding: 1396 1396 824
Width: 531
Flags: HMW
LayerCount: 2
Fore
SplineSet
373 436 m 2
 373 524 236 546 236 659 c 0
 236 735 309 744 380 744 c 2
 380 744 445.5 744 457 744 c 1
 457 676 l 1
 373 676 l 2
 342 676 319 670.5 319 653 c 0
 319 597.57 461 540.594 461 433 c 2
 461 0 l 1
 377 0 l 1
 377 56 l 1
 315.58 16.5156 287.406 -10 212 -10 c 0
 124 -10 66 44 65 115 c 2
 65 524 l 1
 153 524 l 1
 153 153 l 2
 153 95 174 65 231 65 c 0
 354 65 368 148 373 214 c 2
 373 436 l 2
EndSplineSet
Validated: 3073
EndChar

StartChar: uni0575
Encoding: 1397 1397 825
Width: 249
Flags: HMW
LayerCount: 2
Fore
SplineSet
38 -123 m 0
 90 -123 91 -75 91 -21 c 2
 91 -21 91 339 91 524 c 1
 179 524 l 1
 179 -18 l 2
 179 -138 150 -200 49 -200 c 0
 24 -200 1 -198 -20 -191 c 1
 -3 -116 l 1
 16 -121 29 -123 38 -123 c 0
EndSplineSet
Validated: 3073
EndChar

StartChar: nowarmenian
Encoding: 1398 1398 826
Width: 527
Flags: HMW
LayerCount: 2
Fore
SplineSet
255 63 m 0
 351 63 368 164 374 198 c 2
 374 524 l 1
 462 524 l 1
 462 0 l 1
 382 0 l 1
 382 83 l 1
 322 19 270.5 -10 216 -10 c 0
 127 -10 70 45 70 112 c 2
 70 556 l 2
 70 602 105 745 252 745 c 2
 317 745 l 1
 317 684 l 1
 183 684 158 639 158 556 c 2
 158 148 l 2
 158 81 195.5 63 255 63 c 0
EndSplineSet
Validated: 3073
EndChar

StartChar: uni0577
Encoding: 1399 1399 827
Width: 405
Flags: HMW
LayerCount: 2
Fore
SplineSet
291 341 m 0
 291 393 257 451 200 451 c 0
 166 451 134 433 103 395 c 1
 60 453 l 1
 95 496 141 527 205 529 c 0
 297 529 378 450 378 357 c 0
 378 315 361 274 334 234 c 0
 167 -21 124 -44 124 -98 c 0
 127 -119 159 -129 220 -129 c 2
 220 -129 323 -129 375 -129 c 1
 375 -195 l 1
 118 -195 l 2
 47 -195 35 -144 35 -109 c 0
 35 -39 139 74 250 241 c 0
 288 299 291 309 291 341 c 0
EndSplineSet
Validated: 3073
EndChar

StartChar: uni0578
Encoding: 1400 1400 828
Width: 551
Flags: HMW
LayerCount: 2
Fore
SplineSet
291 460 m 0
 188 460 155 388 153 283 c 2
 153 -1 l 1
 65 -1 l 1
 65 524 l 1
 144 524 l 1
 144 447 l 1
 184 506 239 535 309 535 c 0
 466.928 535 486 418.766 486 326 c 2
 486 -1 l 1
 398 -1 l 1
 398 293 l 2
 398 376.778 394.801 460 291 460 c 0
EndSplineSet
Validated: 3073
EndChar

StartChar: uni0579
Encoding: 1401 1401 829
Width: 390
Flags: HMW
LayerCount: 2
Fore
SplineSet
219 201 m 0
 219 251 103 283 85 342 c 0
 85 377 171 491 202 531 c 1
 288 512 l 1
 245.521 461.145 176 384.393 176 354 c 0
 176 331.778 307 262.671 307 207 c 0
 307 193 300 175 284 153 c 2
 215 59 l 2
 152 -27 124 -63 124 -94 c 0
 124 -114 135 -136 220 -136 c 2
 220 -136 298.16 -136 357 -136 c 1
 357 -199 l 1
 220 -199 l 2
 107.246 -199 35 -192 35 -99 c 0
 35 -67 58 -34 74 -11 c 2
 213 184 l 2
 216 188 218 194 219 201 c 0
EndSplineSet
Validated: 3073
EndChar

